<svg width="360" height="295" viewBox="0 0 360 295" fill="none" xmlns="http://www.w3.org/2000/svg"><path fill-rule="evenodd" clip-rule="evenodd" d="M136.263 30.292l3.6-1.29h.053L220.352.377c2.633-.913 5.588.054 7.146 2.363l.054.054L269.194 59.4l.054.054c.43.537.752 1.128.967 1.773.269.644.376 1.342.376 2.04V147.27c0 2.739-1.881 5.209-4.513 5.961l-.108.054-83.069 29.593-.107.054a6.078 6.078 0 0 1-2.418.483 6.306 6.306 0 0 1-2.633-.59l-.161-.054-83.337-29.969c-2.472-.86-4.084-3.223-4.084-5.801v-3.867h-.054v-70.09c0-1.987.968-3.813 2.526-4.994l.107-.108 41.212-36.2.054-.053c.107-.08.215-.174.322-.268.108-.095.215-.189.323-.27.483-.375 1.021-.644 1.612-.858zm83.874-16.704l-71.892 25.566 34.388 46.726 71.892-25.565-34.388-46.727zM174.143 168.43l-71.624-25.78V75.729l34.818-30.56 36.806 50.056v73.205zm84.036-25.458V72.077l-71.624 25.511v70.895l71.624-25.511zM47.015 223.535c0 11.547 7.684 22.235 20.848 22.235 13.594 0 21.385-11.172 21.385-22.719 0-11.493-7.576-22.181-20.848-22.181-12.842 0-21.385 10.258-21.385 22.665zM0 243.997c0 2.256 2.096 4.029 4.675 4.029 2.203 0 4.03-1.128 4.782-2.74H32.56c.591 1.612 2.364 2.74 4.46 2.74 2.901 0 5.212-2.095 5.212-4.512v-2.739c0-2.363-1.934-3.974-4.675-3.974h-.537v-31.313c0-2.363-1.934-4.028-4.621-4.028H14.239c-2.526 0-5.212 1.88-5.212 4.512 0 1.719 1.236 3.169 3.063 3.706-.914 9.291-3.923 20.516-6.126 27.069h-.698c-2.794 0-5.212 1.987-5.212 4.458v2.739l-.054.053zm21.869-34.051h5.265v26.855H15.958c2.472-7.735 5.105-18.637 5.857-26.855h.054zm45.994-.644c-7.953 0-10.962 7.895-10.962 13.749 0 8.271 4.836 14.287 11.499 14.287 7.039 0 10.961-6.553 10.961-13.803 0-8.003-4.62-14.233-11.498-14.233zm43.146 17.455h-2.955v10.044h3.116c2.418 0 7.2-1.021 7.2-5.103 0-2.954-3.009-4.941-7.361-4.941zm-16.012-20.839c0 1.773 1.343 3.276 3.224 3.76v31.527c0 2.363 1.934 4.028 4.621 4.028h7.791c5.695 0 17.57-2.578 17.57-13.642v-.161c0-7.788-7.254-12.998-16.657-12.998h-3.492V210h7.415c.806 1.343 2.364 2.202 4.191 2.202 2.901 0 5.212-2.095 5.212-4.511v-2.149c0-2.363-1.935-4.028-4.675-4.028h-20.096c-2.507 0-5.122 1.854-5.157 4.457v0l.053-.053zm54.752 4.028h-2.848v11.494c.914.054 2.096.107 3.6.107 3.171 0 5.803-2.148 5.803-5.585 0-3.653-2.955-6.016-6.555-6.016zm-16.012-3.974c0 1.772 1.344 3.276 3.224 3.759v31.474c0 2.363 1.935 4.028 4.675 4.028h3.224c2.579 0 5.212-1.88 5.212-4.512 0-1.772-1.344-3.276-3.224-3.759v-7.144c1.236.108 2.364.162 3.062.162 8.974 0 16.227-6.499 16.227-14.555 0-8.379-7.415-14.018-15.904-14.018h-11.337c-2.58 0-5.212 1.879-5.212 4.511l.053.054zm56.472 3.33c-7.952 0-10.961 7.895-10.961 13.749 0 8.271 4.836 14.287 11.498 14.287 7.039 0 10.961-6.553 10.961-13.803 0-8.003-4.62-14.233-11.498-14.233zm-20.848 14.233c0 11.547 7.684 22.235 20.848 22.235 13.594 0 21.385-11.172 21.385-22.719 0-11.493-7.576-22.181-20.848-22.181-12.842 0-21.385 10.258-21.385 22.665zm69.905-13.589h-5.32c-.752 8.218-3.385 19.12-5.856 26.855h11.176v-26.855zm-27.135 34.051c0 2.256 2.096 4.029 4.675 4.029 2.203 0 4.03-1.128 4.782-2.74h23.105c.591 1.612 2.364 2.74 4.459 2.74 2.902 0 5.212-2.095 5.212-4.512v-2.739c0-2.363-1.934-3.974-4.674-3.974h-.538v-31.313c0-2.363-1.934-4.028-4.621-4.028H226.37c-2.525 0-5.212 1.88-5.212 4.512 0 1.719 1.236 3.169 3.063 3.706-.914 9.291-3.922 20.516-6.125 27.069h-.699c-2.794 0-5.212 1.987-5.212 4.458v2.739l-.054.053zm67.863-34.695c-7.952 0-10.961 7.895-10.961 13.749 0 8.271 4.836 14.287 11.498 14.287 7.039 0 10.962-6.553 10.962-13.803 0-8.003-4.621-14.233-11.499-14.233zm-20.848 14.233c0 11.547 7.684 22.235 20.848 22.235 13.594 0 21.385-11.172 21.385-22.719 0-11.493-7.576-22.181-20.848-22.181-12.841 0-21.385 10.258-21.385 22.665zm50.884-13.75c-1.988-.429-3.385-1.933-3.385-3.813 0-2.632 2.633-4.512 5.212-4.512h3.492c1.935 0 3.385.752 4.191 2.256l13.648 26.64 14.293-26.371c.913-1.612 2.579-2.525 4.567-2.525 2.794 0 4.728 1.665 4.728 4.028v31.474c1.881.483 3.224 1.987 3.224 3.759 0 2.632-2.633 4.512-5.212 4.512h-3.224c-2.686 0-4.621-1.665-4.621-4.028v-19.55l-9.51 18.261c-.484.966-1.934 2.524-4.729 2.524-1.88 0-3.438-.752-4.137-2.256l-8.704-18.368v19.496c0 2.417-2.257 4.458-5.159 4.458-2.632 0-4.674-1.773-4.674-4.028v-31.957zM117.672 285.353v-11.225c-.645-.645-1.344-1.826-1.344-3.706 0-3.921 3.439-6.606 8.006-6.875.376-.805 1.344-1.45 2.472-1.45 1.343 0 2.418.913 2.418 2.095v1.45c0 1.074-1.021 2.309-2.687 2.309h-1.665c-3.009 0-3.439 1.343-3.439 2.256 0 .376.053.645.161.86h2.525c4.675 0 8.866 3.276 8.866 7.787 0 4.888-3.654 8.594-8.49 8.594h-4.406c-1.397 0-2.417-.86-2.417-2.095zm-12.09 2.417c-5.481 0-9.618-3.867-9.618-8.432 0-5.532 4.621-9.185 9.94-9.185 5.588 0 9.618 3.975 9.618 8.379 0 5.317-4.352 9.238-9.94 9.238zM79.2 288.898c-1.343 0-2.418-.913-2.418-2.095l.054.054v-1.45c0-1.128.913-1.988 2.041-2.256.699-1.611 1.559-4.78 1.881-8.432-.967-.269-1.612-1.021-1.612-1.934 0-1.396 1.397-2.363 2.74-2.363h6.448c4.406 0 5.373 2.793 5.373 4.619v8.056c1.021.269 1.666.967 1.666 1.987v1.451c0 1.289-1.236 2.363-2.74 2.363-1.075 0-1.988-.591-2.31-1.45h-8.651c-.377.859-1.344 1.45-2.472 1.45zm9.31-13.941a.202.202 0 0 1-.015-.077h.054a.548.548 0 0 1-.08-.012c-.084-.016-.218-.042-.403-.042h-2.257c-.215 2.256-.699 5.478-1.612 8.217h4.352v-7.68c0-.286-.024-.358-.04-.406zm12.559 4.112v-.029c.014 2.618 2.318 4.272 4.782 4.272 2.74 0 4.513-1.88 4.513-4.565 0-2.149-1.988-4.189-4.782-4.189-2.463 0-4.5 1.653-4.513 4.482v-.025.054zm21.761-3.545h1.021c2.364 0 4.029 1.773 4.029 3.599 0 2.202-1.235 3.92-3.062 3.92h-1.988v-7.519zm17.409-.859c.268-.107.644-.107 1.128-.107 2.364 0 4.46 1.665 4.46 4.243 0 2.631-1.988 4.296-4.514 4.296h-1.074v-8.432zm-5.696-.161c-.698-.376-1.128-1.074-1.128-1.773l.054.054c0-1.343 1.343-2.309 2.686-2.309.43 0 .86.107 1.29.322l.268.161c1.451-.644 2.956-.806 3.923-.806 5.588 0 9.295 3.975 9.295 8.379 0 5.102-4.406 8.916-9.94 8.916h-.806v4.243c0 1.235-1.182 2.309-2.687 2.309-1.235 0-2.418-.806-2.418-2.041v-17.133l-.537-.322zm31.97-1.719c0 .913.699 1.719 1.666 1.987v10.635c0 1.235 1.021 2.094 2.418 2.094h1.666c1.289 0 2.686-.966 2.686-2.363 0-.913-.698-1.719-1.666-1.987v-10.634c0-1.236-1.02-2.095-2.417-2.095H169.2c-1.343 0-2.687.967-2.687 2.363zm-7.913 7.065c-.146.012-.287.025-.415.025l-.054-.054v3.222h1.236c1.881 0 2.794-.751 2.794-1.557 0-.806-1.021-1.665-3.063-1.665-.168 0-.337.015-.498.029zm-7.293-7.065c0 .967.699 1.773 1.773 1.987v10.259c-.053.107-.053.215-.053.322 0 1.128 1.074 2.095 2.418 2.095h3.653c5.427 0 8.168-3.062 8.168-6.123 0-2.954-2.58-5.908-7.899-5.908-.43 0-.806 0-1.236.054v-2.954c0-1.236-1.021-2.095-2.418-2.095h-1.773c-1.289 0-2.686.967-2.686 2.363h.053zm33.314 1.45c-1.021 0-2.902.484-3.708 2.847h7.147c-.484-2.524-2.365-2.847-3.439-2.847zm-9.188 5.371c0 4.458 4.083 8.11 9.618 8.11 5.397 0 7.081-1.709 7.663-2.3.078-.079.137-.139.181-.17.269-.376.323-.752.323-1.128 0-1.665-1.988-2.149-2.418-2.149-.728 0-1.166.227-1.683.494-.741.383-1.644.849-3.798.849-1.988 0-3.761-.967-4.513-2.471h9.725c1.451 0 2.741-1.02 2.741-2.255-.054-6.499-4.621-8.433-8.275-8.433-5.373 0-9.564 3.384-9.564 9.453zm39.506-4.649a.2.2 0 0 1-.014-.077h.054c-.017 0-.043-.005-.081-.012-.083-.016-.217-.042-.403-.042h-2.256c-.215 2.256-.699 5.478-1.612 8.217h4.352v-7.68c0-.286-.024-.358-.04-.406zm-11.727 11.846c0 1.182 1.074 2.095 2.418 2.095 1.128 0 2.095-.591 2.471-1.45h8.651c.323.859 1.236 1.45 2.311 1.45 1.504 0 2.74-1.074 2.74-2.363v-1.451c0-1.02-.645-1.718-1.666-1.987v-8.056c0-1.826-.967-4.619-5.373-4.619h-6.448c-1.343 0-2.74.967-2.74 2.363 0 .913.645 1.665 1.612 1.934-.322 3.652-1.182 6.821-1.881 8.432-1.128.268-2.041 1.128-2.041 2.256v1.45l-.054-.054zm28.8-12.245c-2.463 0-4.5 1.653-4.514 4.482v-.025.054-.029c.015 2.618 2.319 4.272 4.782 4.272 2.741 0 4.514-1.88 4.514-4.565 0-2.149-1.988-4.189-4.782-4.189zm-9.618 4.78c0 4.565 4.137 8.432 9.618 8.432 5.588 0 9.94-3.921 9.94-9.238 0-4.404-4.03-8.379-9.618-8.379-5.319 0-9.94 3.653-9.94 9.185zm21.707-4.566c-1.074-.268-1.773-1.02-1.773-1.987l-.053-.107c0-1.397 1.343-2.363 2.686-2.363h1.827c.913 0 1.666.376 2.095 1.02l5.535 8.432 5.857-8.325c.483-.698 1.343-1.127 2.256-1.127 1.397 0 2.472.859 2.472 2.094v10.634c.967.269 1.666 1.075 1.666 1.988 0 1.396-1.344 2.363-2.687 2.363h-1.666c-1.397 0-2.418-.859-2.418-2.095v-5.747l-3.385 5.318c-.268.376-.913 1.127-2.31 1.127-.914 0-1.666-.322-2.096-1.02l-2.901-4.619v5.102c0 1.236-1.182 2.31-2.687 2.31-1.343 0-2.418-.913-2.418-2.095v-10.903zm32.347 8.433c-.323.107-.753.107-1.29.107-2.257 0-2.794-1.235-2.794-1.719 0-.483.376-1.45 2.848-1.503h1.236V283.205zm-5.051-7.949c-1.236 0-2.418-.86-2.418-2.095v-.054c0-2.524 4.406-3.007 6.179-3.007 3.6 0 6.394 2.202 6.394 5.532v7.411l.537.323c.699.376 1.129 1.074 1.129 1.772 0 1.397-1.343 2.363-2.687 2.363-.43 0-.859-.107-1.289-.322l-.323-.161c-1.074.483-2.418.752-4.083.752-5.964 0-7.63-3.491-7.63-5.854 0-2.901 3.116-5.532 8.274-5.532h.968v-.43l-.014-.118c-.044-.436-.129-1.278-1.545-1.278-1.285 0-1.821.226-2.282.421-.349.147-.655.277-1.21.277z" fill="#2B2A29"/></svg>