<svg width="52" height="52" viewBox="0 0 52 52" fill="none" xmlns="http://www.w3.org/2000/svg">
<path fill-rule="evenodd" clip-rule="evenodd" d="M27.95 46.8C38.3605 46.8 46.8 38.3605 46.8 27.95C46.8 17.5394 38.3605 9.09998 27.95 9.09998C17.5394 9.09998 9.09998 17.5394 9.09998 27.95C9.09998 38.3605 17.5394 46.8 27.95 46.8Z" fill="#2B2A29"/>
<path fill-rule="evenodd" clip-rule="evenodd" d="M0 25.9797C0 11.6317 11.6322 0 25.9797 0C40.3283 0 51.9593 11.6317 51.9593 25.9797C51.9593 40.3276 40.3287 51.9593 25.9797 51.9593C11.6322 51.9593 0 40.3276 0 25.9797ZM13 26.0999L22.1769 35.1L39 18.5999L35.9413 15.6L22.1769 29.1002L16.0587 23.1001L13 26.0999Z" fill="#FECC00"/>
</svg>
