<svg width="16" height="11" viewBox="0 0 16 11" fill="none" xmlns="http://www.w3.org/2000/svg"><path fill-rule="evenodd" clip-rule="evenodd" d="M7.002 7.487a3.492 3.492 0 0 0-4.04-3.448c.149-.202.314-.395.496-.577a4.96 4.96 0 0 1 3.528-1.46V.008A6.983 6.983 0 0 0 0 6.988l.016.499a3.492 3.492 0 0 0 3.493 3.49 3.492 3.492 0 0 0 3.493-3.49zm8.982 0a3.492 3.492 0 0 0-4.04-3.448c.15-.202.315-.395.496-.577a4.96 4.96 0 0 1 3.529-1.46V.008a6.983 6.983 0 0 0-6.987 6.98l.016.499a3.492 3.492 0 0 0 3.493 3.49 3.492 3.492 0 0 0 3.493-3.49z" fill="#FECC00"/></svg>