<svg width="52" height="52" viewBox="0 0 52 52" fill="none" xmlns="http://www.w3.org/2000/svg"><path fill-rule="evenodd" clip-rule="evenodd" d="M27.95 46.8c10.41 0 18.85-8.44 18.85-18.85 0-10.41-8.44-18.85-18.85-18.85C17.54 9.1 9.1 17.54 9.1 27.95c0 10.41 8.44 18.85 18.85 18.85z" fill="#2B2A29"/><path fill-rule="evenodd" clip-rule="evenodd" d="M0 25.98C0 11.632 11.632 0 25.98 0s25.98 11.632 25.98 25.98-11.631 25.98-25.98 25.98C11.632 51.96 0 40.327 0 25.98zm13 .12l9.177 9L39 18.6l-3.059-3-13.764 13.5-6.118-6-3.059 3z" fill="#FECC00"/></svg>