<svg width="52" height="52" viewBox="0 0 52 52" fill="none" xmlns="http://www.w3.org/2000/svg"><g opacity=".8"><path class="social-circle" d="M50.267 26c0 13.402-10.865 24.267-24.267 24.267S1.733 39.402 1.733 26 12.598 1.733 26 1.733 50.267 12.598 50.267 26z" fill="#2B2A29" fill-opacity=".2" stroke="#fff" stroke-width="3.467"/><path opacity=".01" fill="#D8D8D8" stroke="#979797" stroke-width=".867" d="M9.1 9.1h33.8v33.8H9.1z"/><path class="social-icon" d="M31.448 16.47l-2.65-.003c-2.977 0-4.9 1.825-4.9 4.65v2.143h-2.665c-.23 0-.417.173-.417.386v3.106c0 .213.187.386.417.386h2.664v7.838c0 .212.187.385.417.385h3.476c.23 0 .417-.173.417-.385v-7.838h3.115c.23 0 .416-.173.416-.386l.002-3.106c0-.102-.044-.2-.122-.273a.435.435 0 0 0-.295-.113h-3.116v-1.817c0-.873.225-1.317 1.455-1.317h1.786c.23 0 .416-.173.416-.386v-2.884c0-.213-.186-.385-.416-.385z" fill="#F0F0F0"/></g></svg>