<svg width="52" height="52" viewBox="0 0 52 52" fill="none" xmlns="http://www.w3.org/2000/svg"><g opacity=".8"><path class="social-circle" d="M50.267 26c0 13.402-10.865 24.267-24.267 24.267S1.733 39.402 1.733 26 12.598 1.733 26 1.733 50.267 12.598 50.267 26z" fill="#2B2A29" fill-opacity=".2" stroke="#fff" stroke-width="3.467"/><path class="social-icon" fill-rule="evenodd" clip-rule="evenodd" d="M16.987 14.733h18.026a2.26 2.26 0 0 1 2.254 2.254v18.026a2.26 2.26 0 0 1-2.254 2.254H16.987a2.26 2.26 0 0 1-2.254-2.254V16.987a2.26 2.26 0 0 1 2.254-2.254zM30.507 26A4.52 4.52 0 0 0 26 21.493 4.52 4.52 0 0 0 21.493 26 4.52 4.52 0 0 0 26 30.507 4.52 4.52 0 0 0 30.507 26zM17.55 35.013c-.338 0-.563-.225-.563-.563v-9.577h2.366c-.113.338-.113.789-.113 1.127 0 3.718 3.042 6.76 6.76 6.76s6.76-3.042 6.76-6.76c0-.338 0-.789-.113-1.127h2.366v9.577c0 .338-.225.563-.563.563h-16.9zm16.9-14.646c.338 0 .563-.226.563-.564V17.55c0-.338-.225-.563-.563-.563h-2.253c-.338 0-.564.225-.564.563v2.253c0 .338.226.564.564.564h2.253z" fill="#fff"/></g></svg>