<svg width="52" height="52" viewBox="0 0 52 52" fill="none" xmlns="http://www.w3.org/2000/svg"><g opacity=".8"><path class="social-circle" d="M50.267 26c0 13.402-10.865 24.267-24.267 24.267S1.733 39.402 1.733 26 12.598 1.733 26 1.733 50.267 12.598 50.267 26z" fill="#2B2A29" fill-opacity=".2" stroke="#fff" stroke-width="3.467"/><path class="social-icon" fill-rule="evenodd" clip-rule="evenodd" d="M19.457 27.989l-5.192-1.963c-.528-.2-.532-.954-.006-1.16l21.308-8.326c.452-.177.918.224.82.704l-3.824 18.632a.61.61 0 0 1-.959.375l-5.22-3.84a.855.855 0 0 0-1.053.03l-2.894 2.39a.608.608 0 0 1-.97-.296l-2.01-6.546zm11.833-7.376l-10.147 6.33a1.041 1.041 0 0 0-.447 1.165l1.097 3.905c.078.277.475.248.513-.037l.285-2.142c.054-.403.243-.774.538-1.052l8.374-7.885c.157-.147-.03-.397-.213-.284z" fill="#fff"/></g></svg>