<svg width="52" height="52" viewBox="0 0 52 52" fill="none" xmlns="http://www.w3.org/2000/svg"><g opacity=".8"><path class="social-circle" d="M50.267 26c0 13.402-10.865 24.267-24.267 24.267S1.733 39.402 1.733 26 12.598 1.733 26 1.733 50.267 12.598 50.267 26z" fill="#2B2A29" fill-opacity=".2" stroke="#fff" stroke-width="3.467"/><path class="social-icon" d="M34.589 24.854c.332-.445.596-.802.79-1.072 1.404-1.932 2.012-3.166 1.826-3.704l-.073-.126c-.049-.076-.175-.145-.378-.208-.202-.063-.462-.073-.778-.032l-3.505.026a.968.968 0 0 0-.401.044l-.061.031-.049.038a.545.545 0 0 0-.133.132.863.863 0 0 0-.122.221 20.897 20.897 0 0 1-1.302 2.835c-.3.521-.576.973-.827 1.355-.252.382-.463.664-.633.844-.17.18-.325.326-.463.435-.138.11-.243.155-.316.138a5.7 5.7 0 0 1-.207-.05.822.822 0 0 1-.274-.309 1.422 1.422 0 0 1-.14-.491 5.487 5.487 0 0 1-.042-.51 10.39 10.39 0 0 1 .006-.606c.008-.26.012-.436.012-.529 0-.319.007-.665.019-1.04l.03-.888c.008-.218.012-.45.012-.693 0-.243-.014-.435-.043-.573a2.057 2.057 0 0 0-.127-.404.67.67 0 0 0-.25-.302 1.38 1.38 0 0 0-.407-.17c-.43-.101-.978-.155-1.643-.164-1.51-.016-2.479.085-2.908.303-.17.092-.325.218-.463.378-.146.185-.166.286-.06.302.486.076.83.257 1.034.542l.073.151c.056.11.113.303.17.58.057.277.093.584.11.92.04.613.04 1.138 0 1.575-.04.437-.08.777-.116 1.02a2.1 2.1 0 0 1-.164.592 2.518 2.518 0 0 1-.146.278.217.217 0 0 1-.06.063.886.886 0 0 1-.33.063c-.113 0-.25-.059-.413-.177a2.919 2.919 0 0 1-.505-.485 6.462 6.462 0 0 1-.59-.863c-.22-.37-.447-.806-.682-1.31l-.194-.366a31.37 31.37 0 0 1-.5-1.027c-.21-.449-.397-.884-.559-1.304a.832.832 0 0 0-.292-.403l-.06-.038a.817.817 0 0 0-.195-.107 1.275 1.275 0 0 0-.28-.082l-3.335.025c-.34 0-.571.08-.693.24l-.049.075a.418.418 0 0 0-.036.202c0 .093.024.206.073.34a42.256 42.256 0 0 0 1.588 3.427c.572 1.101 1.069 1.988 1.49 2.66.422.672.852 1.306 1.29 1.902.439.597.728.979.87 1.147.142.168.254.294.335.378l.304.303c.195.201.48.443.858.724.377.282.795.559 1.253.832a6.66 6.66 0 0 0 1.6.668c.609.172 1.2.241 1.777.208h1.4c.283-.026.498-.118.644-.278l.049-.063a.871.871 0 0 0 .09-.232 1.33 1.33 0 0 0 .044-.347 4.289 4.289 0 0 1 .079-.976c.06-.29.13-.509.207-.656a1.61 1.61 0 0 1 .468-.554.965.965 0 0 1 .098-.044c.194-.068.423-.002.687.195.264.198.511.44.742.73.231.29.51.616.834.977.324.361.608.63.852.807l.243.151c.162.1.373.193.633.278.26.083.487.104.681.062l3.115-.05c.308 0 .548-.052.718-.158.17-.104.272-.22.304-.346.032-.126.035-.268.007-.428a1.619 1.619 0 0 0-.086-.334 1.737 1.737 0 0 0-.079-.157c-.406-.756-1.18-1.685-2.324-2.785l-.024-.026-.013-.012-.012-.012h-.012c-.52-.513-.848-.857-.986-1.034-.25-.336-.308-.676-.17-1.02.097-.262.462-.812 1.095-1.652z" fill="#fff"/></g></svg>