<svg width="52" height="52" viewBox="0 0 52 52" fill="none" xmlns="http://www.w3.org/2000/svg">
<g opacity="0.8">
<path class="social-circle" d="M50.2667 26C50.2667 39.4021 39.4021 50.2667 26 50.2667C12.5979 50.2667 1.73333 39.4021 1.73333 26C1.73333 12.5979 12.5979 1.73333 26 1.73333C39.4021 1.73333 50.2667 12.5979 50.2667 26Z" fill="#2B2A29" fill-opacity="0.2" stroke="white" stroke-width="3.46667"/>
<rect opacity="0.01" x="9.10008" y="9.09999" width="33.8" height="33.8" fill="#D8D8D8" stroke="#979797" stroke-width="0.866667"/>
<path class="social-icon" d="M31.4479 16.4706L28.7981 16.4666C25.8211 16.4666 23.8973 18.2917 23.8973 21.1166V23.2605H21.2331C21.0028 23.2605 20.8164 23.4331 20.8164 23.6459V26.7522C20.8164 26.9651 21.0031 27.1375 21.2331 27.1375H23.8973V34.9757C23.8973 35.1885 24.0837 35.3609 24.314 35.3609H27.79C28.0203 35.3609 28.2067 35.1883 28.2067 34.9757V27.1375H31.3218C31.5521 27.1375 31.7385 26.9651 31.7385 26.7522L31.7398 23.6459C31.7398 23.5437 31.6958 23.4458 31.6177 23.3735C31.5397 23.3012 31.4334 23.2605 31.3229 23.2605H28.2067V21.443C28.2067 20.5695 28.4318 20.1261 29.6624 20.1261L31.4475 20.1255C31.6775 20.1255 31.8639 19.9529 31.8639 19.7402V16.8558C31.8639 16.6434 31.6777 16.471 31.4479 16.4706Z" fill="#F0F0F0"/>
</g>
</svg>
