<svg width="52" height="52" viewBox="0 0 52 52" fill="none" xmlns="http://www.w3.org/2000/svg">
<g opacity="0.8">
<path class="social-circle" d="M50.2667 26C50.2667 39.4021 39.4021 50.2667 26 50.2667C12.5979 50.2667 1.73333 39.4021 1.73333 26C1.73333 12.5979 12.5979 1.73333 26 1.73333C39.4021 1.73333 50.2667 12.5979 50.2667 26Z" fill="#2B2A29" fill-opacity="0.2" stroke="white" stroke-width="3.46667"/>
<path class="social-icon" fill-rule="evenodd" clip-rule="evenodd" d="M16.9867 14.7333H35.0134C36.2527 14.7333 37.2667 15.7473 37.2667 16.9867V35.0133C37.2667 36.2527 36.2527 37.2667 35.0134 37.2667H16.9867C15.7474 37.2667 14.7334 36.2527 14.7334 35.0133V16.9867C14.7334 15.7473 15.7474 14.7333 16.9867 14.7333ZM30.5067 26C30.5067 23.5213 28.4787 21.4933 26.0001 21.4933C23.5214 21.4933 21.4934 23.5213 21.4934 26C21.4934 28.4787 23.5214 30.5067 26.0001 30.5067C28.4787 30.5067 30.5067 28.4787 30.5067 26ZM17.5501 35.0133C17.2121 35.0133 16.9867 34.788 16.9867 34.45V24.8733H19.3527C19.2401 25.2113 19.2401 25.662 19.2401 26C19.2401 29.718 22.2821 32.76 26.0001 32.76C29.7181 32.76 32.7601 29.718 32.7601 26C32.7601 25.662 32.7601 25.2113 32.6474 24.8733H35.0134V34.45C35.0134 34.788 34.7881 35.0133 34.4501 35.0133H17.5501ZM34.4501 20.3667C34.7881 20.3667 35.0134 20.1413 35.0134 19.8033V17.55C35.0134 17.212 34.7881 16.9867 34.4501 16.9867H32.1967C31.8587 16.9867 31.6334 17.212 31.6334 17.55V19.8033C31.6334 20.1413 31.8587 20.3667 32.1967 20.3667H34.4501Z" fill="white"/>
</g>
</svg>
