<svg width="52" height="52" viewBox="0 0 52 52" fill="none" xmlns="http://www.w3.org/2000/svg">
<g opacity="0.8">
<path class="social-circle" d="M50.2667 26C50.2667 39.4021 39.4021 50.2667 26 50.2667C12.5979 50.2667 1.73333 39.4021 1.73333 26C1.73333 12.5979 12.5979 1.73333 26 1.73333C39.4021 1.73333 50.2667 12.5979 50.2667 26Z" fill="#2B2A29" fill-opacity="0.2" stroke="white" stroke-width="3.46667"/>
<path class="social-icon" fill-rule="evenodd" clip-rule="evenodd" d="M19.4568 27.9888L14.2647 26.0259C13.7373 25.8258 13.7328 25.0716 14.2586 24.8662L35.5673 16.5398C36.019 16.3628 36.4851 16.7637 36.3867 17.2442L32.5627 35.8759C32.4726 36.3158 31.9634 36.5153 31.604 36.2507L26.384 32.4118C26.0669 32.1787 25.6348 32.1912 25.3314 32.4416L22.4372 34.8315C22.1013 35.1097 21.5951 34.9547 21.4665 34.5354L19.4568 27.9888ZM31.29 20.6134L21.1426 26.9439C20.7537 27.1871 20.5706 27.6628 20.6962 28.1082L21.7934 32.0131C21.8713 32.2898 22.2678 32.2614 22.3056 31.9755L22.5908 29.8341C22.6446 29.431 22.8345 29.0595 23.1289 28.782L31.5034 20.8969C31.66 20.7498 31.4724 20.5 31.29 20.6134Z" fill="white"/>
</g>
</svg>
