<svg width="52" height="52" viewBox="0 0 52 52" fill="none" xmlns="http://www.w3.org/2000/svg">
<g opacity="0.8">
<path class="social-circle" d="M50.2667 26C50.2667 39.4021 39.4021 50.2667 26 50.2667C12.5979 50.2667 1.73333 39.4021 1.73333 26C1.73333 12.5979 12.5979 1.73333 26 1.73333C39.4021 1.73333 50.2667 12.5979 50.2667 26Z" fill="#2B2A29" fill-opacity="0.2" stroke="white" stroke-width="3.46667"/>
<path class="social-icon" d="M34.5886 24.8537C34.9209 24.4088 35.1848 24.0518 35.3796 23.7824C36.7829 21.8503 37.3912 20.616 37.2048 20.0779L37.1317 19.9519C37.0831 19.8762 36.9571 19.8067 36.7544 19.7437C36.5516 19.6809 36.292 19.6708 35.9758 19.7123L32.4714 19.7379C32.3903 19.7296 32.3091 19.7315 32.228 19.7437C32.1468 19.7565 32.0942 19.7693 32.0697 19.7816C32.0452 19.7944 32.0251 19.8047 32.009 19.813L31.9604 19.8509C31.9198 19.8759 31.8753 19.9201 31.8266 19.9833C31.7779 20.0465 31.7371 20.1197 31.7049 20.204C31.3236 21.2204 30.8897 22.1656 30.4029 23.0393C30.1027 23.5602 29.8268 24.012 29.5756 24.3938C29.3241 24.7763 29.1132 25.0577 28.9428 25.2379C28.7725 25.4185 28.6182 25.5637 28.4805 25.6726C28.3423 25.7822 28.237 25.8281 28.1642 25.8114C28.0911 25.7948 28.0221 25.7781 27.9573 25.7608C27.8437 25.6854 27.7523 25.5827 27.6835 25.4522C27.6145 25.3223 27.568 25.1584 27.5435 24.9608C27.5193 24.7636 27.5049 24.5933 27.5011 24.4503C27.4968 24.3076 27.4989 24.1061 27.5073 23.8454C27.5154 23.5849 27.5193 23.4088 27.5193 23.3162C27.5193 22.9973 27.5255 22.6506 27.5377 22.2767C27.5498 21.903 27.56 21.6067 27.568 21.3882C27.5761 21.1701 27.5801 20.9388 27.5801 20.6951C27.5801 20.4519 27.5659 20.2604 27.5373 20.1216C27.5089 19.9833 27.4661 19.849 27.4097 19.7185C27.3528 19.5885 27.2697 19.4875 27.1601 19.4163C27.0505 19.3448 26.9148 19.2883 26.7525 19.246C26.3223 19.145 25.7748 19.091 25.1098 19.0821C23.6009 19.066 22.6315 19.1667 22.2016 19.3848C22.0312 19.4775 21.877 19.6033 21.7392 19.763C21.593 19.948 21.5729 20.049 21.6785 20.0651C22.1653 20.1408 22.5098 20.3217 22.7126 20.6072L22.7857 20.7582C22.8424 20.8679 22.8991 21.061 22.9561 21.3381C23.0128 21.6152 23.0493 21.9219 23.0657 22.258C23.1063 22.8712 23.1063 23.396 23.0657 23.8331C23.0251 24.2702 22.9867 24.6103 22.9502 24.8535C22.9136 25.0972 22.8588 25.2945 22.786 25.4455C22.7129 25.5972 22.6643 25.6895 22.6399 25.7232C22.6154 25.7566 22.5953 25.7777 22.5791 25.7861C22.4736 25.8278 22.3642 25.849 22.2506 25.849C22.1369 25.849 21.9991 25.79 21.8368 25.6723C21.6745 25.5552 21.506 25.3932 21.3319 25.1873C21.1573 24.9817 20.9609 24.6937 20.7416 24.3239C20.5226 23.9547 20.2953 23.5176 20.0602 23.0137L19.8657 22.6481C19.744 22.4132 19.5776 22.0707 19.3667 21.6213C19.1558 21.172 18.969 20.7374 18.807 20.317C18.742 20.1408 18.6447 20.0064 18.515 19.9138L18.4543 19.876C18.4137 19.8425 18.3487 19.8067 18.2595 19.7691C18.17 19.7312 18.0771 19.704 17.9795 19.687L14.6454 19.7121C14.3048 19.7121 14.0737 19.7922 13.952 19.9519L13.9034 20.0273C13.8788 20.0696 13.8667 20.1369 13.8667 20.229C13.8667 20.3217 13.8912 20.4349 13.9398 20.5691C14.4266 21.7538 14.956 22.8963 15.5277 23.9964C16.0998 25.0972 16.5966 25.9837 17.0184 26.6556C17.4402 27.3281 17.8701 27.962 18.3083 28.5585C18.7465 29.155 19.0364 29.537 19.1783 29.7048C19.3201 29.8732 19.4316 29.9993 19.5128 30.083L19.817 30.3857C20.0115 30.5872 20.2977 30.8286 20.6749 31.1102C21.0521 31.3918 21.4697 31.6689 21.9283 31.9416C22.3865 32.2149 22.92 32.4372 23.5283 32.6097C24.1366 32.7822 24.7288 32.8514 25.3048 32.8175H26.7042C26.9882 32.7925 27.203 32.7004 27.349 32.5404L27.3976 32.4775C27.4298 32.4274 27.4605 32.3495 27.4889 32.2446C27.5172 32.1397 27.5317 32.0239 27.5317 31.8982C27.5233 31.5371 27.55 31.2109 27.6107 30.9216C27.6714 30.6316 27.7404 30.4135 27.8176 30.266C27.8947 30.1194 27.9817 29.9953 28.0792 29.8943C28.1766 29.7933 28.2453 29.7329 28.2861 29.7117C28.3267 29.6911 28.3593 29.6764 28.3835 29.6675C28.578 29.6004 28.8071 29.6656 29.071 29.8628C29.3346 30.0607 29.5821 30.3038 29.8134 30.5938C30.0444 30.8837 30.3222 31.2089 30.6468 31.5704C30.9711 31.9315 31.2551 32.2003 31.4985 32.3767L31.742 32.5284C31.9042 32.6288 32.1149 32.7212 32.3747 32.8055C32.6342 32.8893 32.8616 32.9104 33.0561 32.8684L36.1712 32.8177C36.4794 32.8177 36.7188 32.7655 36.8891 32.6603C37.0594 32.5559 37.1608 32.4396 37.1933 32.3139C37.2255 32.1878 37.2277 32.0457 37.1995 31.8856C37.171 31.7262 37.1425 31.6149 37.1144 31.552C37.0859 31.4891 37.0595 31.4363 37.035 31.3945C36.6294 30.6385 35.8547 29.71 34.7109 28.6096L34.6865 28.5845L34.6744 28.5718L34.6623 28.5595H34.6501C34.1307 28.047 33.8024 27.7025 33.6645 27.5258C33.4131 27.1903 33.3561 26.85 33.4943 26.5055C33.591 26.2443 33.9558 25.694 34.5886 24.8537Z" fill="white"/>
</g>
</svg>
