<svg width="382" height="216" viewBox="0 0 382 216" fill="none" xmlns="http://www.w3.org/2000/svg"><path fill-rule="evenodd" clip-rule="evenodd" d="M6 2h370v196H17.562L6 206V2z" fill="#fff" filter="url(#a)"/><mask id="b" maskUnits="userSpaceOnUse" x="6" y="2" width="370" height="204"><path fill-rule="evenodd" clip-rule="evenodd" d="M6 2h370v196H17.562L6 206V2z" fill="#fff"/></mask><g opacity=".8"><path d="M48.754 113.11V124h-1.656v-12.402h8.28v1.512h-6.624zm14.718 7.74c0 .516-.102.978-.306 1.386a2.87 2.87 0 0 1-.81 1.008 3.546 3.546 0 0 1-1.17.63 4.582 4.582 0 0 1-1.422.216c-.516 0-.995-.072-1.44-.216a3.546 3.546 0 0 1-1.17-.63 3.061 3.061 0 0 1-.774-1.008 3.217 3.217 0 0 1-.288-1.386v-2.592c0-.516.096-.972.288-1.368a3.22 3.22 0 0 1 .792-1.026 3.377 3.377 0 0 1 1.17-.648 4.418 4.418 0 0 1 1.44-.234c.54 0 1.033.078 1.477.234.456.144.846.36 1.17.648.335.276.593.618.773 1.026.18.396.27.852.27 1.368v2.592zm-1.53-2.322c0-.384-.066-.708-.197-.972a1.822 1.822 0 0 0-.523-.666 1.876 1.876 0 0 0-.684-.36 2.68 2.68 0 0 0-.737-.108 2.74 2.74 0 0 0-.757.108 2.056 2.056 0 0 0-.701.36c-.205.168-.373.39-.505.666-.132.264-.197.588-.197.972v2.016c0 .384.053.714.162.99.12.264.276.48.468.648.191.168.42.288.684.36.264.072.546.108.846.108.24 0 .485-.036.737-.108.253-.072.48-.192.684-.36a1.86 1.86 0 0 0 .523-.648c.132-.276.198-.606.198-.99v-2.016zm4.624-3.438l.18.936c.708-.42 1.272-.696 1.692-.828.432-.132.81-.198 1.134-.198.876 0 1.59.258 2.142.774.564.516.846 1.32.846 2.412v2.736c0 1.02-.282 1.806-.846 2.358-.552.552-1.314.828-2.286.828-.324 0-.702-.036-1.134-.108-.432-.06-.948-.21-1.548-.45v4.014h-1.53V115.09h1.35zm.18 7.002c.552.228 1.02.378 1.404.45.384.072.762.108 1.134.108.24 0 .462-.024.666-.072.216-.06.402-.156.558-.288.156-.144.276-.33.36-.558.096-.24.144-.534.144-.882v-2.556c0-.684-.144-1.152-.432-1.404-.288-.264-.672-.396-1.152-.396-.168 0-.366.03-.594.09a7.12 7.12 0 0 0-.72.234c-.24.096-.48.21-.72.342a5.43 5.43 0 0 0-.648.378v4.554zm14.867-1.242c0 .516-.102.978-.306 1.386a2.87 2.87 0 0 1-.81 1.008 3.546 3.546 0 0 1-1.17.63 4.582 4.582 0 0 1-1.422.216c-.516 0-.996-.072-1.44-.216a3.546 3.546 0 0 1-1.17-.63 3.061 3.061 0 0 1-.774-1.008 3.217 3.217 0 0 1-.288-1.386v-2.592c0-.516.096-.972.288-1.368a3.22 3.22 0 0 1 .792-1.026 3.377 3.377 0 0 1 1.17-.648 4.418 4.418 0 0 1 1.44-.234c.54 0 1.032.078 1.476.234.456.144.846.36 1.17.648.336.276.594.618.774 1.026.18.396.27.852.27 1.368v2.592zm-1.53-2.322c0-.384-.066-.708-.198-.972a1.822 1.822 0 0 0-.522-.666 1.876 1.876 0 0 0-.684-.36 2.68 2.68 0 0 0-.738-.108 2.74 2.74 0 0 0-.756.108 2.056 2.056 0 0 0-.702.36c-.204.168-.372.39-.504.666-.132.264-.198.588-.198.972v2.016c0 .384.054.714.162.99.12.264.276.48.468.648.192.168.42.288.684.36.264.072.546.108.846.108.24 0 .486-.036.738-.108.252-.072.48-.192.684-.36a1.86 1.86 0 0 0 .522-.648c.132-.276.198-.606.198-.99v-2.016zm6.154-2.07l-.108 2.358c-.048.936-.126 1.71-.234 2.322-.096.6-.276 1.104-.54 1.512h4.428v-6.192h-3.546zm-2.916 6.21c.216-.144.402-.312.558-.504a2.86 2.86 0 0 0 .396-.738c.108-.3.192-.654.252-1.062.06-.42.108-.918.144-1.494l.216-3.78h6.444v7.56l.738.018v3.618h-1.458V124h-6.444v2.286h-1.458v-3.582l.612-.036zm19.27-9.54V124h-1.674v-10.872h-3.582v-1.53h8.82v1.53h-3.564zm10.34 10.008c-.708.396-1.29.654-1.746.774a5.148 5.148 0 0 1-1.206.162c-.864 0-1.554-.24-2.07-.72-.516-.48-.774-1.134-.774-1.962 0-.492.108-.906.324-1.242.228-.336.504-.606.828-.81.336-.216.69-.366 1.062-.45a4.285 4.285 0 0 1 1.026-.144h2.61v-.684c0-.624-.174-1.056-.522-1.296-.348-.252-.846-.378-1.494-.378-.312 0-.696.048-1.152.144-.444.084-.894.312-1.35.684l-.756-1.17c.576-.444 1.158-.732 1.746-.864a7.509 7.509 0 0 1 1.638-.198c1.164 0 2.022.258 2.574.774.564.504.846 1.284.846 2.34V124h-1.35l-.18-.828-.054-.036zm.054-3.114h-2.358c-.192 0-.402.018-.63.054-.216.024-.42.084-.612.18a1.144 1.144 0 0 0-.486.414c-.12.18-.18.42-.18.72 0 .432.144.756.432.972.3.216.678.324 1.134.324.228 0 .462-.03.702-.09.252-.072.492-.156.72-.252a9.02 9.02 0 0 0 .684-.306c.216-.12.414-.228.594-.324v-1.692zm10.712-1.656l-.972 1.836-1.422 2.52h-1.062l-1.17-2.106-1.116-2.124h-.072V124h-1.566v-8.91h1.44l1.8 3.384 1.242 2.412 1.278-2.394 1.872-3.402h1.404V124h-1.566v-5.634h-.09zm5.192-2.07a2.24 2.24 0 0 1 .54-.396c.204-.108.408-.192.612-.252.204-.072.396-.12.576-.144.192-.024.354-.036.486-.036 1.128 0 1.98.288 2.556.864.588.576.882 1.38.882 2.412v2.016c0 .516-.102.984-.306 1.404a2.994 2.994 0 0 1-.81 1.044c-.336.288-.726.51-1.17.666a4.582 4.582 0 0 1-1.422.216c-1.152 0-2.052-.294-2.7-.882-.648-.588-.972-1.404-.972-2.448v-2.556c0-.516.024-1.038.072-1.566.06-.54.168-1.05.324-1.53.156-.492.378-.948.666-1.368.288-.42.666-.774 1.134-1.062.384-.24.804-.45 1.26-.63a311.435 311.435 0 0 0 1.674-.666l.324-.144c.108-.048.222-.102.342-.162.132-.06.294-.132.486-.216l.558 1.296c-.36.156-.648.282-.864.378l-.558.216c-.144.06-.276.114-.396.162-.12.036-.258.09-.414.162-.504.216-.924.414-1.26.594-.336.18-.618.384-.846.612a2.297 2.297 0 0 0-.522.81c-.12.3-.216.678-.288 1.134l.036.072zm4.122 2.718c0-.78-.192-1.326-.576-1.638-.384-.312-.906-.468-1.566-.468-.252 0-.504.042-.756.126a2.156 2.156 0 0 0-.702.396c-.204.168-.372.39-.504.666s-.198.606-.198.99v1.458c0 .384.054.714.162.99.12.264.276.48.468.648.192.168.42.288.684.36.264.072.546.108.846.108.276 0 .54-.036.792-.108.264-.072.492-.192.684-.36.204-.168.366-.384.486-.648.12-.276.18-.606.18-.99v-1.53zm10.635 1.836c0 .516-.102.978-.306 1.386a2.87 2.87 0 0 1-.81 1.008 3.546 3.546 0 0 1-1.17.63 4.582 4.582 0 0 1-1.422.216c-.516 0-.996-.072-1.44-.216a3.546 3.546 0 0 1-1.17-.63 3.061 3.061 0 0 1-.774-1.008 3.217 3.217 0 0 1-.288-1.386v-2.592c0-.516.096-.972.288-1.368a3.22 3.22 0 0 1 .792-1.026 3.377 3.377 0 0 1 1.17-.648 4.418 4.418 0 0 1 1.44-.234c.54 0 1.032.078 1.476.234.456.144.846.36 1.17.648.336.276.594.618.774 1.026.18.396.27.852.27 1.368v2.592zm-1.53-2.322c0-.384-.066-.708-.198-.972a1.822 1.822 0 0 0-.522-.666 1.876 1.876 0 0 0-.684-.36 2.68 2.68 0 0 0-.738-.108 2.74 2.74 0 0 0-.756.108 2.056 2.056 0 0 0-.702.36c-.204.168-.372.39-.504.666-.132.264-.198.588-.198.972v2.016c0 .384.054.714.162.99.12.264.276.48.468.648.192.168.42.288.684.36.264.072.546.108.846.108.24 0 .486-.036.738-.108.252-.072.48-.192.684-.36a1.86 1.86 0 0 0 .522-.648c.132-.276.198-.606.198-.99v-2.016zm10.33 2.772a2.782 2.782 0 0 1-.72 1.854 2.518 2.518 0 0 1-.882.612c-.348.156-.756.234-1.224.234h-4.338v-8.91h4.302c.468 0 .87.066 1.206.198.336.132.612.312.828.54.228.228.396.492.504.792.108.288.162.594.162.918 0 .324-.084.654-.252.99-.168.336-.438.606-.81.81.444.204.756.498.936.882.192.372.288.732.288 1.08zm-1.566 0c0-.396-.144-.702-.432-.918a1.43 1.43 0 0 0-.936-.342h-2.664v2.592h2.502c.54 0 .93-.114 1.17-.342.24-.24.36-.57.36-.99zm-.144-3.744c0-.384-.144-.66-.432-.828a1.764 1.764 0 0 0-.954-.27h-2.502v2.196h2.592c.396 0 .708-.09.936-.27.24-.192.36-.468.36-.828zm-99.192 15.572V144H49.87v-10.872h-3.582v-1.53h8.82v1.53h-3.564zm6.254 6.984v.594c0 .36.06.666.18.918.12.24.282.444.486.612.216.156.456.27.72.342.276.072.558.108.846.108.3 0 .648-.06 1.044-.18s.78-.354 1.152-.702l.972 1.062c-.456.468-.966.792-1.53.972a5.72 5.72 0 0 1-1.674.252c-.504 0-.984-.066-1.44-.198a3.938 3.938 0 0 1-1.206-.612 3.107 3.107 0 0 1-.81-1.026c-.192-.408-.288-.882-.288-1.422v-2.358c0-.528.09-1.008.27-1.44.18-.432.426-.798.738-1.098.324-.3.702-.528 1.134-.684.444-.168.93-.252 1.458-.252.528 0 1.014.078 1.458.234.444.156.822.378 1.134.666.324.288.57.642.738 1.062.18.408.27.87.27 1.386v1.764h-5.652zm4.086-1.602c0-.372-.054-.69-.162-.954a1.698 1.698 0 0 0-.45-.648 1.472 1.472 0 0 0-.648-.378 2.327 2.327 0 0 0-.774-.126c-.276 0-.534.042-.774.126-.24.084-.456.21-.648.378a1.698 1.698 0 0 0-.45.648 2.275 2.275 0 0 0-.162.9v.396h4.068v-.342zm5.785-2.052v2.412c0 .924-.072 1.692-.215 2.304-.144.612-.342 1.116-.594 1.512a3.175 3.175 0 0 1-.918.954c-.348.24-.732.444-1.152.612l-.63-1.242c.336-.156.63-.318.882-.486a1.88 1.88 0 0 0 .611-.684c.168-.3.288-.69.36-1.17.084-.48.126-1.11.126-1.89v-3.69h6.193V144h-1.548v-7.542h-3.115zm8.13 3.654v.594c0 .36.06.666.18.918.12.24.281.444.485.612.216.156.456.27.72.342.276.072.558.108.846.108.3 0 .648-.06 1.044-.18s.78-.354 1.152-.702l.972 1.062c-.456.468-.966.792-1.53.972a5.72 5.72 0 0 1-1.674.252c-.504 0-.984-.066-1.44-.198a3.938 3.938 0 0 1-1.206-.612 3.107 3.107 0 0 1-.81-1.026c-.192-.408-.288-.882-.288-1.422v-2.358c0-.528.09-1.008.27-1.44.18-.432.426-.798.738-1.098.324-.3.702-.528 1.134-.684.444-.168.93-.252 1.458-.252.528 0 1.014.078 1.458.234.444.156.822.378 1.134.666.324.288.57.642.738 1.062.18.408.27.87.27 1.386v1.764h-5.652zm4.085-1.602c0-.372-.054-.69-.162-.954a1.698 1.698 0 0 0-.45-.648 1.472 1.472 0 0 0-.648-.378 2.327 2.327 0 0 0-.774-.126c-.276 0-.534.042-.774.126-.24.084-.456.21-.648.378a1.698 1.698 0 0 0-.45.648 2.275 2.275 0 0 0-.162.9v.396h4.068v-.342zm7.135 9.072v-3.474c-.732-.036-1.356-.162-1.872-.378-.516-.228-.936-.516-1.26-.864a3.51 3.51 0 0 1-.72-1.224 4.694 4.694 0 0 1-.216-1.422v-1.116c0-.528.079-1.038.235-1.53.167-.492.42-.924.755-1.296a3.64 3.64 0 0 1 1.26-.918c.517-.228 1.123-.354 1.819-.378v-3.384h1.53v3.384c.684.024 1.278.144 1.782.36.516.204.942.486 1.278.846.335.348.588.762.755 1.242.169.468.253.966.253 1.494v1.296c0 .492-.084.966-.252 1.422-.168.444-.42.846-.757 1.206a3.993 3.993 0 0 1-1.277.864c-.504.228-1.098.36-1.782.396v3.474h-1.53zm0-11.196c-.444 0-.828.084-1.151.252a2.307 2.307 0 0 0-1.224 1.494 3.53 3.53 0 0 0-.145 1.008v.81c0 .348.037.684.109 1.008.072.312.203.594.395.846.192.24.45.444.775.612.323.156.737.252 1.241.288v-6.318zm1.53 6.318c.468 0 .864-.078 1.188-.234a2.26 2.26 0 0 0 .775-.63c.204-.252.347-.54.431-.864.085-.336.127-.678.127-1.026v-.81a3.53 3.53 0 0 0-.144-1.008 2.248 2.248 0 0 0-.433-.882 2.263 2.263 0 0 0-.791-.612c-.313-.168-.697-.252-1.153-.252v6.318zm13.138-1.854c0 .516-.102.978-.306 1.386a2.87 2.87 0 0 1-.81 1.008 3.544 3.544 0 0 1-1.17.63 4.582 4.582 0 0 1-1.422.216c-.516 0-.996-.072-1.44-.216a3.546 3.546 0 0 1-1.17-.63 3.061 3.061 0 0 1-.774-1.008 3.217 3.217 0 0 1-.288-1.386v-2.592c0-.516.096-.972.288-1.368a3.22 3.22 0 0 1 .792-1.026 3.377 3.377 0 0 1 1.17-.648 4.418 4.418 0 0 1 1.44-.234c.54 0 1.032.078 1.476.234.456.144.846.36 1.17.648.336.276.594.618.774 1.026.18.396.27.852.27 1.368v2.592zm-1.53-2.322c0-.384-.066-.708-.198-.972a1.822 1.822 0 0 0-.522-.666 1.876 1.876 0 0 0-.684-.36 2.68 2.68 0 0 0-.738-.108 2.74 2.74 0 0 0-.756.108 2.056 2.056 0 0 0-.702.36c-.204.168-.372.39-.504.666-.132.264-.198.588-.198.972v2.016c0 .384.054.714.162.99.12.264.276.48.468.648.192.168.42.288.684.36.264.072.546.108.846.108.24 0 .486-.036.738-.108.252-.072.48-.192.684-.36a1.86 1.86 0 0 0 .522-.648c.132-.276.198-.606.198-.99v-2.016zm9.088 5.472v-3.798h-4.248V144h-1.548v-8.91h1.548v3.708h4.248v-3.708h1.566V144h-1.566zm3.632-.99c0-.252.084-.486.252-.702.18-.216.438-.324.774-.324.348 0 .618.108.81.324.192.216.288.45.288.702 0 .3-.096.558-.288.774-.192.204-.462.306-.81.306-.336 0-.594-.102-.774-.306-.168-.204-.252-.462-.252-.774zm0-5.454c0-.252.084-.486.252-.702.18-.216.438-.324.774-.324.348 0 .618.108.81.324.192.216.288.45.288.702 0 .3-.096.558-.288.774-.192.204-.462.306-.81.306-.336 0-.594-.102-.774-.306-.168-.204-.252-.462-.252-.774zm8.446-2.79a3.057 3.057 0 0 1 1.116-2.412c.348-.288.75-.504 1.206-.648a4.58 4.58 0 0 1 1.458-.234c.78 0 1.44.126 1.98.378a5.39 5.39 0 0 1 1.422.882l-.9 1.26a4.052 4.052 0 0 0-1.17-.756 3.095 3.095 0 0 0-1.296-.27c-.228 0-.474.036-.738.108a2.253 2.253 0 0 0-.72.36 2.2 2.2 0 0 0-.558.666c-.144.264-.216.594-.216.99v2.034c.576-.372 1.104-.63 1.584-.774.492-.156.918-.234 1.278-.234.456 0 .864.078 1.224.234.372.156.684.378.936.666.264.276.462.612.594 1.008.144.384.216.81.216 1.278v1.476c0 .516-.102.978-.306 1.386-.204.408-.48.756-.828 1.044-.336.288-.732.51-1.188.666a4.523 4.523 0 0 1-1.404.216 4.704 4.704 0 0 1-1.458-.216 3.546 3.546 0 0 1-1.17-.63 2.959 2.959 0 0 1-.792-1.008 3.4 3.4 0 0 1-.27-1.386v-6.084zm5.832 4.68c0-.624-.156-1.08-.468-1.368-.3-.288-.678-.432-1.134-.432-.42 0-.846.09-1.278.27a8.91 8.91 0 0 0-1.368.756v1.836c0 .384.066.714.198.99.132.264.3.48.504.648.204.168.426.294.666.378.252.072.498.108.738.108.228 0 .468-.036.72-.108.264-.084.498-.21.702-.378a2.17 2.17 0 0 0 .504-.666c.144-.264.216-.588.216-.972v-1.062zm9.828 2.646V144h-1.584v-1.908h-5.4v-1.332a851.839 851.839 0 0 0 2.052-4.572c.696-1.536 1.386-3.066 2.07-4.59h1.656l-4.032 9.09h3.654v-3.708h1.584v3.708h1.062v1.404h-1.062zm2.484-2.232v-1.35h5.184v1.35h-5.184zm14.393 1.044c0 .504-.114.954-.342 1.35a3.17 3.17 0 0 1-.864 1.008c-.36.264-.768.468-1.224.612a4.351 4.351 0 0 1-1.35.216c-.468 0-.93-.072-1.386-.216a4.23 4.23 0 0 1-1.206-.612 3.504 3.504 0 0 1-.864-1.008 2.773 2.773 0 0 1-.324-1.35v-6.192c0-.504.108-.954.324-1.35.228-.408.522-.75.882-1.026.36-.288.762-.504 1.206-.648a4.521 4.521 0 0 1 1.368-.216c.456 0 .906.072 1.35.216.456.144.864.36 1.224.648.36.276.648.618.864 1.026.228.396.342.846.342 1.35v6.192zm-1.566-5.796c0-.396-.072-.732-.216-1.008a1.998 1.998 0 0 0-.54-.666 1.891 1.891 0 0 0-.72-.378 2.68 2.68 0 0 0-.738-.108c-.24 0-.492.036-.756.108a1.91 1.91 0 0 0-.702.378c-.216.168-.396.39-.54.666-.132.276-.198.612-.198 1.008v5.4c0 .396.066.732.198 1.008.144.264.324.486.54.666.216.168.45.288.702.36.264.072.516.108.756.108s.486-.036.738-.108c.264-.072.504-.192.72-.36.216-.18.396-.402.54-.666.144-.276.216-.612.216-1.008v-5.4zm10.566 5.796c0 .504-.114.954-.342 1.35a3.17 3.17 0 0 1-.864 1.008c-.36.264-.768.468-1.224.612a4.351 4.351 0 0 1-1.35.216c-.468 0-.93-.072-1.386-.216a4.23 4.23 0 0 1-1.206-.612 3.504 3.504 0 0 1-.864-1.008 2.773 2.773 0 0 1-.324-1.35v-6.192c0-.504.108-.954.324-1.35.228-.408.522-.75.882-1.026.36-.288.762-.504 1.206-.648a4.521 4.521 0 0 1 1.368-.216c.456 0 .906.072 1.35.216.456.144.864.36 1.224.648.36.276.648.618.864 1.026.228.396.342.846.342 1.35v6.192zm-1.566-5.796c0-.396-.072-.732-.216-1.008a1.998 1.998 0 0 0-.54-.666 1.891 1.891 0 0 0-.72-.378 2.68 2.68 0 0 0-.738-.108c-.24 0-.492.036-.756.108a1.91 1.91 0 0 0-.702.378c-.216.168-.396.39-.54.666-.132.276-.198.612-.198 1.008v5.4c0 .396.066.732.198 1.008.144.264.324.486.54.666.216.168.45.288.702.36.264.072.516.108.756.108s.486-.036.738-.108c.264-.072.504-.192.72-.36.216-.18.396-.402.54-.666.144-.276.216-.612.216-1.008v-5.4zm3.222 4.752v-1.35h5.184v1.35h-5.184zm13.565 2.232V144h-1.584v-1.908h-5.4v-1.332a851.839 851.839 0 0 0 2.052-4.572c.696-1.536 1.386-3.066 2.07-4.59h1.656l-4.032 9.09h3.654v-3.708h1.584v3.708h1.062v1.404h-1.062zm9.702-1.278c0 .504-.108.96-.324 1.368a3.153 3.153 0 0 1-.846 1.026c-.348.288-.756.51-1.224.666a4.99 4.99 0 0 1-1.476.216c-.78 0-1.452-.12-2.016-.36a5.76 5.76 0 0 1-1.422-.9l.9-1.242c.756.696 1.59 1.044 2.502 1.044.168 0 .384-.024.648-.072.264-.06.522-.162.774-.306.252-.156.468-.366.648-.63s.27-.606.27-1.026v-1.602c0-.6-.15-1.044-.45-1.332-.3-.288-.69-.432-1.17-.432a2.28 2.28 0 0 0-.648.108c-.24.072-.48.162-.72.27-.24.096-.468.21-.684.342-.204.12-.372.234-.504.342l-1.458-.576v-6.12h6.84v1.458h-5.238v3.528a5.697 5.697 0 0 1 1.368-.702c.456-.156.858-.234 1.206-.234.468 0 .888.078 1.26.234.372.144.684.36.936.648.264.276.468.612.612 1.008.144.384.216.81.216 1.278v1.998zM47.098 164v-12.402h8.28v1.512h-6.624v3.942h5.67v1.494h-5.67v3.96h6.624V164h-8.28zm9.858-4.14v-1.35h5.183v1.35h-5.184zm11.062-4.878c.54 0 1.002.12 1.386.36.384.228.678.564.882 1.008.36-.288.684-.522.972-.702.288-.18.546-.318.774-.414.228-.108.432-.174.612-.198a2.66 2.66 0 0 1 .522-.054c.852 0 1.524.234 2.016.702.492.468.738 1.206.738 2.214V164h-1.548v-5.778c0-.6-.114-1.038-.342-1.314-.228-.276-.606-.414-1.134-.414-.312 0-.66.096-1.044.288a8.595 8.595 0 0 0-1.26.828c.024.108.036.204.036.288.012.084.018.186.018.306V164h-1.548v-5.832c0-.612-.132-1.044-.396-1.296a1.293 1.293 0 0 0-.954-.378c-.372 0-.738.072-1.098.216-.348.132-.774.372-1.278.72V164h-1.548v-8.928h1.368l.162 1.026c.324-.24.612-.432.864-.576a7.31 7.31 0 0 1 .702-.342c.216-.084.408-.138.576-.162a3.95 3.95 0 0 1 .522-.036zm15.153 8.154c-.708.396-1.29.654-1.746.774a5.148 5.148 0 0 1-1.206.162c-.864 0-1.554-.24-2.07-.72-.516-.48-.774-1.134-.774-1.962 0-.492.108-.906.324-1.242.228-.336.504-.606.828-.81.336-.216.69-.366 1.062-.45a4.285 4.285 0 0 1 1.026-.144h2.61v-.684c0-.624-.174-1.056-.522-1.296-.348-.252-.846-.378-1.494-.378-.312 0-.696.048-1.152.144-.444.084-.894.312-1.35.684l-.756-1.17c.576-.444 1.158-.732 1.746-.864a7.509 7.509 0 0 1 1.638-.198c1.164 0 2.022.258 2.574.774.564.504.846 1.284.846 2.34V164h-1.35l-.18-.828-.054-.036zm.054-3.114h-2.358c-.192 0-.402.018-.63.054-.216.024-.42.084-.612.18a1.144 1.144 0 0 0-.486.414c-.12.18-.18.42-.18.72 0 .432.144.756.432.972.3.216.678.324 1.134.324.228 0 .462-.03.702-.09.252-.072.492-.156.72-.252a9.02 9.02 0 0 0 .684-.306c.216-.12.414-.228.594-.324v-1.692zm5.402-7.65a.934.934 0 0 1-.288.684.934.934 0 0 1-1.35 0 .934.934 0 0 1-.288-.684c0-.264.096-.486.288-.666a.934.934 0 0 1 1.35 0c.192.18.288.402.288.666zM86.9 164v-8.928h1.53V164H86.9zm5.824-2.376c0 .468.102.762.306.882.216.108.57.15 1.062.126l.036 1.404c-.168.024-.33.042-.486.054a4.991 4.991 0 0 1-.414.018c-.42 0-.762-.048-1.026-.144a1.567 1.567 0 0 1-.612-.45 1.796 1.796 0 0 1-.324-.72 5.947 5.947 0 0 1-.072-.972v-10.71h1.53v10.512zm3.138 1.386c0-.252.084-.486.252-.702.18-.216.438-.324.774-.324.348 0 .618.108.81.324.192.216.288.45.288.702 0 .3-.096.558-.288.774-.192.204-.462.306-.81.306-.336 0-.594-.102-.774-.306-.168-.204-.252-.462-.252-.774zm0-5.454c0-.252.084-.486.252-.702.18-.216.438-.324.774-.324.348 0 .618.108.81.324.192.216.288.45.288.702 0 .3-.096.558-.288.774-.192.204-.462.306-.81.306-.336 0-.594-.102-.774-.306-.168-.204-.252-.462-.252-.774z" fill="#2B2A29"/><path d="M110.356 164l-.18-.936c-.708.42-1.278.696-1.71.828-.42.132-.792.198-1.116.198-.432 0-.834-.06-1.206-.18a2.668 2.668 0 0 1-.936-.576 2.86 2.86 0 0 1-.63-.99c-.144-.408-.216-.888-.216-1.44v-2.736c0-.504.078-.954.234-1.35.168-.396.39-.726.666-.99a2.923 2.923 0 0 1 1.008-.63 3.457 3.457 0 0 1 1.224-.216c.324 0 .702.036 1.134.108.444.072.96.204 1.548.396v-4.374h1.53V164h-1.35zm-.18-7.002c-.48-.168-.93-.3-1.35-.396a4.779 4.779 0 0 0-1.188-.162c-.48-.012-.888.132-1.224.432-.336.288-.504.78-.504 1.476v2.466c0 .684.144 1.158.432 1.422.288.252.672.378 1.152.378.168 0 .366-.024.594-.072.228-.06.462-.138.702-.234.24-.096.48-.204.72-.324.24-.132.462-.27.666-.414v-4.572zm10.601 3.852c0 .516-.102.978-.306 1.386a2.87 2.87 0 0 1-.81 1.008 3.546 3.546 0 0 1-1.17.63 4.582 4.582 0 0 1-1.422.216c-.516 0-.996-.072-1.44-.216a3.546 3.546 0 0 1-1.17-.63 3.061 3.061 0 0 1-.774-1.008 3.217 3.217 0 0 1-.288-1.386v-2.592c0-.516.096-.972.288-1.368a3.22 3.22 0 0 1 .792-1.026 3.377 3.377 0 0 1 1.17-.648 4.418 4.418 0 0 1 1.44-.234c.54 0 1.032.078 1.476.234.456.144.846.36 1.17.648.336.276.594.618.774 1.026.18.396.27.852.27 1.368v2.592zm-1.53-2.322c0-.384-.066-.708-.198-.972a1.822 1.822 0 0 0-.522-.666 1.876 1.876 0 0 0-.684-.36 2.68 2.68 0 0 0-.738-.108 2.74 2.74 0 0 0-.756.108 2.056 2.056 0 0 0-.702.36c-.204.168-.372.39-.504.666-.132.264-.198.588-.198.972v2.016c0 .384.054.714.162.99.12.264.276.48.468.648.192.168.42.288.684.36.264.072.546.108.846.108.24 0 .486-.036.738-.108.252-.072.48-.192.684-.36a1.86 1.86 0 0 0 .522-.648c.132-.276.198-.606.198-.99v-2.016zm10.546 2.376c0 1.02-.282 1.806-.846 2.358-.552.552-1.272.828-2.16.828-.312 0-.69-.054-1.134-.162-.444-.108-1.002-.366-1.674-.774l-.18.846h-1.368v-12.888h1.548v4.896c.744-.42 1.332-.696 1.764-.828.432-.132.804-.198 1.116-.198.972 0 1.704.276 2.196.828.492.552.738 1.338.738 2.358v2.736zm-1.548-2.538c0-.696-.144-1.182-.432-1.458-.288-.276-.672-.414-1.152-.414-.372 0-.798.108-1.278.324-.468.216-.936.474-1.404.774v4.068a6.163 6.163 0 0 0 1.368.684c.252.084.492.15.72.198.228.048.426.072.594.072.468 0 .846-.144 1.134-.432.3-.288.45-.774.45-1.458v-2.358zm8.298-1.764c-.804.072-1.47.216-1.998.432-.516.204-.912.396-1.188.576V164h-1.548v-8.928h1.368l.162 1.314h.018c.156-.156.354-.318.594-.486.24-.168.498-.318.774-.45.276-.144.57-.258.882-.342.312-.096.624-.144.936-.144v1.638zm8.316 4.248c0 .516-.102.978-.306 1.386a2.87 2.87 0 0 1-.81 1.008 3.546 3.546 0 0 1-1.17.63 4.582 4.582 0 0 1-1.422.216c-.516 0-.996-.072-1.44-.216a3.546 3.546 0 0 1-1.17-.63 3.061 3.061 0 0 1-.774-1.008 3.217 3.217 0 0 1-.288-1.386v-2.592c0-.516.096-.972.288-1.368a3.22 3.22 0 0 1 .792-1.026 3.377 3.377 0 0 1 1.17-.648 4.418 4.418 0 0 1 1.44-.234c.54 0 1.032.078 1.476.234.456.144.846.36 1.17.648.336.276.594.618.774 1.026.18.396.27.852.27 1.368v2.592zm-1.53-2.322c0-.384-.066-.708-.198-.972a1.822 1.822 0 0 0-.522-.666 1.876 1.876 0 0 0-.684-.36 2.68 2.68 0 0 0-.738-.108 2.74 2.74 0 0 0-.756.108 2.056 2.056 0 0 0-.702.36c-.204.168-.372.39-.504.666-.132.264-.198.588-.198.972v2.016c0 .384.054.714.162.99.12.264.276.48.468.648.192.168.42.288.684.36.264.072.546.108.846.108.24 0 .486-.036.738-.108.252-.072.48-.192.684-.36a1.86 1.86 0 0 0 .522-.648c.132-.276.198-.606.198-.99v-2.016zm9.214 5.472l-.18-.936c-.708.42-1.278.696-1.71.828-.42.132-.792.198-1.116.198-.432 0-.834-.06-1.206-.18a2.668 2.668 0 0 1-.936-.576 2.86 2.86 0 0 1-.63-.99c-.144-.408-.216-.888-.216-1.44v-2.736c0-.504.078-.954.234-1.35.168-.396.39-.726.666-.99a2.923 2.923 0 0 1 1.008-.63 3.457 3.457 0 0 1 1.224-.216c.324 0 .702.036 1.134.108.444.072.96.204 1.548.396v-4.374h1.53V164h-1.35zm-.18-7.002c-.48-.168-.93-.3-1.35-.396a4.779 4.779 0 0 0-1.188-.162c-.48-.012-.888.132-1.224.432-.336.288-.504.78-.504 1.476v2.466c0 .684.144 1.158.432 1.422.288.252.672.378 1.152.378.168 0 .366-.024.594-.072.228-.06.462-.138.702-.234.24-.096.48-.204.72-.324.24-.132.462-.27.666-.414v-4.572zm10.602 3.852c0 .516-.102.978-.306 1.386a2.87 2.87 0 0 1-.81 1.008 3.546 3.546 0 0 1-1.17.63 4.582 4.582 0 0 1-1.422.216c-.516 0-.996-.072-1.44-.216a3.546 3.546 0 0 1-1.17-.63 3.061 3.061 0 0 1-.774-1.008 3.217 3.217 0 0 1-.288-1.386v-2.592c0-.516.096-.972.288-1.368a3.22 3.22 0 0 1 .792-1.026 3.377 3.377 0 0 1 1.17-.648 4.418 4.418 0 0 1 1.44-.234c.54 0 1.032.078 1.476.234.456.144.846.36 1.17.648.336.276.594.618.774 1.026.18.396.27.852.27 1.368v2.592zm-1.53-2.322c0-.384-.066-.708-.198-.972a1.822 1.822 0 0 0-.522-.666 1.876 1.876 0 0 0-.684-.36 2.68 2.68 0 0 0-.738-.108 2.74 2.74 0 0 0-.756.108 2.056 2.056 0 0 0-.702.36c-.204.168-.372.39-.504.666-.132.264-.198.588-.198.972v2.016c0 .384.054.714.162.99.12.264.276.48.468.648.192.168.42.288.684.36.264.072.546.108.846.108.24 0 .486-.036.738-.108.252-.072.48-.192.684-.36a1.86 1.86 0 0 0 .522-.648c.132-.276.198-.606.198-.99v-2.016zm7.324-3.546c.54 0 1.002.12 1.386.36.384.228.678.564.882 1.008.36-.288.684-.522.972-.702.288-.18.546-.318.774-.414.228-.108.432-.174.612-.198a2.66 2.66 0 0 1 .522-.054c.852 0 1.524.234 2.016.702.492.468.738 1.206.738 2.214V164h-1.548v-5.778c0-.6-.114-1.038-.342-1.314-.228-.276-.606-.414-1.134-.414-.312 0-.66.096-1.044.288a8.595 8.595 0 0 0-1.26.828c.024.108.036.204.036.288.012.084.018.186.018.306V164h-1.548v-5.832c0-.612-.132-1.044-.396-1.296a1.293 1.293 0 0 0-.954-.378c-.372 0-.738.072-1.098.216-.348.132-.774.372-1.278.72V164h-1.548v-8.928h1.368l.162 1.026c.324-.24.612-.432.864-.576a7.31 7.31 0 0 1 .702-.342c.216-.084.408-.138.576-.162a3.95 3.95 0 0 1 .522-.036zm9.465-.216a3.057 3.057 0 0 1 1.116-2.412c.348-.288.75-.504 1.206-.648a4.58 4.58 0 0 1 1.458-.234c.78 0 1.44.126 1.98.378a5.39 5.39 0 0 1 1.422.882l-.9 1.26a4.052 4.052 0 0 0-1.17-.756 3.095 3.095 0 0 0-1.296-.27c-.228 0-.474.036-.738.108a2.253 2.253 0 0 0-.72.36 2.2 2.2 0 0 0-.558.666c-.144.264-.216.594-.216.99v2.034c.576-.372 1.104-.63 1.584-.774.492-.156.918-.234 1.278-.234.456 0 .864.078 1.224.234.372.156.684.378.936.666.264.276.462.612.594 1.008.144.384.216.81.216 1.278v1.476c0 .516-.102.978-.306 1.386-.204.408-.48.756-.828 1.044-.336.288-.732.51-1.188.666a4.523 4.523 0 0 1-1.404.216 4.704 4.704 0 0 1-1.458-.216 3.546 3.546 0 0 1-1.17-.63 2.959 2.959 0 0 1-.792-1.008 3.4 3.4 0 0 1-.27-1.386v-6.084zm5.832 4.68c0-.624-.156-1.08-.468-1.368-.3-.288-.678-.432-1.134-.432-.42 0-.846.09-1.278.27a8.91 8.91 0 0 0-1.368.756v1.836c0 .384.066.714.198.99.132.264.3.48.504.648.204.168.426.294.666.378.252.072.498.108.738.108.228 0 .468-.036.72-.108.264-.084.498-.21.702-.378a2.17 2.17 0 0 0 .504-.666c.144-.264.216-.588.216-.972v-1.062zm6.858-7.956c.456 0 .9.072 1.332.216.444.144.84.366 1.188.666.348.3.624.672.828 1.116.216.432.324.942.324 1.53 0 .576-.126 1.11-.378 1.602-.252.48-.624.834-1.116 1.062.312.132.576.3.792.504.228.204.408.432.54.684.144.252.246.522.306.81.072.276.108.546.108.81 0 .624-.114 1.164-.342 1.62a3.369 3.369 0 0 1-.9 1.134 3.893 3.893 0 0 1-1.278.648 4.81 4.81 0 0 1-1.422.216 5.234 5.234 0 0 1-1.512-.216 3.715 3.715 0 0 1-1.242-.648 3.29 3.29 0 0 1-.846-1.08c-.204-.444-.306-.966-.306-1.566 0-.312.048-.618.144-.918.096-.3.222-.576.378-.828a3.67 3.67 0 0 1 .576-.702c.228-.204.468-.36.72-.468a2.14 2.14 0 0 1-1.152-1.026 3.446 3.446 0 0 1-.396-1.656c0-.576.102-1.08.306-1.512.216-.444.498-.81.846-1.098.348-.3.738-.522 1.17-.666a3.893 3.893 0 0 1 1.332-.234zm.018 1.494a2.6 2.6 0 0 0-.792.126c-.252.084-.48.21-.684.378a1.922 1.922 0 0 0-.468.63 2.03 2.03 0 0 0-.18.882c0 .312.06.594.18.846s.276.468.468.648c.204.168.432.3.684.396a2.206 2.206 0 0 0 1.566 0c.264-.096.492-.234.684-.414.192-.18.348-.396.468-.648.12-.252.18-.534.18-.846 0-.324-.06-.612-.18-.864a1.726 1.726 0 0 0-.45-.63 1.898 1.898 0 0 0-.684-.378 2.488 2.488 0 0 0-.792-.126zm0 5.49c-.312 0-.606.048-.882.144a2.135 2.135 0 0 0-.72.414 2.17 2.17 0 0 0-.504.666c-.12.252-.18.54-.18.864 0 .66.198 1.17.594 1.53.408.36.972.54 1.692.54.696 0 1.248-.18 1.656-.54.408-.36.612-.882.612-1.566a1.943 1.943 0 0 0-.666-1.494 2.135 2.135 0 0 0-.72-.414 2.666 2.666 0 0 0-.882-.144zm18.954-1.152c0 .636-.096 1.194-.288 1.674-.18.48-.414.876-.702 1.188a2.746 2.746 0 0 1-.936.702 2.46 2.46 0 0 1-1.008.234c-.54 0-.984-.084-1.332-.252a2.06 2.06 0 0 1-.774-.684c-.384.204-.792.396-1.224.576-.432.18-.876.27-1.332.27-.672 0-1.212-.192-1.62-.576-.396-.384-.594-.906-.594-1.566 0-.396.084-.726.252-.99.18-.264.396-.48.648-.648.264-.168.54-.288.828-.36.288-.072.552-.108.792-.108h1.98v-.414c0-.516-.162-.87-.486-1.062-.312-.192-.708-.288-1.188-.288-.228 0-.492.036-.792.108-.3.072-.63.252-.99.54l-.666-.9c.456-.36.888-.6 1.296-.72a3.85 3.85 0 0 1 1.188-.198c.9 0 1.602.21 2.106.63.516.42.774 1.05.774 1.89v2.7c0 .348.096.594.288.738.192.144.462.216.81.216.216 0 .432-.054.648-.162.216-.108.408-.276.576-.504.18-.228.324-.51.432-.846.108-.348.162-.75.162-1.206a5.47 5.47 0 0 0-.378-2.034 4.617 4.617 0 0 0-1.062-1.656 4.66 4.66 0 0 0-1.674-1.116c-.648-.276-1.38-.414-2.196-.414-.816 0-1.59.144-2.322.432a6.184 6.184 0 0 0-1.926 1.188 5.604 5.604 0 0 0-1.296 1.764 5.108 5.108 0 0 0-.468 2.178c0 .792.138 1.524.414 2.196a5.51 5.51 0 0 0 1.17 1.746 5.429 5.429 0 0 0 1.782 1.152 5.959 5.959 0 0 0 2.25.414c.348 0 .696-.03 1.044-.09.36-.072.78-.204 1.26-.396l.396 1.098c-.576.228-1.092.366-1.548.414-.456.06-.84.09-1.152.09a7.345 7.345 0 0 1-2.7-.486 6.903 6.903 0 0 1-2.16-1.368 6.277 6.277 0 0 1-1.404-2.088 6.929 6.929 0 0 1-.504-2.664c0-.96.192-1.848.576-2.664.384-.816.9-1.518 1.548-2.106a7.076 7.076 0 0 1 2.268-1.404 7.673 7.673 0 0 1 2.772-.504c1.02 0 1.926.168 2.718.504a5.955 5.955 0 0 1 2.034 1.368 5.846 5.846 0 0 1 1.26 2.016c.3.768.45 1.584.45 2.448zm-5.31.54h-1.782c-.144 0-.3.012-.468.036a1.232 1.232 0 0 0-.468.126.929.929 0 0 0-.36.324c-.096.132-.144.312-.144.54 0 .324.108.57.324.738.216.168.498.252.846.252.18 0 .36-.024.54-.072.192-.048.378-.108.558-.18.18-.084.348-.168.504-.252.168-.096.318-.18.45-.252v-1.26zm9.594-2.88c.324 0 .702.072 1.134.216.444.132 1.002.408 1.674.828l.18-.954h1.368v9.468c0 .516-.108.972-.324 1.368a2.805 2.805 0 0 1-.846.99c-.348.276-.75.48-1.206.612-.456.144-.93.216-1.422.216-.528 0-1.08-.09-1.656-.27a4.396 4.396 0 0 1-1.566-.9l.954-1.134c.144.132.306.252.486.36a3.767 3.767 0 0 0 1.206.432c.204.048.39.072.558.072.288 0 .564-.036.828-.108.276-.072.522-.192.738-.36.216-.168.384-.384.504-.648.132-.264.198-.588.198-.972v-1.044c-.6.372-1.14.624-1.62.756-.468.12-.864.18-1.188.18-.876 0-1.596-.27-2.16-.81-.552-.552-.828-1.338-.828-2.358v-2.754c0-1.02.276-1.806.828-2.358.564-.552 1.284-.828 2.16-.828zm2.808 2.61a6.785 6.785 0 0 0-1.404-.792c-.492-.204-.912-.306-1.26-.306-.492 0-.882.138-1.17.414-.276.276-.414.768-.414 1.476v2.34c0 .684.144 1.176.432 1.476.288.288.672.426 1.152.414.372 0 .798-.084 1.278-.252a7.09 7.09 0 0 0 1.386-.684v-4.086zm7.363-2.61c.54 0 1.002.12 1.386.36.384.228.678.564.882 1.008.36-.288.684-.522.972-.702.288-.18.546-.318.774-.414.228-.108.432-.174.612-.198a2.66 2.66 0 0 1 .522-.054c.852 0 1.524.234 2.016.702.492.468.738 1.206.738 2.214V164h-1.548v-5.778c0-.6-.114-1.038-.342-1.314-.228-.276-.606-.414-1.134-.414-.312 0-.66.096-1.044.288a8.595 8.595 0 0 0-1.26.828c.024.108.036.204.036.288.012.084.018.186.018.306V164h-1.548v-5.832c0-.612-.132-1.044-.396-1.296a1.293 1.293 0 0 0-.954-.378c-.372 0-.738.072-1.098.216-.348.132-.774.372-1.278.72V164h-1.548v-8.928h1.368l.162 1.026c.324-.24.612-.432.864-.576a7.31 7.31 0 0 1 .702-.342c.216-.084.408-.138.576-.162a3.95 3.95 0 0 1 .522-.036zm15.153 8.154c-.708.396-1.29.654-1.746.774a5.148 5.148 0 0 1-1.206.162c-.864 0-1.554-.24-2.07-.72-.516-.48-.774-1.134-.774-1.962 0-.492.108-.906.324-1.242.228-.336.504-.606.828-.81.336-.216.69-.366 1.062-.45a4.285 4.285 0 0 1 1.026-.144h2.61v-.684c0-.624-.174-1.056-.522-1.296-.348-.252-.846-.378-1.494-.378-.312 0-.696.048-1.152.144-.444.084-.894.312-1.35.684l-.756-1.17c.576-.444 1.158-.732 1.746-.864a7.509 7.509 0 0 1 1.638-.198c1.164 0 2.022.258 2.574.774.564.504.846 1.284.846 2.34V164h-1.35l-.18-.828-.054-.036zm.054-3.114h-2.358c-.192 0-.402.018-.63.054-.216.024-.42.084-.612.18a1.144 1.144 0 0 0-.486.414c-.12.18-.18.42-.18.72 0 .432.144.756.432.972.3.216.678.324 1.134.324.228 0 .462-.03.702-.09.252-.072.492-.156.72-.252a9.02 9.02 0 0 0 .684-.306c.216-.12.414-.228.594-.324v-1.692zm5.401-7.65a.934.934 0 0 1-.288.684.934.934 0 0 1-1.35 0 .934.934 0 0 1-.288-.684c0-.264.096-.486.288-.666a.934.934 0 0 1 1.35 0c.192.18.288.402.288.666zM243.221 164v-8.928h1.53V164h-1.53zm5.824-2.376c0 .468.102.762.306.882.216.108.57.15 1.062.126l.036 1.404c-.168.024-.33.042-.486.054a4.991 4.991 0 0 1-.414.018c-.42 0-.762-.048-1.026-.144a1.567 1.567 0 0 1-.612-.45 1.796 1.796 0 0 1-.324-.72 5.947 5.947 0 0 1-.072-.972v-10.71h1.53v10.512zm2.923 1.386c0-.252.084-.486.252-.702.18-.216.438-.324.774-.324.348 0 .618.108.81.324.192.216.288.45.288.702 0 .3-.096.558-.288.774-.192.204-.462.306-.81.306-.336 0-.594-.102-.774-.306-.168-.204-.252-.462-.252-.774zm7.357-8.028c.516 0 1.038.072 1.566.216.54.132 1.02.426 1.44.882l-.918 1.17c-.396-.372-.768-.6-1.116-.684a3.319 3.319 0 0 0-.9-.144c-.228 0-.468.036-.72.108a1.9 1.9 0 0 0-.666.36c-.192.168-.354.39-.486.666-.12.264-.18.588-.18.972v2.016c0 .384.06.714.18.99.12.264.276.48.468.648.192.168.408.288.648.36.252.072.504.108.756.108.264 0 .582-.054.954-.162.384-.108.714-.3.99-.576l.954 1.08c-.42.42-.888.708-1.404.864a5.147 5.147 0 0 1-1.53.234 4.215 4.215 0 0 1-1.44-.234 3.632 3.632 0 0 1-1.134-.648 3.015 3.015 0 0 1-.738-.99 3.284 3.284 0 0 1-.252-1.296v-2.646c0-.504.096-.96.288-1.368a3.205 3.205 0 0 1 1.89-1.692 3.944 3.944 0 0 1 1.35-.234zm11.587 5.868c0 .516-.102.978-.306 1.386a2.87 2.87 0 0 1-.81 1.008 3.546 3.546 0 0 1-1.17.63 4.582 4.582 0 0 1-1.422.216c-.516 0-.996-.072-1.44-.216a3.546 3.546 0 0 1-1.17-.63 3.061 3.061 0 0 1-.774-1.008 3.217 3.217 0 0 1-.288-1.386v-2.592c0-.516.096-.972.288-1.368a3.22 3.22 0 0 1 .792-1.026 3.377 3.377 0 0 1 1.17-.648 4.418 4.418 0 0 1 1.44-.234c.54 0 1.032.078 1.476.234.456.144.846.36 1.17.648.336.276.594.618.774 1.026.18.396.27.852.27 1.368v2.592zm-1.53-2.322c0-.384-.066-.708-.198-.972a1.822 1.822 0 0 0-.522-.666 1.876 1.876 0 0 0-.684-.36 2.68 2.68 0 0 0-.738-.108 2.74 2.74 0 0 0-.756.108 2.056 2.056 0 0 0-.702.36c-.204.168-.372.39-.504.666-.132.264-.198.588-.198.972v2.016c0 .384.054.714.162.99.12.264.276.48.468.648.192.168.42.288.684.36.264.072.546.108.846.108.24 0 .486-.036.738-.108.252-.072.48-.192.684-.36a1.86 1.86 0 0 0 .522-.648c.132-.276.198-.606.198-.99v-2.016zm7.324-3.546c.54 0 1.002.12 1.386.36.384.228.678.564.882 1.008.36-.288.684-.522.972-.702.288-.18.546-.318.774-.414.228-.108.432-.174.612-.198a2.66 2.66 0 0 1 .522-.054c.852 0 1.524.234 2.016.702.492.468.738 1.206.738 2.214V164h-1.548v-5.778c0-.6-.114-1.038-.342-1.314-.228-.276-.606-.414-1.134-.414-.312 0-.66.096-1.044.288a8.595 8.595 0 0 0-1.26.828c.024.108.036.204.036.288.012.084.018.186.018.306V164h-1.548v-5.832c0-.612-.132-1.044-.396-1.296a1.293 1.293 0 0 0-.954-.378c-.372 0-.738.072-1.098.216-.348.132-.774.372-1.278.72V164h-1.548v-8.928h1.368l.162 1.026c.324-.24.612-.432.864-.576a7.31 7.31 0 0 1 .702-.342c.216-.084.408-.138.576-.162a3.95 3.95 0 0 1 .522-.036z" fill="#2E97DE"/><path d="M103.516 166.88h181.866v1.08H103.516v-1.08z" fill="#2E97DE"/></g><path d="M47.342 56.734c.337-.25.623-.55.858-.902.25-.352.455-.792.616-1.32a11.06 11.06 0 0 0 .374-1.892c.103-.748.176-1.628.22-2.64l.264-6.138h9.9v6.468c.015 2.141.022 4.29.022 6.446h1.276v5.566h-2.354V59h-9.944v3.322H46.22v-5.588h1.122zm4.598-10.626l-.198 3.982c-.044.807-.088 1.54-.132 2.2-.044.66-.117 1.261-.22 1.804a9.328 9.328 0 0 1-.396 1.474c-.161.44-.381.843-.66 1.21h6.732v-10.67H51.94zm19.931 9.042c0 .645-.132 1.217-.396 1.716-.25.499-.594.917-1.034 1.254a4.811 4.811 0 0 1-1.474.748 6.534 6.534 0 0 1-3.52 0 4.814 4.814 0 0 1-1.474-.748 3.798 3.798 0 0 1-.99-1.254c-.25-.499-.374-1.07-.374-1.716v-3.168c0-.645.125-1.217.374-1.716a3.92 3.92 0 0 1 1.034-1.254 4.555 4.555 0 0 1 1.474-.77 5.81 5.81 0 0 1 1.76-.264c.66 0 1.269.088 1.826.264.558.176 1.041.44 1.452.792.425.337.755.755.99 1.254s.352 1.07.352 1.716v3.146zm-2.31-2.75c0-.41-.073-.755-.22-1.034a1.858 1.858 0 0 0-1.276-1.078 2.696 2.696 0 0 0-.814-.132c-.264 0-.535.044-.814.132a1.997 1.997 0 0 0-.748.374c-.22.176-.403.41-.55.704-.132.279-.198.623-.198 1.034v2.31c0 .821.227 1.4.682 1.738.455.337.998.506 1.628.506.264 0 .535-.037.814-.11.279-.088.528-.22.748-.396.22-.176.396-.403.528-.682.147-.293.22-.645.22-1.056V52.4zm6.88-2.97c.176-.161.374-.293.594-.396.22-.117.44-.213.66-.286a4.415 4.415 0 0 1 1.254-.198c1.335 0 2.369.345 3.102 1.034.748.69 1.122 1.709 1.122 3.058v2.376c0 .66-.132 1.247-.396 1.76-.25.499-.587.924-1.012 1.276a4.854 4.854 0 0 1-1.496.792 5.885 5.885 0 0 1-1.782.264c-1.423 0-2.552-.352-3.388-1.056-.821-.704-1.232-1.716-1.232-3.036v-2.882c0-.675.022-1.29.066-1.848.044-.572.125-1.1.242-1.584.132-.484.3-.931.506-1.342.205-.425.462-.836.77-1.232.235-.293.513-.55.836-.77.323-.235.667-.44 1.034-.616.367-.19.748-.367 1.144-.528.396-.161.777-.315 1.144-.462.19-.073.367-.14.528-.198.161-.073.323-.14.484-.198.161-.073.33-.147.506-.22.176-.073.374-.161.594-.264l.792 1.914c-.352.161-.653.293-.902.396-.235.088-.447.169-.638.242-.176.073-.345.14-.506.198-.147.059-.315.125-.506.198-.528.22-.997.433-1.408.638-.41.205-.77.44-1.078.704a3.12 3.12 0 0 0-.726.902c-.176.352-.3.777-.374 1.276l.066.088zm4.4 3.542c0-.821-.213-1.4-.638-1.738-.425-.337-.975-.506-1.65-.506-.264 0-.535.044-.814.132a2.32 2.32 0 0 0-.77.418c-.22.19-.403.433-.55.726-.132.293-.198.645-.198 1.056v1.65c0 .41.059.763.176 1.056.132.279.3.506.506.682.205.176.447.308.726.396.293.073.594.11.902.11.293 0 .58-.037.858-.11.279-.088.52-.22.726-.396.22-.176.396-.403.528-.682.132-.293.198-.645.198-1.056v-1.738zm13.677 2.244c0 1.217-.337 2.178-1.012 2.882-.66.69-1.598 1.034-2.816 1.034-.381 0-.836-.037-1.364-.11-.528-.073-1.107-.257-1.738-.55v4.884h-2.332V48.11h2.112l.22 1.078c.748-.455 1.386-.763 1.914-.924.528-.176.983-.264 1.364-.264 1.13 0 2.017.323 2.662.968.66.63.99 1.62.99 2.97v3.278zm-2.354-3.08c0-.733-.161-1.232-.484-1.496-.308-.279-.704-.418-1.188-.418-.19 0-.41.03-.66.088a6.27 6.27 0 0 0-.748.242c-.264.103-.528.22-.792.352-.25.132-.484.271-.704.418v4.972c.587.25 1.086.418 1.496.506.426.088.836.132 1.232.132.25 0 .484-.03.704-.088.235-.059.433-.161.594-.308.176-.161.308-.367.396-.616.103-.25.154-.557.154-.924v-2.86zm13.545 3.014c0 .645-.132 1.217-.396 1.716a3.568 3.568 0 0 1-1.034 1.254 4.813 4.813 0 0 1-1.474.748 6.534 6.534 0 0 1-3.52 0 4.814 4.814 0 0 1-1.474-.748 3.798 3.798 0 0 1-.99-1.254c-.25-.499-.374-1.07-.374-1.716v-3.168c0-.645.125-1.217.374-1.716a3.92 3.92 0 0 1 1.034-1.254 4.555 4.555 0 0 1 1.474-.77 5.81 5.81 0 0 1 1.76-.264c.66 0 1.269.088 1.826.264.557.176 1.041.44 1.452.792.425.337.755.755.99 1.254s.352 1.07.352 1.716v3.146zm-2.31-2.75c0-.41-.073-.755-.22-1.034a1.858 1.858 0 0 0-1.276-1.078 2.698 2.698 0 0 0-.814-.132c-.264 0-.535.044-.814.132a1.997 1.997 0 0 0-.748.374c-.22.176-.403.41-.55.704-.132.279-.198.623-.198 1.034v2.31c0 .821.227 1.4.682 1.738.455.337.997.506 1.628.506.264 0 .535-.037.814-.11.279-.088.528-.22.748-.396.22-.176.396-.403.528-.682.147-.293.22-.645.22-1.056V52.4zm4.658 4.334c.337-.25.623-.55.858-.902.249-.352.455-.792.616-1.32a11.09 11.09 0 0 0 .374-1.892c.103-.748.176-1.628.22-2.64l.264-6.138h9.9v6.468c.015 2.141.022 4.29.022 6.446h1.276v5.566h-2.354V59h-9.944v3.322h-2.354v-5.588h1.122zm4.598-10.626l-.198 3.982c-.044.807-.088 1.54-.132 2.2-.044.66-.117 1.261-.22 1.804a9.393 9.393 0 0 1-.396 1.474c-.161.44-.381.843-.66 1.21h6.732v-10.67h-5.126zm19.931 9.042c0 .645-.132 1.217-.396 1.716a3.568 3.568 0 0 1-1.034 1.254 4.813 4.813 0 0 1-1.474.748 6.534 6.534 0 0 1-3.52 0 4.813 4.813 0 0 1-1.474-.748 3.788 3.788 0 0 1-.99-1.254c-.249-.499-.374-1.07-.374-1.716v-3.168c0-.645.125-1.217.374-1.716a3.923 3.923 0 0 1 1.034-1.254 4.554 4.554 0 0 1 1.474-.77 5.809 5.809 0 0 1 1.76-.264c.66 0 1.269.088 1.826.264.557.176 1.041.44 1.452.792.425.337.755.755.99 1.254s.352 1.07.352 1.716v3.146zm-2.31-2.75c0-.41-.073-.755-.22-1.034a1.858 1.858 0 0 0-1.276-1.078 2.698 2.698 0 0 0-.814-.132c-.264 0-.535.044-.814.132a1.994 1.994 0 0 0-.748.374c-.22.176-.403.41-.55.704-.132.279-.198.623-.198 1.034v2.31c0 .821.227 1.4.682 1.738.455.337.997.506 1.628.506.264 0 .535-.037.814-.11.279-.088.528-.22.748-.396.22-.176.396-.403.528-.682.147-.293.22-.645.22-1.056V52.4zm10.18 2.376l1.826-3.432 1.76-3.234h2.09V59H143.8v-5.962h-.11l-2.53 4.554h-1.584l-1.21-2.244-1.188-2.244h-.132V59h-2.332V48.11h2.134l1.738 3.278 1.738 3.388h.132zm13.775 8.272v-19.91h1.848v19.91h-1.848zm18.848-15.972a4.11 4.11 0 0 0-1.496-.814 5.669 5.669 0 0 0-1.672-.264c-.381 0-.762.059-1.144.176-.366.117-.696.3-.99.55-.293.25-.535.572-.726.968-.176.396-.264.873-.264 1.43v4.598c0 .557.088 1.034.264 1.43.191.396.433.719.726.968.308.25.646.433 1.012.55.367.117.734.176 1.1.176a6.46 6.46 0 0 0 1.65-.22 4.58 4.58 0 0 0 1.584-.836l1.188 1.936c-.513.425-1.158.77-1.936 1.034a7.678 7.678 0 0 1-2.486.396 7.218 7.218 0 0 1-2.112-.308 5.887 5.887 0 0 1-1.804-.946 5.049 5.049 0 0 1-1.254-1.562c-.308-.616-.462-1.32-.462-2.112v-5.61c0-.792.154-1.489.462-2.09a4.798 4.798 0 0 1 1.254-1.54 5.636 5.636 0 0 1 1.804-.968 6.704 6.704 0 0 1 2.09-.33c.836 0 1.636.117 2.398.352.778.235 1.46.594 2.046 1.078l-1.232 1.958zm7.721 3.036V59h-2.376v-8.888h-3.234v-2.024h8.844v2.024H180.8zm13.771 5.104c0 1.217-.337 2.178-1.012 2.882-.66.69-1.599 1.034-2.816 1.034-.381 0-.836-.037-1.364-.11-.528-.073-1.107-.257-1.738-.55v4.884h-2.332V48.11h2.112l.22 1.078c.748-.455 1.386-.763 1.914-.924.528-.176.983-.264 1.364-.264 1.129 0 2.017.323 2.662.968.66.63.99 1.62.99 2.97v3.278zm-2.354-3.08c0-.733-.161-1.232-.484-1.496-.308-.279-.704-.418-1.188-.418-.191 0-.411.03-.66.088-.235.059-.484.14-.748.242-.264.103-.528.22-.792.352a8.145 8.145 0 0 0-.704.418v4.972c.587.25 1.085.418 1.496.506.425.088.836.132 1.232.132.249 0 .484-.03.704-.088a1.35 1.35 0 0 0 .594-.308c.176-.161.308-.367.396-.616.103-.25.154-.557.154-.924v-2.86zm13.545 3.014c0 .645-.132 1.217-.396 1.716a3.58 3.58 0 0 1-1.034 1.254 4.824 4.824 0 0 1-1.474.748 6.534 6.534 0 0 1-3.52 0 4.801 4.801 0 0 1-1.474-.748 3.788 3.788 0 0 1-.99-1.254c-.25-.499-.374-1.07-.374-1.716v-3.168c0-.645.124-1.217.374-1.716a3.91 3.91 0 0 1 1.034-1.254 4.543 4.543 0 0 1 1.474-.77 5.809 5.809 0 0 1 1.76-.264c.66 0 1.268.088 1.826.264.557.176 1.041.44 1.452.792.425.337.755.755.99 1.254.234.499.352 1.07.352 1.716v3.146zm-2.31-2.75c0-.41-.074-.755-.22-1.034a1.858 1.858 0 0 0-1.276-1.078 2.698 2.698 0 0 0-.814-.132c-.264 0-.536.044-.814.132a1.994 1.994 0 0 0-.748.374 2.06 2.06 0 0 0-.55.704c-.132.279-.198.623-.198 1.034v2.31c0 .821.227 1.4.682 1.738.454.337.997.506 1.628.506.264 0 .535-.037.814-.11.278-.088.528-.22.748-.396.22-.176.396-.403.528-.682.146-.293.22-.645.22-1.056V52.4zm11.28-.572l-1.738 2.728L209.958 59h-2.09V48.11h2.354v7.15h.088l1.606-2.398 3.168-4.752h2.112V59h-2.354v-7.172h-.11zm9.381-1.716V59h-2.376v-8.888h-3.234v-2.024h8.844v2.024h-3.234zm6.752 4.202v.55c0 .381.066.711.198.99.132.264.301.484.506.66.22.161.47.286.748.374.294.073.594.11.902.11.338 0 .741-.059 1.21-.176.484-.117.961-.389 1.43-.814l.682.814c.235.25.462.513.682.792-.616.601-1.268 1.005-1.958 1.21a7.481 7.481 0 0 1-2.046.286 6.62 6.62 0 0 1-1.804-.242 4.731 4.731 0 0 1-1.496-.726 3.688 3.688 0 0 1-1.012-1.254c-.249-.499-.374-1.085-.374-1.76v-2.86c0-.66.11-1.254.33-1.782.235-.528.558-.975.968-1.342a4.235 4.235 0 0 1 1.43-.836 5 5 0 0 1 1.782-.308c.66 0 1.269.095 1.826.286.558.19 1.034.47 1.43.836.411.352.726.785.946 1.298.22.513.33 1.1.33 1.76v2.134h-6.71zm4.356-2.002c0-.763-.212-1.313-.638-1.65-.425-.352-.931-.528-1.518-.528-.586 0-1.1.183-1.54.55-.425.352-.638.887-.638 1.606v.352h4.334v-.33zm7.813.484c0 1.056-.088 1.958-.264 2.706-.161.748-.411 1.379-.748 1.892a3.971 3.971 0 0 1-1.21 1.21 5.737 5.737 0 0 1-1.672.704l-.682-1.87a5.871 5.871 0 0 0 1.056-.528c.293-.19.528-.455.704-.792.191-.337.323-.77.396-1.298.088-.528.132-1.21.132-2.046V48.11h7.876V59h-2.332v-8.888h-3.256v2.684zm10.263 4.224h2.596c.557 0 .982-.125 1.276-.374.293-.264.44-.623.44-1.078 0-.352-.132-.675-.396-.968-.264-.293-.704-.44-1.32-.44h-2.596v2.86zM251.009 59V48.088h2.31v4.114h2.706c1.261 0 2.222.315 2.882.946.66.616.99 1.423.99 2.42 0 .47-.081.917-.242 1.342-.162.41-.404.77-.726 1.078-.308.308-.704.557-1.188.748-.484.176-1.049.264-1.694.264h-5.038zm18.41-1.364c-.587.601-1.21.997-1.87 1.188-.66.19-1.32.286-1.98.286a5.597 5.597 0 0 1-1.738-.264 4.086 4.086 0 0 1-1.408-.77 3.803 3.803 0 0 1-.946-1.21c-.22-.484-.33-1.034-.33-1.65v-3.234c0-.645.124-1.217.374-1.716.249-.499.579-.917.99-1.254a4.37 4.37 0 0 1 1.408-.77 5.112 5.112 0 0 1 1.628-.264c.322 0 .652.022.99.066.337.03.667.095.99.198.337.088.66.227.968.418.322.176.63.418.924.726l-1.364 1.738c-.499-.455-.946-.733-1.342-.836a3.957 3.957 0 0 0-1.012-.154c-.25 0-.506.044-.77.132a2.016 2.016 0 0 0-.726.374c-.206.176-.382.41-.528.704-.132.279-.198.623-.198 1.034v2.332c0 .41.058.763.176 1.056.132.279.3.506.506.682.205.176.44.308.704.396.264.073.535.11.814.11.308 0 .682-.066 1.122-.198.44-.147.836-.389 1.188-.726l1.43 1.606zm6.235-7.524V59h-2.376v-8.888h-3.234v-2.024h8.844v2.024h-3.234zm13.441 5.61c0 .425-.074.836-.22 1.232a3.065 3.065 0 0 1-.66 1.056c-.294.293-.66.535-1.1.726-.44.176-.954.264-1.54.264h-5.522V48.11h5.477c.573 0 1.071.08 1.497.242.425.161.77.381 1.034.66.278.264.484.58.616.946a2.9 2.9 0 0 1 .22 1.122c0 .425-.125.85-.374 1.276-.235.425-.565.74-.99.946.513.235.902.572 1.166 1.012.264.44.396.91.396 1.408zm-2.376-.066c0-.41-.147-.733-.44-.968a1.64 1.64 0 0 0-1.056-.352h-2.816v2.706h2.684c.557 0 .968-.125 1.232-.374.264-.25.396-.587.396-1.012zm-.154-4.4c0-.396-.147-.682-.44-.858a1.711 1.711 0 0 0-.99-.286h-2.728v2.266h2.794c.425 0 .755-.095.99-.286.249-.205.374-.484.374-.836zm13.685 3.894c0 .645-.132 1.217-.396 1.716a3.568 3.568 0 0 1-1.034 1.254 4.813 4.813 0 0 1-1.474.748 6.534 6.534 0 0 1-3.52 0 4.813 4.813 0 0 1-1.474-.748 3.788 3.788 0 0 1-.99-1.254c-.249-.499-.374-1.07-.374-1.716v-3.168c0-.645.125-1.217.374-1.716a3.923 3.923 0 0 1 1.034-1.254 4.554 4.554 0 0 1 1.474-.77 5.809 5.809 0 0 1 1.76-.264c.66 0 1.269.088 1.826.264.557.176 1.041.44 1.452.792.425.337.755.755.99 1.254s.352 1.07.352 1.716v3.146zm-2.31-2.75c0-.41-.073-.755-.22-1.034a1.858 1.858 0 0 0-1.276-1.078 2.698 2.698 0 0 0-.814-.132c-.264 0-.535.044-.814.132a1.994 1.994 0 0 0-.748.374c-.22.176-.403.41-.55.704-.132.279-.198.623-.198 1.034v2.31c0 .821.227 1.4.682 1.738.455.337.997.506 1.628.506.264 0 .535-.037.814-.11.279-.088.528-.22.748-.396.22-.176.396-.403.528-.682.147-.293.22-.645.22-1.056V52.4zM50.906 74.112l-.132 2.508a25.49 25.49 0 0 1-.264 2.508c-.103.719-.308 1.335-.616 1.848h4.818v-6.864h-3.806zm-4.642 6.908h.396c.147 0 .279-.007.396-.022.513-.367.88-.88 1.1-1.54.22-.675.367-1.599.44-2.772l.286-4.576h8.14v8.866c.161 0 .323.007.484.022h.484v4.818h-2.134V83h-7.458v2.816h-2.134V81.02zm22.664-1.87c0 .645-.132 1.217-.396 1.716-.25.499-.594.917-1.034 1.254a4.814 4.814 0 0 1-1.474.748 6.534 6.534 0 0 1-3.52 0 4.811 4.811 0 0 1-1.474-.748 3.795 3.795 0 0 1-.99-1.254c-.25-.499-.374-1.07-.374-1.716v-3.168c0-.645.124-1.217.374-1.716a3.918 3.918 0 0 1 1.034-1.254 4.553 4.553 0 0 1 1.474-.77 5.81 5.81 0 0 1 1.76-.264c.66 0 1.268.088 1.826.264.557.176 1.041.44 1.452.792.425.337.755.755.99 1.254.234.499.352 1.07.352 1.716v3.146zm-2.31-2.75c0-.41-.074-.755-.22-1.034a1.858 1.858 0 0 0-1.276-1.078 2.696 2.696 0 0 0-.814-.132c-.264 0-.536.044-.814.132a1.996 1.996 0 0 0-.748.374c-.22.176-.404.41-.55.704-.132.279-.198.623-.198 1.034v2.31c0 .821.227 1.4.682 1.738.454.337.997.506 1.628.506.264 0 .535-.037.814-.11a2.29 2.29 0 0 0 .748-.396c.22-.176.396-.403.528-.682.146-.293.22-.645.22-1.056V76.4zm10.18 2.376l1.826-3.432 1.76-3.234h2.09V83h-2.332v-5.962h-.11l-2.53 4.554h-1.584l-1.21-2.244-1.188-2.244h-.132V83h-2.332V72.11h2.134l1.738 3.278 1.738 3.388h.132zm17.073.374c0 .645-.132 1.217-.396 1.716-.25.499-.594.917-1.034 1.254a4.811 4.811 0 0 1-1.474.748 6.534 6.534 0 0 1-3.52 0 4.814 4.814 0 0 1-1.474-.748 3.798 3.798 0 0 1-.99-1.254c-.25-.499-.374-1.07-.374-1.716v-3.168c0-.645.125-1.217.374-1.716a3.92 3.92 0 0 1 1.034-1.254 4.555 4.555 0 0 1 1.474-.77 5.81 5.81 0 0 1 1.76-.264c.66 0 1.269.088 1.826.264.558.176 1.041.44 1.452.792.425.337.755.755.99 1.254s.352 1.07.352 1.716v3.146zm-2.31-2.75c0-.41-.073-.755-.22-1.034a1.858 1.858 0 0 0-1.276-1.078 2.696 2.696 0 0 0-.814-.132c-.264 0-.535.044-.814.132a1.997 1.997 0 0 0-.748.374c-.22.176-.403.41-.55.704-.132.279-.198.623-.198 1.034v2.31c0 .821.227 1.4.682 1.738.455.337.998.506 1.628.506.264 0 .535-.037.814-.11.279-.088.528-.22.748-.396.22-.176.396-.403.528-.682.147-.293.22-.645.22-1.056V76.4zm13.348 3.322c0 .425-.073.836-.22 1.232a3.065 3.065 0 0 1-.66 1.056c-.293.293-.66.535-1.1.726-.44.176-.953.264-1.54.264h-5.522V72.11h5.478c.572 0 1.071.08 1.496.242.425.161.77.381 1.034.66.279.264.484.58.616.946.147.352.22.726.22 1.122 0 .425-.125.85-.374 1.276-.235.425-.565.74-.99.946.513.235.902.572 1.166 1.012.264.44.396.91.396 1.408zm-2.376-.066c0-.41-.147-.733-.44-.968a1.636 1.636 0 0 0-1.056-.352h-2.816v2.706h2.684c.557 0 .968-.125 1.232-.374.264-.25.396-.587.396-1.012zm-.154-4.4c0-.396-.147-.682-.44-.858a1.711 1.711 0 0 0-.99-.286h-2.728v2.266h2.794c.425 0 .755-.095.99-.286.249-.205.374-.484.374-.836zM119.278 83v-4.51h-4.598V83h-2.31V72.11h2.31v4.356h4.598V72.11h2.354V83h-2.354zm11.252-.99c-.777.44-1.437.733-1.98.88a6.098 6.098 0 0 1-1.474.198c-1.085 0-1.936-.293-2.552-.88-.616-.587-.924-1.393-.924-2.42 0-.601.132-1.107.396-1.518.264-.41.594-.74.99-.99a4.165 4.165 0 0 1 1.276-.572c.47-.117.902-.176 1.298-.176h3.014v-.66c0-.645-.183-1.107-.55-1.386-.366-.279-.931-.418-1.694-.418-.366 0-.821.059-1.364.176-.528.103-1.063.374-1.606.814l-1.078-1.738c.734-.557 1.467-.917 2.2-1.078a9.082 9.082 0 0 1 2.068-.264c1.496 0 2.596.33 3.3.99.704.66 1.056 1.665 1.056 3.014V83h-2.112l-.198-.946-.066-.044zm.044-3.674h-2.618c-.205 0-.418.015-.638.044-.22.03-.425.095-.616.198a1.31 1.31 0 0 0-.462.396c-.117.176-.176.418-.176.726 0 .41.147.733.44.968.294.22.682.33 1.166.33.264 0 .528-.03.792-.088.264-.073.521-.154.77-.242a6.73 6.73 0 0 0 .726-.33c.235-.117.44-.227.616-.33v-1.672zm16.035 1.65c-.25.645-.506 1.173-.77 1.584-.264.41-.55.74-.858.99a2.706 2.706 0 0 1-.99.484 4.613 4.613 0 0 1-1.122.132h-1.65v-2.134h1.32c.366 0 .66-.066.88-.198.22-.132.425-.389.616-.77l.198-.396c-.792-1.965-1.57-3.93-2.332-5.896-.763-1.98-1.533-3.96-2.31-5.94h2.618c.044.132.146.425.308.88.176.44.374.968.594 1.584.22.601.454 1.247.704 1.936.249.675.484 1.32.704 1.936.22.601.41 1.137.572 1.606.161.455.271.755.33.902h.11c.073-.235.19-.587.352-1.056.176-.47.366-.997.572-1.584a65.1 65.1 0 0 0 .66-1.848l.66-1.826c.22-.572.41-1.085.572-1.54.161-.455.278-.785.352-.99h2.508l-4.598 12.144zm23.164-12.144V83h-17.16V67.842h2.508v12.914h4.796V67.842h2.486v12.914h4.84V67.842h2.53zM181.094 83V70.108h-6.358V83h-2.508V67.842h11.418V83h-2.552zm16.433-3.014c-.25.645-.506 1.173-.77 1.584-.264.41-.55.74-.858.99a2.706 2.706 0 0 1-.99.484 4.613 4.613 0 0 1-1.122.132h-1.65v-2.134h1.32c.366 0 .66-.066.88-.198.22-.132.425-.389.616-.77l.198-.396c-.792-1.965-1.57-3.93-2.332-5.896-.763-1.98-1.533-3.96-2.31-5.94h2.618c.044.132.146.425.308.88.176.44.374.968.594 1.584.22.601.454 1.247.704 1.936.249.675.484 1.32.704 1.936.22.601.41 1.137.572 1.606.161.455.271.755.33.902h.11c.073-.235.19-.587.352-1.056.176-.47.366-.997.572-1.584a65.1 65.1 0 0 0 .66-1.848l.66-1.826c.22-.572.41-1.085.572-1.54.161-.455.278-.785.352-.99h2.508l-4.598 12.144zm14.628-11.572c.895.03 1.716.198 2.464.506.748.293 1.386.69 1.914 1.188a5.066 5.066 0 0 1 1.232 1.738c.294.66.44 1.371.44 2.134v2.09c0 .792-.146 1.525-.44 2.2a5.254 5.254 0 0 1-1.21 1.782c-.513.499-1.144.902-1.892 1.21-.748.293-1.584.455-2.508.484V83h-2.53v-1.254c-.938-.044-1.782-.213-2.53-.506a5.873 5.873 0 0 1-1.914-1.188 5.251 5.251 0 0 1-1.188-1.738 5.719 5.719 0 0 1-.418-2.2V73.98a5.2 5.2 0 0 1 .44-2.134 5.334 5.334 0 0 1 1.254-1.738 6.207 6.207 0 0 1 1.914-1.188 6.97 6.97 0 0 1 2.442-.506v-.726h2.53v.726zm3.564 5.808c0-.528-.088-1.005-.264-1.43a3.345 3.345 0 0 0-.726-1.1 3.043 3.043 0 0 0-1.122-.704 4.195 4.195 0 0 0-1.452-.286v8.778a4.288 4.288 0 0 0 1.408-.264c.44-.176.822-.41 1.144-.704a3.18 3.18 0 0 0 .748-1.1c.176-.425.264-.91.264-1.452v-1.738zm-9.658 1.738c0 .543.088 1.027.264 1.452.191.425.448.792.77 1.1.323.293.697.528 1.122.704.44.161.91.25 1.408.264v-8.778a4.14 4.14 0 0 0-1.43.286 3.31 3.31 0 0 0-1.122.704 3.194 3.194 0 0 0-.748 1.1 3.708 3.708 0 0 0-.264 1.43v1.738zm23.303-7.546c.895.03 1.716.198 2.464.506.748.293 1.386.69 1.914 1.188a5.066 5.066 0 0 1 1.232 1.738c.294.66.44 1.371.44 2.134v2.09c0 .792-.146 1.525-.44 2.2a5.254 5.254 0 0 1-1.21 1.782c-.513.499-1.144.902-1.892 1.21-.748.293-1.584.455-2.508.484V83h-2.53v-1.254c-.938-.044-1.782-.213-2.53-.506a5.873 5.873 0 0 1-1.914-1.188 5.251 5.251 0 0 1-1.188-1.738 5.719 5.719 0 0 1-.418-2.2V73.98a5.2 5.2 0 0 1 .44-2.134 5.334 5.334 0 0 1 1.254-1.738 6.207 6.207 0 0 1 1.914-1.188 6.97 6.97 0 0 1 2.442-.506v-.726h2.53v.726zm3.564 5.808c0-.528-.088-1.005-.264-1.43a3.345 3.345 0 0 0-.726-1.1 3.043 3.043 0 0 0-1.122-.704 4.195 4.195 0 0 0-1.452-.286v8.778a4.288 4.288 0 0 0 1.408-.264c.44-.176.822-.41 1.144-.704a3.18 3.18 0 0 0 .748-1.1c.176-.425.264-.91.264-1.452v-1.738zm-9.658 1.738c0 .543.088 1.027.264 1.452.191.425.448.792.77 1.1.323.293.697.528 1.122.704.44.161.91.25 1.408.264v-8.778a4.14 4.14 0 0 0-1.43.286 3.31 3.31 0 0 0-1.122.704 3.194 3.194 0 0 0-.748 1.1 3.708 3.708 0 0 0-.264 1.43v1.738zm25.901-5.83V83h-2.53V70.13h-4.202v-2.288h10.912v2.288h-4.18zm12.285 11.88c-.777.44-1.437.733-1.98.88a6.098 6.098 0 0 1-1.474.198c-1.085 0-1.936-.293-2.552-.88-.616-.587-.924-1.393-.924-2.42 0-.601.132-1.107.396-1.518.264-.41.594-.74.99-.99a4.155 4.155 0 0 1 1.276-.572 5.38 5.38 0 0 1 1.298-.176h3.014v-.66c0-.645-.183-1.107-.55-1.386-.367-.279-.931-.418-1.694-.418-.367 0-.821.059-1.364.176-.528.103-1.063.374-1.606.814l-1.078-1.738c.733-.557 1.467-.917 2.2-1.078a9.076 9.076 0 0 1 2.068-.264c1.496 0 2.596.33 3.3.99.704.66 1.056 1.665 1.056 3.014V83h-2.112l-.198-.946-.066-.044zm.044-3.674h-2.618c-.205 0-.418.015-.638.044-.22.03-.425.095-.616.198a1.31 1.31 0 0 0-.462.396c-.117.176-.176.418-.176.726 0 .41.147.733.44.968.293.22.682.33 1.166.33.264 0 .528-.03.792-.088.264-.073.521-.154.77-.242a6.73 6.73 0 0 0 .726-.33c.235-.117.44-.227.616-.33v-1.672zm10.247.44l1.826-3.432 1.76-3.234h2.09V83h-2.332v-5.962h-.11l-2.53 4.554h-1.584l-1.21-2.244-1.188-2.244h-.132V83h-2.332V72.11h2.134l1.738 3.278 1.738 3.388h.132zm10.385-5.346c.176-.161.374-.293.594-.396.22-.117.44-.213.66-.286a4.42 4.42 0 0 1 1.254-.198c1.335 0 2.369.345 3.102 1.034.748.69 1.122 1.709 1.122 3.058v2.376c0 .66-.132 1.247-.396 1.76a3.89 3.89 0 0 1-1.012 1.276 4.85 4.85 0 0 1-1.496.792 5.881 5.881 0 0 1-1.782.264c-1.422 0-2.552-.352-3.388-1.056-.821-.704-1.232-1.716-1.232-3.036v-2.882c0-.675.022-1.29.066-1.848.044-.572.125-1.1.242-1.584a7.295 7.295 0 0 1 1.276-2.574c.235-.293.514-.55.836-.77a6.68 6.68 0 0 1 1.034-.616c.367-.19.748-.367 1.144-.528l1.144-.462c.191-.073.367-.14.528-.198.162-.073.323-.14.484-.198.162-.073.33-.147.506-.22.176-.073.374-.161.594-.264l.792 1.914c-.352.161-.652.293-.902.396l-.638.242c-.176.073-.344.14-.506.198-.146.059-.315.125-.506.198-.528.22-.997.433-1.408.638-.41.205-.77.44-1.078.704-.293.25-.535.55-.726.902-.176.352-.3.777-.374 1.276l.066.088zm4.4 3.542c0-.821-.212-1.4-.638-1.738-.425-.337-.975-.506-1.65-.506-.264 0-.535.044-.814.132a2.33 2.33 0 0 0-.77.418c-.22.19-.403.433-.55.726-.132.293-.198.645-.198 1.056v1.65c0 .41.059.763.176 1.056.132.279.301.506.506.682.206.176.448.308.726.396.294.073.594.11.902.11.294 0 .58-.037.858-.11.279-.088.521-.22.726-.396.22-.176.396-.403.528-.682.132-.293.198-.645.198-1.056v-1.738zM300.1 79.15c0 .645-.132 1.217-.396 1.716a3.58 3.58 0 0 1-1.034 1.254 4.824 4.824 0 0 1-1.474.748 6.534 6.534 0 0 1-3.52 0 4.801 4.801 0 0 1-1.474-.748 3.788 3.788 0 0 1-.99-1.254c-.25-.499-.374-1.07-.374-1.716v-3.168c0-.645.124-1.217.374-1.716a3.91 3.91 0 0 1 1.034-1.254 4.543 4.543 0 0 1 1.474-.77 5.809 5.809 0 0 1 1.76-.264c.66 0 1.268.088 1.826.264.557.176 1.041.44 1.452.792.425.337.755.755.99 1.254.234.499.352 1.07.352 1.716v3.146zm-2.31-2.75c0-.41-.074-.755-.22-1.034a1.858 1.858 0 0 0-1.276-1.078 2.698 2.698 0 0 0-.814-.132c-.264 0-.536.044-.814.132a1.994 1.994 0 0 0-.748.374 2.06 2.06 0 0 0-.55.704c-.132.279-.198.623-.198 1.034v2.31c0 .821.227 1.4.682 1.738.454.337.997.506 1.628.506.264 0 .535-.037.814-.11.278-.088.528-.22.748-.396.22-.176.396-.403.528-.682.146-.293.22-.645.22-1.056V76.4zm13.347 3.322c0 .425-.073.836-.22 1.232a3.035 3.035 0 0 1-.66 1.056c-.293.293-.66.535-1.1.726-.44.176-.953.264-1.54.264h-5.522V72.11h5.478c.572 0 1.071.08 1.496.242.426.161.77.381 1.034.66.279.264.484.58.616.946.147.352.22.726.22 1.122 0 .425-.124.85-.374 1.276-.234.425-.564.74-.99.946.514.235.902.572 1.166 1.012.264.44.396.91.396 1.408zm-2.376-.066c0-.41-.146-.733-.44-.968a1.636 1.636 0 0 0-1.056-.352h-2.816v2.706h2.684c.558 0 .968-.125 1.232-.374.264-.25.396-.587.396-1.012zm-.154-4.4c0-.396-.146-.682-.44-.858a1.707 1.707 0 0 0-.99-.286h-2.728v2.266h2.794c.426 0 .756-.095.99-.286.25-.205.374-.484.374-.836z" fill="#2B2A29"/><defs><filter id="a" x="0" y="0" width="382" height="216" filterUnits="userSpaceOnUse" color-interpolation-filters="sRGB"><feFlood flood-opacity="0" result="BackgroundImageFix"/><feColorMatrix in="SourceAlpha" values="0 0 0 0 0 0 0 0 0 0 0 0 0 0 0 0 0 0 127 0"/><feOffset dy="4"/><feGaussianBlur stdDeviation="3"/><feColorMatrix values="0 0 0 0 0 0 0 0 0 0 0 0 0 0 0 0 0 0 0.1 0"/><feBlend in2="BackgroundImageFix" result="effect1_dropShadow"/><feBlend in="SourceGraphic" in2="effect1_dropShadow" result="shape"/><feColorMatrix in="SourceAlpha" values="0 0 0 0 0 0 0 0 0 0 0 0 0 0 0 0 0 0 127 0" result="hardAlpha"/><feOffset dy="4"/><feComposite in2="hardAlpha" operator="arithmetic" k2="-1" k3="1"/><feColorMatrix values="0 0 0 0 0.996078 0 0 0 0 0.8 0 0 0 0 0 0 0 0 1 0"/><feBlend in2="shape" result="effect2_innerShadow"/></filter></defs></svg>