<svg width="60" height="60" viewBox="0 0 60 60" fill="none" xmlns="http://www.w3.org/2000/svg">
<path fill-rule="evenodd" clip-rule="evenodd" d="M30 60C46.5685 60 60 46.5685 60 30C60 13.4315 46.5685 0 30 0C13.4315 0 0 13.4315 0 30C0 46.5685 13.4315 60 30 60Z" fill="#FECC00"/>
<path fill-rule="evenodd" clip-rule="evenodd" d="M35.8233 33.9099L41.6339 39.8472C42.1255 40.3495 42.1092 41.1503 41.5983 41.6333C41.3579 41.8606 41.0412 41.9857 40.7073 41.9857C40.3546 41.9857 40.0255 41.848 39.7808 41.5983L33.9261 35.616C32.2636 36.7638 30.3192 37.3684 28.2788 37.3684C22.8436 37.3684 18.4216 33.024 18.4216 27.6842C18.4216 22.3444 22.8436 18 28.2788 18C33.7139 18 38.1359 22.3444 38.1359 27.6842C38.1359 29.9697 37.3173 32.1651 35.8233 33.9099ZM35.5645 27.6842C35.5645 23.7373 32.2962 20.5263 28.2788 20.5263C24.2613 20.5263 20.9931 23.7373 20.9931 27.6842C20.9931 31.6312 24.2613 34.8421 28.2788 34.8421C32.2962 34.8421 35.5645 31.6312 35.5645 27.6842Z" fill="#2B2A29"/>
</svg>
