<svg width="60" height="60" viewBox="0 0 60 60" fill="none" xmlns="http://www.w3.org/2000/svg"><path fill-rule="evenodd" clip-rule="evenodd" d="M30 60c16.569 0 30-13.431 30-30C60 13.431 46.569 0 30 0 13.431 0 0 13.431 0 30c0 16.569 13.431 30 30 30z" fill="#FECC00"/><path fill-rule="evenodd" clip-rule="evenodd" d="M35.823 33.91l5.81 5.937a1.249 1.249 0 0 1-.035 1.786c-.24.228-.557.353-.89.353-.353 0-.682-.138-.927-.388l-5.855-5.982a9.872 9.872 0 0 1-5.647 1.752c-5.435 0-9.857-4.344-9.857-9.684 0-5.34 4.422-9.684 9.857-9.684s9.857 4.344 9.857 9.684c0 2.286-.819 4.481-2.313 6.226zm-.258-6.226c0-3.947-3.269-7.158-7.286-7.158-4.018 0-7.286 3.211-7.286 7.158 0 3.947 3.268 7.158 7.286 7.158 4.017 0 7.286-3.21 7.286-7.158z" fill="#2B2A29"/></svg>