<svg width="228" height="48" viewBox="0 0 228 48" fill="none" xmlns="http://www.w3.org/2000/svg">
<path fill-rule="evenodd" clip-rule="evenodd" d="M14.273 7.79683L15.3098 7.46467H15.3252L38.4902 0.0878042C39.2485 -0.14748 40.0995 0.101644 40.5483 0.696776L40.5638 0.710616L52.5563 15.2983L52.5718 15.3121C52.6956 15.4505 52.7884 15.6027 52.8503 15.7688C52.9277 15.9349 52.9586 16.1148 52.9586 16.2948V17.2913V37.9409C52.9586 38.6468 52.417 39.2834 51.6588 39.4772L51.6279 39.4911L27.7046 47.117L27.6737 47.1309C27.4571 47.2139 27.2249 47.2554 26.9774 47.2554C26.7143 47.2554 26.4512 47.2001 26.2191 47.1032L26.1727 47.0894L2.17211 39.3665C1.46029 39.145 0.996065 38.5361 0.996065 37.8717V36.8752H0.980591V18.8137C0.980591 18.3016 1.25913 17.831 1.70788 17.5265L1.73883 17.4989L13.6076 8.17052L13.6231 8.15668C13.654 8.13593 13.6849 8.11172 13.7159 8.08751L13.7159 8.0875L13.7159 8.08748C13.7469 8.06326 13.7778 8.03904 13.8088 8.01828C13.948 7.9214 14.1028 7.8522 14.273 7.79683ZM38.4283 3.49251L17.7237 10.0805L27.6273 22.1215L48.3318 15.5335L38.4283 3.49251ZM25.1823 43.394L4.55515 36.7507V19.5057L14.5825 11.6306L25.1823 24.5297V43.394ZM49.3841 36.8337V18.5646L28.7569 25.1387V43.4078L49.3841 36.8337Z" fill="#FECC00"/>
<path fill-rule="evenodd" clip-rule="evenodd" d="M86.9374 23.6283C86.9374 28.3299 90.395 32.6816 96.3188 32.6816C102.436 32.6816 105.942 28.1331 105.942 23.4315C105.942 18.7517 102.533 14.4 96.5606 14.4C90.7818 14.4 86.9374 18.5768 86.9374 23.6283ZM65.7806 31.9599C65.7806 32.8784 66.7236 33.6 67.8842 33.6C68.8756 33.6 69.6977 33.1408 70.0362 32.4848H80.4332C80.6991 33.1408 81.4971 33.6 82.44 33.6C83.7457 33.6 84.7854 32.7472 84.7854 31.7631V30.6479C84.7854 29.6857 83.915 29.0296 82.6818 29.0296H82.44V16.2807C82.44 15.3185 81.5696 14.6406 80.3606 14.6406H72.1881C71.0517 14.6406 69.8427 15.4059 69.8427 16.4775C69.8427 17.1772 70.3988 17.7677 71.2209 17.9864C70.8099 21.7695 69.4559 26.3399 68.4645 29.0078H68.1502C66.8929 29.0078 65.8048 29.8169 65.8048 30.8228V31.9381L65.7806 31.9599ZM75.6215 18.0957H77.9911V29.0296H72.9618C74.0741 25.8807 75.2588 21.4415 75.5974 18.0957H75.6215ZM96.3188 17.8333C92.7403 17.8333 91.3863 21.0479 91.3863 23.4315C91.3863 26.7991 93.5624 29.2483 96.5606 29.2483C99.7281 29.2483 101.493 26.5804 101.493 23.6283C101.493 20.37 99.4138 17.8333 96.3188 17.8333ZM115.735 24.9403H114.405V24.9622V29.0296H115.807C116.895 29.0296 119.047 28.6141 119.047 26.9522C119.047 25.7495 117.693 24.9403 115.735 24.9403ZM108.529 16.4556C108.529 17.1772 109.134 17.7895 109.98 17.9863V30.8228C109.98 31.785 110.85 32.4629 112.059 32.4629H115.565C118.128 32.4629 123.472 31.4132 123.472 26.9084V26.8428C123.472 23.672 120.208 21.5508 115.976 21.5508H114.405V18.1176H117.742C118.104 18.6642 118.805 19.0141 119.628 19.0141C120.933 19.0141 121.973 18.1613 121.973 17.1772V16.3025C121.973 15.3403 121.102 14.6624 119.869 14.6624H110.826C109.698 14.6624 108.521 15.4173 108.505 16.4773L108.505 16.4775V16.4993L108.505 16.4773L108.529 16.4556ZM133.168 18.0957H131.886V22.7754C132.297 22.7973 132.829 22.8192 133.506 22.8192C134.933 22.8192 136.118 21.9444 136.118 20.5449C136.118 19.0579 134.788 18.0957 133.168 18.0957ZM125.962 16.4775C125.962 17.1991 126.567 17.8114 127.413 18.0082V30.8228C127.413 31.785 128.284 32.4629 129.517 32.4629H130.968C132.128 32.4629 133.313 31.6975 133.313 30.626C133.313 29.9044 132.708 29.2921 131.862 29.0952V26.1868C132.418 26.2305 132.926 26.2524 133.24 26.2524C137.278 26.2524 140.542 23.6064 140.542 20.3262C140.542 16.9148 137.206 14.6187 133.385 14.6187H128.284C127.123 14.6187 125.938 15.3841 125.938 16.4556L125.962 16.4775ZM151.375 17.8333C147.796 17.8333 146.442 21.0479 146.442 23.4315C146.442 26.7991 148.618 29.2483 151.616 29.2483C154.784 29.2483 156.549 26.5804 156.549 23.6283C156.549 20.37 154.47 17.8333 151.375 17.8333ZM141.993 23.6283C141.993 28.3299 145.451 32.6816 151.375 32.6816C157.492 32.6816 160.998 28.1331 160.998 23.4315C160.998 18.7517 157.589 14.4 151.616 14.4C145.838 14.4 141.993 18.5768 141.993 23.6283ZM173.45 18.0957H171.081H171.056C170.718 21.4415 169.533 25.8807 168.421 29.0296H173.45V18.0957ZM161.24 31.9599C161.24 32.8784 162.183 33.6 163.343 33.6C164.335 33.6 165.157 33.1408 165.495 32.4848H175.892C176.158 33.1408 176.956 33.6 177.899 33.6C179.205 33.6 180.245 32.7472 180.245 31.7631V30.6479C180.245 29.6857 179.374 29.0296 178.141 29.0296H177.899V16.2807C177.899 15.3185 177.029 14.6406 175.82 14.6406H167.647C166.511 14.6406 165.302 15.4059 165.302 16.4775C165.302 17.1772 165.858 17.7677 166.68 17.9864C166.269 21.7695 164.915 26.3399 163.924 29.0078H163.609C162.352 29.0078 161.264 29.8169 161.264 30.8228V31.9381L161.24 31.9599ZM191.778 17.8333C188.199 17.8333 186.845 21.0479 186.845 23.4315C186.845 26.7991 189.022 29.2483 192.02 29.2483C195.187 29.2483 196.952 26.5804 196.952 23.6283C196.952 20.37 194.873 17.8333 191.778 17.8333ZM182.396 23.6283C182.396 28.3299 185.854 32.6816 191.778 32.6816C197.895 32.6816 201.401 28.1331 201.401 23.4315C201.401 18.7517 197.992 14.4 192.02 14.4C186.241 14.4 182.396 18.5768 182.396 23.6283ZM205.294 18.0301C204.399 17.8551 203.771 17.2428 203.771 16.4775C203.771 15.4059 204.956 14.6406 206.116 14.6406H207.688C208.558 14.6406 209.211 14.9467 209.574 15.559L215.715 26.4055L222.147 15.6684C222.558 15.0123 223.307 14.6406 224.202 14.6406C225.459 14.6406 226.33 15.3185 226.33 16.2807V29.0952C227.176 29.292 227.781 29.9043 227.781 30.626C227.781 31.6975 226.596 32.4629 225.435 32.4629H223.985C222.776 32.4629 221.905 31.785 221.905 30.8228V22.8629L217.625 30.298C217.408 30.6916 216.755 31.3258 215.498 31.3258C214.651 31.3258 213.95 31.0196 213.636 30.4073L209.719 22.9285V30.8665C209.719 31.8506 208.703 32.6816 207.398 32.6816C206.213 32.6816 205.294 31.9599 205.294 31.0415V18.0301Z" fill="#FECC00"/>
</svg>
