<svg width="382" height="216" viewBox="0 0 382 216" fill="none" xmlns="http://www.w3.org/2000/svg">
<g filter="url(#filter0_di)">
<path fill-rule="evenodd" clip-rule="evenodd" d="M6 2H376V198H191H98.5H52.25H29.125H17.5625L6 206V2Z" fill="white"/>
</g>
<mask id="mask0" mask-type="alpha" maskUnits="userSpaceOnUse" x="6" y="2" width="370" height="204">
<path fill-rule="evenodd" clip-rule="evenodd" d="M6 2H376V198H191H98.5H52.25H29.125H17.5625L6 206V2Z" fill="white"/>
</mask>
<g mask="url(#mask0)">
</g>
<g opacity="0.8">
<path d="M48.754 113.11V124H47.098V111.598H55.378V113.11H48.754ZM63.4725 120.85C63.4725 121.366 63.3705 121.828 63.1665 122.236C62.9745 122.632 62.7045 122.968 62.3565 123.244C62.0205 123.52 61.6305 123.73 61.1865 123.874C60.7425 124.018 60.2685 124.09 59.7645 124.09C59.2485 124.09 58.7685 124.018 58.3245 123.874C57.8805 123.73 57.4905 123.52 57.1545 123.244C56.8305 122.968 56.5725 122.632 56.3805 122.236C56.1885 121.828 56.0925 121.366 56.0925 120.85V118.258C56.0925 117.742 56.1885 117.286 56.3805 116.89C56.5845 116.482 56.8485 116.14 57.1725 115.864C57.5085 115.576 57.8985 115.36 58.3425 115.216C58.7985 115.06 59.2785 114.982 59.7825 114.982C60.3225 114.982 60.8145 115.06 61.2585 115.216C61.7145 115.36 62.1045 115.576 62.4285 115.864C62.7645 116.14 63.0225 116.482 63.2025 116.89C63.3825 117.286 63.4725 117.742 63.4725 118.258V120.85ZM61.9425 118.528C61.9425 118.144 61.8765 117.82 61.7445 117.556C61.6125 117.28 61.4385 117.058 61.2225 116.89C61.0185 116.722 60.7905 116.602 60.5385 116.53C60.2865 116.458 60.0405 116.422 59.8005 116.422C59.5485 116.422 59.2965 116.458 59.0445 116.53C58.7925 116.602 58.5585 116.722 58.3425 116.89C58.1385 117.058 57.9705 117.28 57.8385 117.556C57.7065 117.82 57.6405 118.144 57.6405 118.528V120.544C57.6405 120.928 57.6945 121.258 57.8025 121.534C57.9225 121.798 58.0785 122.014 58.2705 122.182C58.4625 122.35 58.6905 122.47 58.9545 122.542C59.2185 122.614 59.5005 122.65 59.8005 122.65C60.0405 122.65 60.2865 122.614 60.5385 122.542C60.7905 122.47 61.0185 122.35 61.2225 122.182C61.4385 122.014 61.6125 121.798 61.7445 121.534C61.8765 121.258 61.9425 120.928 61.9425 120.544V118.528ZM66.5664 115.09L66.7464 116.026C67.4544 115.606 68.0184 115.33 68.4384 115.198C68.8704 115.066 69.2484 115 69.5724 115C70.4484 115 71.1624 115.258 71.7144 115.774C72.2784 116.29 72.5604 117.094 72.5604 118.186V120.922C72.5604 121.942 72.2784 122.728 71.7144 123.28C71.1624 123.832 70.4004 124.108 69.4284 124.108C69.1044 124.108 68.7264 124.072 68.2944 124C67.8624 123.94 67.3464 123.79 66.7464 123.55V127.564H65.2164V115.09H66.5664ZM66.7464 122.092C67.2984 122.32 67.7664 122.47 68.1504 122.542C68.5344 122.614 68.9124 122.65 69.2844 122.65C69.5244 122.65 69.7464 122.626 69.9504 122.578C70.1664 122.518 70.3524 122.422 70.5084 122.29C70.6644 122.146 70.7844 121.96 70.8684 121.732C70.9644 121.492 71.0124 121.198 71.0124 120.85V118.294C71.0124 117.61 70.8684 117.142 70.5804 116.89C70.2924 116.626 69.9084 116.494 69.4284 116.494C69.2604 116.494 69.0624 116.524 68.8344 116.584C68.6064 116.644 68.3664 116.722 68.1144 116.818C67.8744 116.914 67.6344 117.028 67.3944 117.16C67.1544 117.28 66.9384 117.406 66.7464 117.538V122.092ZM81.6131 120.85C81.6131 121.366 81.5111 121.828 81.3071 122.236C81.1151 122.632 80.8451 122.968 80.4971 123.244C80.1611 123.52 79.7711 123.73 79.3271 123.874C78.8831 124.018 78.4091 124.09 77.9051 124.09C77.3891 124.09 76.9091 124.018 76.4651 123.874C76.0211 123.73 75.6311 123.52 75.2951 123.244C74.9711 122.968 74.7131 122.632 74.5211 122.236C74.3291 121.828 74.2331 121.366 74.2331 120.85V118.258C74.2331 117.742 74.3291 117.286 74.5211 116.89C74.7251 116.482 74.9891 116.14 75.3131 115.864C75.6491 115.576 76.0391 115.36 76.4831 115.216C76.9391 115.06 77.4191 114.982 77.9231 114.982C78.4631 114.982 78.9551 115.06 79.3991 115.216C79.8551 115.36 80.2451 115.576 80.5691 115.864C80.9051 116.14 81.1631 116.482 81.3431 116.89C81.5231 117.286 81.6131 117.742 81.6131 118.258V120.85ZM80.0831 118.528C80.0831 118.144 80.0171 117.82 79.8851 117.556C79.7531 117.28 79.5791 117.058 79.3631 116.89C79.1591 116.722 78.9311 116.602 78.6791 116.53C78.4271 116.458 78.1811 116.422 77.9411 116.422C77.6891 116.422 77.4371 116.458 77.1851 116.53C76.9331 116.602 76.6991 116.722 76.4831 116.89C76.2791 117.058 76.1111 117.28 75.9791 117.556C75.8471 117.82 75.7811 118.144 75.7811 118.528V120.544C75.7811 120.928 75.8351 121.258 75.9431 121.534C76.0631 121.798 76.2191 122.014 76.4111 122.182C76.6031 122.35 76.8311 122.47 77.0951 122.542C77.3591 122.614 77.6411 122.65 77.9411 122.65C78.1811 122.65 78.4271 122.614 78.6791 122.542C78.9311 122.47 79.1591 122.35 79.3631 122.182C79.5791 122.014 79.7531 121.798 79.8851 121.534C80.0171 121.258 80.0831 120.928 80.0831 120.544V118.528ZM86.237 116.458L86.129 118.816C86.081 119.752 86.003 120.526 85.895 121.138C85.799 121.738 85.619 122.242 85.355 122.65H89.783V116.458H86.237ZM83.321 122.668C83.537 122.524 83.723 122.356 83.879 122.164C84.035 121.96 84.167 121.714 84.275 121.426C84.383 121.126 84.467 120.772 84.527 120.364C84.587 119.944 84.635 119.446 84.671 118.87L84.887 115.09H91.331V122.65L92.069 122.668V126.286H90.611V124H84.167V126.286H82.709V122.704L83.321 122.668ZM102.591 113.128V124H100.917V113.128H97.3349V111.598H106.155V113.128H102.591ZM112.931 123.136C112.223 123.532 111.641 123.79 111.185 123.91C110.741 124.018 110.339 124.072 109.979 124.072C109.115 124.072 108.425 123.832 107.909 123.352C107.393 122.872 107.135 122.218 107.135 121.39C107.135 120.898 107.243 120.484 107.459 120.148C107.687 119.812 107.963 119.542 108.287 119.338C108.623 119.122 108.977 118.972 109.349 118.888C109.733 118.792 110.075 118.744 110.375 118.744H112.985V118.06C112.985 117.436 112.811 117.004 112.463 116.764C112.115 116.512 111.617 116.386 110.969 116.386C110.657 116.386 110.273 116.434 109.817 116.53C109.373 116.614 108.923 116.842 108.467 117.214L107.711 116.044C108.287 115.6 108.869 115.312 109.457 115.18C110.045 115.048 110.591 114.982 111.095 114.982C112.259 114.982 113.117 115.24 113.669 115.756C114.233 116.26 114.515 117.04 114.515 118.096V124H113.165L112.985 123.172L112.931 123.136ZM112.985 120.022H110.627C110.435 120.022 110.225 120.04 109.997 120.076C109.781 120.1 109.577 120.16 109.385 120.256C109.193 120.34 109.031 120.478 108.899 120.67C108.779 120.85 108.719 121.09 108.719 121.39C108.719 121.822 108.863 122.146 109.151 122.362C109.451 122.578 109.829 122.686 110.285 122.686C110.513 122.686 110.747 122.656 110.987 122.596C111.239 122.524 111.479 122.44 111.707 122.344C111.947 122.248 112.175 122.146 112.391 122.038C112.607 121.918 112.805 121.81 112.985 121.714V120.022ZM123.697 118.366L122.725 120.202L121.303 122.722H120.241L119.071 120.616L117.955 118.492H117.883V124H116.317V115.09H117.757L119.557 118.474L120.799 120.886L122.077 118.492L123.949 115.09H125.353V124H123.787V118.366H123.697ZM128.889 116.296C129.045 116.14 129.225 116.008 129.429 115.9C129.633 115.792 129.837 115.708 130.041 115.648C130.245 115.576 130.437 115.528 130.617 115.504C130.809 115.48 130.971 115.468 131.103 115.468C132.231 115.468 133.083 115.756 133.659 116.332C134.247 116.908 134.541 117.712 134.541 118.744V120.76C134.541 121.276 134.439 121.744 134.235 122.164C134.043 122.572 133.773 122.92 133.425 123.208C133.089 123.496 132.699 123.718 132.255 123.874C131.811 124.018 131.337 124.09 130.833 124.09C129.681 124.09 128.781 123.796 128.133 123.208C127.485 122.62 127.161 121.804 127.161 120.76V118.204C127.161 117.688 127.185 117.166 127.233 116.638C127.293 116.098 127.401 115.588 127.557 115.108C127.713 114.616 127.935 114.16 128.223 113.74C128.511 113.32 128.889 112.966 129.357 112.678C129.741 112.438 130.161 112.228 130.617 112.048C131.073 111.868 131.511 111.694 131.931 111.526C132.075 111.466 132.195 111.418 132.291 111.382C132.399 111.334 132.507 111.286 132.615 111.238C132.723 111.19 132.837 111.136 132.957 111.076C133.089 111.016 133.251 110.944 133.443 110.86L134.001 112.156C133.641 112.312 133.353 112.438 133.137 112.534C132.921 112.618 132.735 112.69 132.579 112.75C132.435 112.81 132.303 112.864 132.183 112.912C132.063 112.948 131.925 113.002 131.769 113.074C131.265 113.29 130.845 113.488 130.509 113.668C130.173 113.848 129.891 114.052 129.663 114.28C129.435 114.508 129.261 114.778 129.141 115.09C129.021 115.39 128.925 115.768 128.853 116.224L128.889 116.296ZM133.011 119.014C133.011 118.234 132.819 117.688 132.435 117.376C132.051 117.064 131.529 116.908 130.869 116.908C130.617 116.908 130.365 116.95 130.113 117.034C129.861 117.118 129.627 117.25 129.411 117.43C129.207 117.598 129.039 117.82 128.907 118.096C128.775 118.372 128.709 118.702 128.709 119.086V120.544C128.709 120.928 128.763 121.258 128.871 121.534C128.991 121.798 129.147 122.014 129.339 122.182C129.531 122.35 129.759 122.47 130.023 122.542C130.287 122.614 130.569 122.65 130.869 122.65C131.145 122.65 131.409 122.614 131.661 122.542C131.925 122.47 132.153 122.35 132.345 122.182C132.549 122.014 132.711 121.798 132.831 121.534C132.951 121.258 133.011 120.928 133.011 120.544V119.014ZM143.646 120.85C143.646 121.366 143.544 121.828 143.34 122.236C143.148 122.632 142.878 122.968 142.53 123.244C142.194 123.52 141.804 123.73 141.36 123.874C140.916 124.018 140.442 124.09 139.938 124.09C139.422 124.09 138.942 124.018 138.498 123.874C138.054 123.73 137.664 123.52 137.328 123.244C137.004 122.968 136.746 122.632 136.554 122.236C136.362 121.828 136.266 121.366 136.266 120.85V118.258C136.266 117.742 136.362 117.286 136.554 116.89C136.758 116.482 137.022 116.14 137.346 115.864C137.682 115.576 138.072 115.36 138.516 115.216C138.972 115.06 139.452 114.982 139.956 114.982C140.496 114.982 140.988 115.06 141.432 115.216C141.888 115.36 142.278 115.576 142.602 115.864C142.938 116.14 143.196 116.482 143.376 116.89C143.556 117.286 143.646 117.742 143.646 118.258V120.85ZM142.116 118.528C142.116 118.144 142.05 117.82 141.918 117.556C141.786 117.28 141.612 117.058 141.396 116.89C141.192 116.722 140.964 116.602 140.712 116.53C140.46 116.458 140.214 116.422 139.974 116.422C139.722 116.422 139.47 116.458 139.218 116.53C138.966 116.602 138.732 116.722 138.516 116.89C138.312 117.058 138.144 117.28 138.012 117.556C137.88 117.82 137.814 118.144 137.814 118.528V120.544C137.814 120.928 137.868 121.258 137.976 121.534C138.096 121.798 138.252 122.014 138.444 122.182C138.636 122.35 138.864 122.47 139.128 122.542C139.392 122.614 139.674 122.65 139.974 122.65C140.214 122.65 140.46 122.614 140.712 122.542C140.964 122.47 141.192 122.35 141.396 122.182C141.612 122.014 141.786 121.798 141.918 121.534C142.05 121.258 142.116 120.928 142.116 120.544V118.528ZM152.446 121.3C152.446 121.624 152.386 121.948 152.266 122.272C152.146 122.596 151.966 122.89 151.726 123.154C151.498 123.406 151.204 123.61 150.844 123.766C150.496 123.922 150.088 124 149.62 124H145.282V115.09H149.584C150.052 115.09 150.454 115.156 150.79 115.288C151.126 115.42 151.402 115.6 151.618 115.828C151.846 116.056 152.014 116.32 152.122 116.62C152.23 116.908 152.284 117.214 152.284 117.538C152.284 117.862 152.2 118.192 152.032 118.528C151.864 118.864 151.594 119.134 151.222 119.338C151.666 119.542 151.978 119.836 152.158 120.22C152.35 120.592 152.446 120.952 152.446 121.3ZM150.88 121.3C150.88 120.904 150.736 120.598 150.448 120.382C150.172 120.154 149.86 120.04 149.512 120.04H146.848V122.632H149.35C149.89 122.632 150.28 122.518 150.52 122.29C150.76 122.05 150.88 121.72 150.88 121.3ZM150.736 117.556C150.736 117.172 150.592 116.896 150.304 116.728C150.016 116.548 149.698 116.458 149.35 116.458H146.848V118.654H149.44C149.836 118.654 150.148 118.564 150.376 118.384C150.616 118.192 150.736 117.916 150.736 117.556ZM51.544 133.128V144H49.87V133.128H46.288V131.598H55.108V133.128H51.544ZM57.7983 140.112V140.706C57.7983 141.066 57.8583 141.372 57.9783 141.624C58.0983 141.864 58.2603 142.068 58.4643 142.236C58.6803 142.392 58.9203 142.506 59.1843 142.578C59.4603 142.65 59.7423 142.686 60.0303 142.686C60.3303 142.686 60.6783 142.626 61.0743 142.506C61.4703 142.386 61.8543 142.152 62.2263 141.804L63.1983 142.866C62.7423 143.334 62.2323 143.658 61.6683 143.838C61.1163 144.006 60.5583 144.09 59.9943 144.09C59.4903 144.09 59.0103 144.024 58.5543 143.892C58.0983 143.748 57.6963 143.544 57.3483 143.28C57.0123 143.004 56.7423 142.662 56.5383 142.254C56.3463 141.846 56.2503 141.372 56.2503 140.832V138.474C56.2503 137.946 56.3403 137.466 56.5203 137.034C56.7003 136.602 56.9463 136.236 57.2583 135.936C57.5823 135.636 57.9603 135.408 58.3923 135.252C58.8363 135.084 59.3223 135 59.8503 135C60.3783 135 60.8643 135.078 61.3083 135.234C61.7523 135.39 62.1303 135.612 62.4423 135.9C62.7663 136.188 63.0123 136.542 63.1803 136.962C63.3603 137.37 63.4503 137.832 63.4503 138.348V140.112H57.7983ZM61.8843 138.51C61.8843 138.138 61.8303 137.82 61.7223 137.556C61.6143 137.292 61.4643 137.076 61.2723 136.908C61.0923 136.728 60.8763 136.602 60.6243 136.53C60.3843 136.446 60.1263 136.404 59.8503 136.404C59.5743 136.404 59.3163 136.446 59.0763 136.53C58.8363 136.614 58.6203 136.74 58.4283 136.908C58.2363 137.076 58.0863 137.292 57.9783 137.556C57.8703 137.808 57.8163 138.108 57.8163 138.456V138.852H61.8843V138.51ZM67.6695 136.458V138.87C67.6695 139.794 67.5975 140.562 67.4535 141.174C67.3095 141.786 67.1115 142.29 66.8595 142.686C66.6075 143.082 66.3015 143.4 65.9415 143.64C65.5935 143.88 65.2095 144.084 64.7895 144.252L64.1595 143.01C64.4955 142.854 64.7895 142.692 65.0415 142.524C65.2935 142.356 65.4975 142.128 65.6535 141.84C65.8215 141.54 65.9415 141.15 66.0135 140.67C66.0975 140.19 66.1395 139.56 66.1395 138.78V135.09H72.3315V144H70.7835V136.458H67.6695ZM75.7983 140.112V140.706C75.7983 141.066 75.8583 141.372 75.9783 141.624C76.0983 141.864 76.2603 142.068 76.4643 142.236C76.6803 142.392 76.9203 142.506 77.1843 142.578C77.4603 142.65 77.7423 142.686 78.0303 142.686C78.3303 142.686 78.6783 142.626 79.0743 142.506C79.4703 142.386 79.8543 142.152 80.2263 141.804L81.1983 142.866C80.7423 143.334 80.2323 143.658 79.6683 143.838C79.1163 144.006 78.5583 144.09 77.9943 144.09C77.4903 144.09 77.0103 144.024 76.5543 143.892C76.0983 143.748 75.6963 143.544 75.3483 143.28C75.0123 143.004 74.7423 142.662 74.5383 142.254C74.3463 141.846 74.2503 141.372 74.2503 140.832V138.474C74.2503 137.946 74.3403 137.466 74.5203 137.034C74.7003 136.602 74.9463 136.236 75.2583 135.936C75.5823 135.636 75.9603 135.408 76.3923 135.252C76.8363 135.084 77.3223 135 77.8503 135C78.3783 135 78.8643 135.078 79.3083 135.234C79.7523 135.39 80.1303 135.612 80.4423 135.9C80.7663 136.188 81.0123 136.542 81.1803 136.962C81.3603 137.37 81.4503 137.832 81.4503 138.348V140.112H75.7983ZM79.8843 138.51C79.8843 138.138 79.8303 137.82 79.7223 137.556C79.6143 137.292 79.4643 137.076 79.2723 136.908C79.0923 136.728 78.8763 136.602 78.6243 136.53C78.3843 136.446 78.1263 136.404 77.8503 136.404C77.5743 136.404 77.3163 136.446 77.0763 136.53C76.8363 136.614 76.6203 136.74 76.4283 136.908C76.2363 137.076 76.0863 137.292 75.9783 137.556C75.8703 137.808 75.8163 138.108 75.8163 138.456V138.852H79.8843V138.51ZM87.0195 147.582V144.108C86.2875 144.072 85.6635 143.946 85.1475 143.73C84.6315 143.502 84.2115 143.214 83.8875 142.866C83.5635 142.506 83.3235 142.098 83.1675 141.642C83.0235 141.186 82.9515 140.712 82.9515 140.22V139.104C82.9515 138.576 83.0295 138.066 83.1855 137.574C83.3535 137.082 83.6055 136.65 83.9415 136.278C84.2775 135.894 84.6975 135.588 85.2015 135.36C85.7175 135.132 86.3235 135.006 87.0195 134.982V131.598H88.5495V134.982C89.2335 135.006 89.8275 135.126 90.3315 135.342C90.8475 135.546 91.2735 135.828 91.6095 136.188C91.9455 136.536 92.1975 136.95 92.3655 137.43C92.5335 137.898 92.6175 138.396 92.6175 138.924V140.22C92.6175 140.712 92.5335 141.186 92.3655 141.642C92.1975 142.086 91.9455 142.488 91.6095 142.848C91.2735 143.196 90.8475 143.484 90.3315 143.712C89.8275 143.94 89.2335 144.072 88.5495 144.108V147.582H87.0195ZM87.0195 136.386C86.5755 136.386 86.1915 136.47 85.8675 136.638C85.5555 136.794 85.2975 136.998 85.0935 137.25C84.8895 137.502 84.7395 137.796 84.6435 138.132C84.5475 138.456 84.4995 138.792 84.4995 139.14V139.95C84.4995 140.298 84.5355 140.634 84.6075 140.958C84.6795 141.27 84.8115 141.552 85.0035 141.804C85.1955 142.044 85.4535 142.248 85.7775 142.416C86.1015 142.572 86.5155 142.668 87.0195 142.704V136.386ZM88.5495 142.704C89.0175 142.704 89.4135 142.626 89.7375 142.47C90.0615 142.302 90.3195 142.092 90.5115 141.84C90.7155 141.588 90.8595 141.3 90.9435 140.976C91.0275 140.64 91.0695 140.298 91.0695 139.95V139.14C91.0695 138.792 91.0215 138.456 90.9255 138.132C90.8415 137.796 90.6975 137.502 90.4935 137.25C90.2895 136.998 90.0255 136.794 89.7015 136.638C89.3895 136.47 89.0055 136.386 88.5495 136.386V142.704ZM101.687 140.85C101.687 141.366 101.585 141.828 101.381 142.236C101.189 142.632 100.919 142.968 100.571 143.244C100.235 143.52 99.8454 143.73 99.4014 143.874C98.9574 144.018 98.4834 144.09 97.9794 144.09C97.4634 144.09 96.9834 144.018 96.5394 143.874C96.0954 143.73 95.7054 143.52 95.3694 143.244C95.0454 142.968 94.7874 142.632 94.5954 142.236C94.4034 141.828 94.3074 141.366 94.3074 140.85V138.258C94.3074 137.742 94.4034 137.286 94.5954 136.89C94.7994 136.482 95.0634 136.14 95.3874 135.864C95.7234 135.576 96.1134 135.36 96.5574 135.216C97.0134 135.06 97.4934 134.982 97.9974 134.982C98.5374 134.982 99.0294 135.06 99.4734 135.216C99.9294 135.36 100.319 135.576 100.643 135.864C100.979 136.14 101.237 136.482 101.417 136.89C101.597 137.286 101.687 137.742 101.687 138.258V140.85ZM100.157 138.528C100.157 138.144 100.091 137.82 99.9594 137.556C99.8274 137.28 99.6534 137.058 99.4374 136.89C99.2334 136.722 99.0054 136.602 98.7534 136.53C98.5014 136.458 98.2554 136.422 98.0154 136.422C97.7634 136.422 97.5114 136.458 97.2594 136.53C97.0074 136.602 96.7734 136.722 96.5574 136.89C96.3534 137.058 96.1854 137.28 96.0534 137.556C95.9214 137.82 95.8554 138.144 95.8554 138.528V140.544C95.8554 140.928 95.9094 141.258 96.0174 141.534C96.1374 141.798 96.2934 142.014 96.4854 142.182C96.6774 142.35 96.9054 142.47 97.1694 142.542C97.4334 142.614 97.7154 142.65 98.0154 142.65C98.2554 142.65 98.5014 142.614 98.7534 142.542C99.0054 142.47 99.2334 142.35 99.4374 142.182C99.6534 142.014 99.8274 141.798 99.9594 141.534C100.091 141.258 100.157 140.928 100.157 140.544V138.528ZM109.245 144V140.202H104.997V144H103.449V135.09H104.997V138.798H109.245V135.09H110.811V144H109.245ZM112.877 143.01C112.877 142.758 112.961 142.524 113.129 142.308C113.309 142.092 113.567 141.984 113.903 141.984C114.251 141.984 114.521 142.092 114.713 142.308C114.905 142.524 115.001 142.758 115.001 143.01C115.001 143.31 114.905 143.568 114.713 143.784C114.521 143.988 114.251 144.09 113.903 144.09C113.567 144.09 113.309 143.988 113.129 143.784C112.961 143.58 112.877 143.322 112.877 143.01ZM112.877 137.556C112.877 137.304 112.961 137.07 113.129 136.854C113.309 136.638 113.567 136.53 113.903 136.53C114.251 136.53 114.521 136.638 114.713 136.854C114.905 137.07 115.001 137.304 115.001 137.556C115.001 137.856 114.905 138.114 114.713 138.33C114.521 138.534 114.251 138.636 113.903 138.636C113.567 138.636 113.309 138.534 113.129 138.33C112.961 138.126 112.877 137.868 112.877 137.556ZM121.323 134.766C121.323 134.25 121.425 133.788 121.629 133.38C121.833 132.972 122.103 132.63 122.439 132.354C122.787 132.066 123.189 131.85 123.645 131.706C124.113 131.55 124.599 131.472 125.103 131.472C125.883 131.472 126.543 131.598 127.083 131.85C127.635 132.09 128.109 132.384 128.505 132.732L127.605 133.992C127.233 133.656 126.843 133.404 126.435 133.236C126.039 133.056 125.607 132.966 125.139 132.966C124.911 132.966 124.665 133.002 124.401 133.074C124.149 133.146 123.909 133.266 123.681 133.434C123.465 133.602 123.279 133.824 123.123 134.1C122.979 134.364 122.907 134.694 122.907 135.09V137.124C123.483 136.752 124.011 136.494 124.491 136.35C124.983 136.194 125.409 136.116 125.769 136.116C126.225 136.116 126.633 136.194 126.993 136.35C127.365 136.506 127.677 136.728 127.929 137.016C128.193 137.292 128.391 137.628 128.523 138.024C128.667 138.408 128.739 138.834 128.739 139.302V140.778C128.739 141.294 128.637 141.756 128.433 142.164C128.229 142.572 127.953 142.92 127.605 143.208C127.269 143.496 126.873 143.718 126.417 143.874C125.973 144.018 125.505 144.09 125.013 144.09C124.485 144.09 123.999 144.018 123.555 143.874C123.111 143.73 122.721 143.52 122.385 143.244C122.049 142.968 121.785 142.632 121.593 142.236C121.413 141.828 121.323 141.366 121.323 140.85V134.766ZM127.155 139.446C127.155 138.822 126.999 138.366 126.687 138.078C126.387 137.79 126.009 137.646 125.553 137.646C125.133 137.646 124.707 137.736 124.275 137.916C123.855 138.096 123.399 138.348 122.907 138.672V140.508C122.907 140.892 122.973 141.222 123.105 141.498C123.237 141.762 123.405 141.978 123.609 142.146C123.813 142.314 124.035 142.44 124.275 142.524C124.527 142.596 124.773 142.632 125.013 142.632C125.241 142.632 125.481 142.596 125.733 142.524C125.997 142.44 126.231 142.314 126.435 142.146C126.639 141.966 126.807 141.744 126.939 141.48C127.083 141.216 127.155 140.892 127.155 140.508V139.446ZM136.983 142.092V144H135.399V142.092H129.999V140.76C130.683 139.248 131.367 137.724 132.051 136.188C132.747 134.652 133.437 133.122 134.121 131.598H135.777L131.745 140.688H135.399V136.98H136.983V140.688H138.045V142.092H136.983ZM139.467 139.86V138.51H144.651V139.86H139.467ZM153.86 140.904C153.86 141.408 153.746 141.858 153.518 142.254C153.302 142.65 153.014 142.986 152.654 143.262C152.294 143.526 151.886 143.73 151.43 143.874C150.986 144.018 150.536 144.09 150.08 144.09C149.612 144.09 149.15 144.018 148.694 143.874C148.25 143.73 147.848 143.526 147.488 143.262C147.14 142.986 146.852 142.65 146.624 142.254C146.408 141.858 146.3 141.408 146.3 140.904V134.712C146.3 134.208 146.408 133.758 146.624 133.362C146.852 132.954 147.146 132.612 147.506 132.336C147.866 132.048 148.268 131.832 148.712 131.688C149.168 131.544 149.624 131.472 150.08 131.472C150.536 131.472 150.986 131.544 151.43 131.688C151.886 131.832 152.294 132.048 152.654 132.336C153.014 132.612 153.302 132.954 153.518 133.362C153.746 133.758 153.86 134.208 153.86 134.712V140.904ZM152.294 135.108C152.294 134.712 152.222 134.376 152.078 134.1C151.934 133.824 151.754 133.602 151.538 133.434C151.322 133.254 151.082 133.128 150.818 133.056C150.566 132.984 150.32 132.948 150.08 132.948C149.84 132.948 149.588 132.984 149.324 133.056C149.072 133.128 148.838 133.254 148.622 133.434C148.406 133.602 148.226 133.824 148.082 134.1C147.95 134.376 147.884 134.712 147.884 135.108V140.508C147.884 140.904 147.95 141.24 148.082 141.516C148.226 141.78 148.406 142.002 148.622 142.182C148.838 142.35 149.072 142.47 149.324 142.542C149.588 142.614 149.84 142.65 150.08 142.65C150.32 142.65 150.566 142.614 150.818 142.542C151.082 142.47 151.322 142.35 151.538 142.182C151.754 142.002 151.934 141.78 152.078 141.516C152.222 141.24 152.294 140.904 152.294 140.508V135.108ZM162.86 140.904C162.86 141.408 162.746 141.858 162.518 142.254C162.302 142.65 162.014 142.986 161.654 143.262C161.294 143.526 160.886 143.73 160.43 143.874C159.986 144.018 159.536 144.09 159.08 144.09C158.612 144.09 158.15 144.018 157.694 143.874C157.25 143.73 156.848 143.526 156.488 143.262C156.14 142.986 155.852 142.65 155.624 142.254C155.408 141.858 155.3 141.408 155.3 140.904V134.712C155.3 134.208 155.408 133.758 155.624 133.362C155.852 132.954 156.146 132.612 156.506 132.336C156.866 132.048 157.268 131.832 157.712 131.688C158.168 131.544 158.624 131.472 159.08 131.472C159.536 131.472 159.986 131.544 160.43 131.688C160.886 131.832 161.294 132.048 161.654 132.336C162.014 132.612 162.302 132.954 162.518 133.362C162.746 133.758 162.86 134.208 162.86 134.712V140.904ZM161.294 135.108C161.294 134.712 161.222 134.376 161.078 134.1C160.934 133.824 160.754 133.602 160.538 133.434C160.322 133.254 160.082 133.128 159.818 133.056C159.566 132.984 159.32 132.948 159.08 132.948C158.84 132.948 158.588 132.984 158.324 133.056C158.072 133.128 157.838 133.254 157.622 133.434C157.406 133.602 157.226 133.824 157.082 134.1C156.95 134.376 156.884 134.712 156.884 135.108V140.508C156.884 140.904 156.95 141.24 157.082 141.516C157.226 141.78 157.406 142.002 157.622 142.182C157.838 142.35 158.072 142.47 158.324 142.542C158.588 142.614 158.84 142.65 159.08 142.65C159.32 142.65 159.566 142.614 159.818 142.542C160.082 142.47 160.322 142.35 160.538 142.182C160.754 142.002 160.934 141.78 161.078 141.516C161.222 141.24 161.294 140.904 161.294 140.508V135.108ZM164.516 139.86V138.51H169.7V139.86H164.516ZM178.081 142.092V144H176.497V142.092H171.097V140.76C171.781 139.248 172.465 137.724 173.149 136.188C173.845 134.652 174.535 133.122 175.219 131.598H176.875L172.843 140.688H176.497V136.98H178.081V140.688H179.143V142.092H178.081ZM187.783 140.814C187.783 141.318 187.675 141.774 187.459 142.182C187.255 142.578 186.973 142.92 186.613 143.208C186.265 143.496 185.857 143.718 185.389 143.874C184.921 144.018 184.429 144.09 183.913 144.09C183.133 144.09 182.461 143.97 181.897 143.73C181.345 143.478 180.871 143.178 180.475 142.83L181.375 141.588C182.131 142.284 182.965 142.632 183.877 142.632C184.045 142.632 184.261 142.608 184.525 142.56C184.789 142.5 185.047 142.398 185.299 142.254C185.551 142.098 185.767 141.888 185.947 141.624C186.127 141.36 186.217 141.018 186.217 140.598V138.996C186.217 138.396 186.067 137.952 185.767 137.664C185.467 137.376 185.077 137.232 184.597 137.232C184.405 137.232 184.189 137.268 183.949 137.34C183.709 137.412 183.469 137.502 183.229 137.61C182.989 137.706 182.761 137.82 182.545 137.952C182.341 138.072 182.173 138.186 182.041 138.294L180.583 137.718V131.598H187.423V133.056H182.185V136.584C182.641 136.272 183.097 136.038 183.553 135.882C184.009 135.726 184.411 135.648 184.759 135.648C185.227 135.648 185.647 135.726 186.019 135.882C186.391 136.026 186.703 136.242 186.955 136.53C187.219 136.806 187.423 137.142 187.567 137.538C187.711 137.922 187.783 138.348 187.783 138.816V140.814ZM47.098 164V151.598H55.378V153.11H48.754V157.052H54.424V158.546H48.754V162.506H55.378V164H47.098ZM56.9555 159.86V158.51H62.1395V159.86H56.9555ZM68.0184 154.982C68.5584 154.982 69.0204 155.102 69.4044 155.342C69.7884 155.57 70.0824 155.906 70.2864 156.35C70.6464 156.062 70.9704 155.828 71.2584 155.648C71.5464 155.468 71.8044 155.33 72.0324 155.234C72.2604 155.126 72.4644 155.06 72.6444 155.036C72.8244 155 72.9984 154.982 73.1664 154.982C74.0184 154.982 74.6904 155.216 75.1824 155.684C75.6744 156.152 75.9204 156.89 75.9204 157.898V164H74.3724V158.222C74.3724 157.622 74.2584 157.184 74.0304 156.908C73.8024 156.632 73.4244 156.494 72.8964 156.494C72.5844 156.494 72.2364 156.59 71.8524 156.782C71.4804 156.974 71.0604 157.25 70.5924 157.61C70.6164 157.718 70.6284 157.814 70.6284 157.898C70.6404 157.982 70.6464 158.084 70.6464 158.204V164H69.0984V158.168C69.0984 157.556 68.9664 157.124 68.7024 156.872C68.4504 156.62 68.1324 156.494 67.7484 156.494C67.3764 156.494 67.0104 156.566 66.6504 156.71C66.3024 156.842 65.8764 157.082 65.3724 157.43V164H63.8244V155.072H65.1924L65.3544 156.098C65.6784 155.858 65.9664 155.666 66.2184 155.522C66.4824 155.378 66.7164 155.264 66.9204 155.18C67.1364 155.096 67.3284 155.042 67.4964 155.018C67.6764 154.994 67.8504 154.982 68.0184 154.982ZM83.1714 163.136C82.4634 163.532 81.8814 163.79 81.4254 163.91C80.9814 164.018 80.5794 164.072 80.2194 164.072C79.3554 164.072 78.6654 163.832 78.1494 163.352C77.6334 162.872 77.3754 162.218 77.3754 161.39C77.3754 160.898 77.4834 160.484 77.6994 160.148C77.9274 159.812 78.2034 159.542 78.5274 159.338C78.8634 159.122 79.2174 158.972 79.5894 158.888C79.9734 158.792 80.3154 158.744 80.6154 158.744H83.2254V158.06C83.2254 157.436 83.0514 157.004 82.7034 156.764C82.3554 156.512 81.8574 156.386 81.2094 156.386C80.8974 156.386 80.5134 156.434 80.0574 156.53C79.6134 156.614 79.1634 156.842 78.7074 157.214L77.9514 156.044C78.5274 155.6 79.1094 155.312 79.6974 155.18C80.2854 155.048 80.8314 154.982 81.3354 154.982C82.4994 154.982 83.3574 155.24 83.9094 155.756C84.4734 156.26 84.7554 157.04 84.7554 158.096V164H83.4054L83.2254 163.172L83.1714 163.136ZM83.2254 160.022H80.8674C80.6754 160.022 80.4654 160.04 80.2374 160.076C80.0214 160.1 79.8174 160.16 79.6254 160.256C79.4334 160.34 79.2714 160.478 79.1394 160.67C79.0194 160.85 78.9594 161.09 78.9594 161.39C78.9594 161.822 79.1034 162.146 79.3914 162.362C79.6914 162.578 80.0694 162.686 80.5254 162.686C80.7534 162.686 80.9874 162.656 81.2274 162.596C81.4794 162.524 81.7194 162.44 81.9474 162.344C82.1874 162.248 82.4154 162.146 82.6314 162.038C82.8474 161.918 83.0454 161.81 83.2254 161.714V160.022ZM88.6271 152.372C88.6271 152.636 88.5311 152.864 88.3391 153.056C88.1471 153.248 87.9191 153.344 87.6551 153.344C87.4031 153.344 87.1811 153.248 86.9891 153.056C86.7971 152.864 86.7011 152.636 86.7011 152.372C86.7011 152.108 86.7971 151.886 86.9891 151.706C87.1811 151.514 87.4031 151.418 87.6551 151.418C87.9191 151.418 88.1471 151.514 88.3391 151.706C88.5311 151.886 88.6271 152.108 88.6271 152.372ZM86.8991 164V155.072H88.4291V164H86.8991ZM92.7232 161.624C92.7232 162.092 92.8252 162.386 93.0292 162.506C93.2452 162.614 93.5992 162.656 94.0912 162.632L94.1272 164.036C93.9592 164.06 93.7972 164.078 93.6412 164.09C93.4972 164.102 93.3592 164.108 93.2272 164.108C92.8072 164.108 92.4652 164.06 92.2012 163.964C91.9492 163.856 91.7452 163.706 91.5892 163.514C91.4332 163.31 91.3252 163.07 91.2652 162.794C91.2172 162.506 91.1932 162.182 91.1932 161.822V151.112H92.7232V161.624ZM95.8614 163.01C95.8614 162.758 95.9454 162.524 96.1134 162.308C96.2934 162.092 96.5514 161.984 96.8874 161.984C97.2354 161.984 97.5054 162.092 97.6974 162.308C97.8894 162.524 97.9854 162.758 97.9854 163.01C97.9854 163.31 97.8894 163.568 97.6974 163.784C97.5054 163.988 97.2354 164.09 96.8874 164.09C96.5514 164.09 96.2934 163.988 96.1134 163.784C95.9454 163.58 95.8614 163.322 95.8614 163.01ZM95.8614 157.556C95.8614 157.304 95.9454 157.07 96.1134 156.854C96.2934 156.638 96.5514 156.53 96.8874 156.53C97.2354 156.53 97.5054 156.638 97.6974 156.854C97.8894 157.07 97.9854 157.304 97.9854 157.556C97.9854 157.856 97.8894 158.114 97.6974 158.33C97.5054 158.534 97.2354 158.636 96.8874 158.636C96.5514 158.636 96.2934 158.534 96.1134 158.33C95.9454 158.126 95.8614 157.868 95.8614 157.556Z" fill="#2B2A29"/>
<path d="M110.356 164L110.176 163.064C109.468 163.484 108.898 163.76 108.466 163.892C108.046 164.024 107.674 164.09 107.35 164.09C106.918 164.09 106.516 164.03 106.144 163.91C105.784 163.778 105.472 163.586 105.208 163.334C104.944 163.07 104.734 162.74 104.578 162.344C104.434 161.936 104.362 161.456 104.362 160.904V158.168C104.362 157.664 104.44 157.214 104.596 156.818C104.764 156.422 104.986 156.092 105.262 155.828C105.55 155.552 105.886 155.342 106.27 155.198C106.654 155.054 107.062 154.982 107.494 154.982C107.818 154.982 108.196 155.018 108.628 155.09C109.072 155.162 109.588 155.294 110.176 155.486V151.112H111.706V164H110.356ZM110.176 156.998C109.696 156.83 109.246 156.698 108.826 156.602C108.406 156.494 108.01 156.44 107.638 156.44C107.158 156.428 106.75 156.572 106.414 156.872C106.078 157.16 105.91 157.652 105.91 158.348V160.814C105.91 161.498 106.054 161.972 106.342 162.236C106.63 162.488 107.014 162.614 107.494 162.614C107.662 162.614 107.86 162.59 108.088 162.542C108.316 162.482 108.55 162.404 108.79 162.308C109.03 162.212 109.27 162.104 109.51 161.984C109.75 161.852 109.972 161.714 110.176 161.57V156.998ZM120.777 160.85C120.777 161.366 120.675 161.828 120.471 162.236C120.279 162.632 120.009 162.968 119.661 163.244C119.325 163.52 118.935 163.73 118.491 163.874C118.047 164.018 117.573 164.09 117.069 164.09C116.553 164.09 116.073 164.018 115.629 163.874C115.185 163.73 114.795 163.52 114.459 163.244C114.135 162.968 113.877 162.632 113.685 162.236C113.493 161.828 113.397 161.366 113.397 160.85V158.258C113.397 157.742 113.493 157.286 113.685 156.89C113.889 156.482 114.153 156.14 114.477 155.864C114.813 155.576 115.203 155.36 115.647 155.216C116.103 155.06 116.583 154.982 117.087 154.982C117.627 154.982 118.119 155.06 118.563 155.216C119.019 155.36 119.409 155.576 119.733 155.864C120.069 156.14 120.327 156.482 120.507 156.89C120.687 157.286 120.777 157.742 120.777 158.258V160.85ZM119.247 158.528C119.247 158.144 119.181 157.82 119.049 157.556C118.917 157.28 118.743 157.058 118.527 156.89C118.323 156.722 118.095 156.602 117.843 156.53C117.591 156.458 117.345 156.422 117.105 156.422C116.853 156.422 116.601 156.458 116.349 156.53C116.097 156.602 115.863 156.722 115.647 156.89C115.443 157.058 115.275 157.28 115.143 157.556C115.011 157.82 114.945 158.144 114.945 158.528V160.544C114.945 160.928 114.999 161.258 115.107 161.534C115.227 161.798 115.383 162.014 115.575 162.182C115.767 162.35 115.995 162.47 116.259 162.542C116.523 162.614 116.805 162.65 117.105 162.65C117.345 162.65 117.591 162.614 117.843 162.542C118.095 162.47 118.323 162.35 118.527 162.182C118.743 162.014 118.917 161.798 119.049 161.534C119.181 161.258 119.247 160.928 119.247 160.544V158.528ZM129.793 160.904C129.793 161.924 129.511 162.71 128.947 163.262C128.395 163.814 127.675 164.09 126.787 164.09C126.475 164.09 126.097 164.036 125.653 163.928C125.209 163.82 124.651 163.562 123.979 163.154L123.799 164H122.431V151.112H123.979V156.008C124.723 155.588 125.311 155.312 125.743 155.18C126.175 155.048 126.547 154.982 126.859 154.982C127.831 154.982 128.563 155.258 129.055 155.81C129.547 156.362 129.793 157.148 129.793 158.168V160.904ZM128.245 158.366C128.245 157.67 128.101 157.184 127.813 156.908C127.525 156.632 127.141 156.494 126.661 156.494C126.289 156.494 125.863 156.602 125.383 156.818C124.915 157.034 124.447 157.292 123.979 157.592V161.66C124.171 161.792 124.387 161.918 124.627 162.038C124.867 162.158 125.107 162.26 125.347 162.344C125.599 162.428 125.839 162.494 126.067 162.542C126.295 162.59 126.493 162.614 126.661 162.614C127.129 162.614 127.507 162.47 127.795 162.182C128.095 161.894 128.245 161.408 128.245 160.724V158.366ZM136.543 156.602C135.739 156.674 135.073 156.818 134.545 157.034C134.029 157.238 133.633 157.43 133.357 157.61V164H131.809V155.072H133.177L133.339 156.386H133.357C133.513 156.23 133.711 156.068 133.951 155.9C134.191 155.732 134.449 155.582 134.725 155.45C135.001 155.306 135.295 155.192 135.607 155.108C135.919 155.012 136.231 154.964 136.543 154.964V156.602ZM144.859 160.85C144.859 161.366 144.757 161.828 144.553 162.236C144.361 162.632 144.091 162.968 143.743 163.244C143.407 163.52 143.017 163.73 142.573 163.874C142.129 164.018 141.655 164.09 141.151 164.09C140.635 164.09 140.155 164.018 139.711 163.874C139.267 163.73 138.877 163.52 138.541 163.244C138.217 162.968 137.959 162.632 137.767 162.236C137.575 161.828 137.479 161.366 137.479 160.85V158.258C137.479 157.742 137.575 157.286 137.767 156.89C137.971 156.482 138.235 156.14 138.559 155.864C138.895 155.576 139.285 155.36 139.729 155.216C140.185 155.06 140.665 154.982 141.169 154.982C141.709 154.982 142.201 155.06 142.645 155.216C143.101 155.36 143.491 155.576 143.815 155.864C144.151 156.14 144.409 156.482 144.589 156.89C144.769 157.286 144.859 157.742 144.859 158.258V160.85ZM143.329 158.528C143.329 158.144 143.263 157.82 143.131 157.556C142.999 157.28 142.825 157.058 142.609 156.89C142.405 156.722 142.177 156.602 141.925 156.53C141.673 156.458 141.427 156.422 141.187 156.422C140.935 156.422 140.683 156.458 140.431 156.53C140.179 156.602 139.945 156.722 139.729 156.89C139.525 157.058 139.357 157.28 139.225 157.556C139.093 157.82 139.027 158.144 139.027 158.528V160.544C139.027 160.928 139.081 161.258 139.189 161.534C139.309 161.798 139.465 162.014 139.657 162.182C139.849 162.35 140.077 162.47 140.341 162.542C140.605 162.614 140.887 162.65 141.187 162.65C141.427 162.65 141.673 162.614 141.925 162.542C142.177 162.47 142.405 162.35 142.609 162.182C142.825 162.014 142.999 161.798 143.131 161.534C143.263 161.258 143.329 160.928 143.329 160.544V158.528ZM152.543 164L152.363 163.064C151.655 163.484 151.085 163.76 150.653 163.892C150.233 164.024 149.861 164.09 149.537 164.09C149.105 164.09 148.703 164.03 148.331 163.91C147.971 163.778 147.659 163.586 147.395 163.334C147.131 163.07 146.921 162.74 146.765 162.344C146.621 161.936 146.549 161.456 146.549 160.904V158.168C146.549 157.664 146.627 157.214 146.783 156.818C146.951 156.422 147.173 156.092 147.449 155.828C147.737 155.552 148.073 155.342 148.457 155.198C148.841 155.054 149.249 154.982 149.681 154.982C150.005 154.982 150.383 155.018 150.815 155.09C151.259 155.162 151.775 155.294 152.363 155.486V151.112H153.893V164H152.543ZM152.363 156.998C151.883 156.83 151.433 156.698 151.013 156.602C150.593 156.494 150.197 156.44 149.825 156.44C149.345 156.428 148.937 156.572 148.601 156.872C148.265 157.16 148.097 157.652 148.097 158.348V160.814C148.097 161.498 148.241 161.972 148.529 162.236C148.817 162.488 149.201 162.614 149.681 162.614C149.849 162.614 150.047 162.59 150.275 162.542C150.503 162.482 150.737 162.404 150.977 162.308C151.217 162.212 151.457 162.104 151.697 161.984C151.937 161.852 152.159 161.714 152.363 161.57V156.998ZM162.965 160.85C162.965 161.366 162.863 161.828 162.659 162.236C162.467 162.632 162.197 162.968 161.849 163.244C161.513 163.52 161.123 163.73 160.679 163.874C160.235 164.018 159.761 164.09 159.257 164.09C158.741 164.09 158.261 164.018 157.817 163.874C157.373 163.73 156.983 163.52 156.647 163.244C156.323 162.968 156.065 162.632 155.873 162.236C155.681 161.828 155.585 161.366 155.585 160.85V158.258C155.585 157.742 155.681 157.286 155.873 156.89C156.077 156.482 156.341 156.14 156.665 155.864C157.001 155.576 157.391 155.36 157.835 155.216C158.291 155.06 158.771 154.982 159.275 154.982C159.815 154.982 160.307 155.06 160.751 155.216C161.207 155.36 161.597 155.576 161.921 155.864C162.257 156.14 162.515 156.482 162.695 156.89C162.875 157.286 162.965 157.742 162.965 158.258V160.85ZM161.435 158.528C161.435 158.144 161.369 157.82 161.237 157.556C161.105 157.28 160.931 157.058 160.715 156.89C160.511 156.722 160.283 156.602 160.031 156.53C159.779 156.458 159.533 156.422 159.293 156.422C159.041 156.422 158.789 156.458 158.537 156.53C158.285 156.602 158.051 156.722 157.835 156.89C157.631 157.058 157.463 157.28 157.331 157.556C157.199 157.82 157.133 158.144 157.133 158.528V160.544C157.133 160.928 157.187 161.258 157.295 161.534C157.415 161.798 157.571 162.014 157.763 162.182C157.955 162.35 158.183 162.47 158.447 162.542C158.711 162.614 158.993 162.65 159.293 162.65C159.533 162.65 159.779 162.614 160.031 162.542C160.283 162.47 160.511 162.35 160.715 162.182C160.931 162.014 161.105 161.798 161.237 161.534C161.369 161.258 161.435 160.928 161.435 160.544V158.528ZM168.759 154.982C169.299 154.982 169.761 155.102 170.145 155.342C170.529 155.57 170.823 155.906 171.027 156.35C171.387 156.062 171.711 155.828 171.999 155.648C172.287 155.468 172.545 155.33 172.773 155.234C173.001 155.126 173.205 155.06 173.385 155.036C173.565 155 173.739 154.982 173.907 154.982C174.759 154.982 175.431 155.216 175.923 155.684C176.415 156.152 176.661 156.89 176.661 157.898V164H175.113V158.222C175.113 157.622 174.999 157.184 174.771 156.908C174.543 156.632 174.165 156.494 173.637 156.494C173.325 156.494 172.977 156.59 172.593 156.782C172.221 156.974 171.801 157.25 171.333 157.61C171.357 157.718 171.369 157.814 171.369 157.898C171.381 157.982 171.387 158.084 171.387 158.204V164H169.839V158.168C169.839 157.556 169.707 157.124 169.443 156.872C169.191 156.62 168.873 156.494 168.489 156.494C168.117 156.494 167.751 156.566 167.391 156.71C167.043 156.842 166.617 157.082 166.113 157.43V164H164.565V155.072H165.933L166.095 156.098C166.419 155.858 166.707 155.666 166.959 155.522C167.223 155.378 167.457 155.264 167.661 155.18C167.877 155.096 168.069 155.042 168.237 155.018C168.417 154.994 168.591 154.982 168.759 154.982ZM178.224 154.766C178.224 154.25 178.326 153.788 178.53 153.38C178.734 152.972 179.004 152.63 179.34 152.354C179.688 152.066 180.09 151.85 180.546 151.706C181.014 151.55 181.5 151.472 182.004 151.472C182.784 151.472 183.444 151.598 183.984 151.85C184.536 152.09 185.01 152.384 185.406 152.732L184.506 153.992C184.134 153.656 183.744 153.404 183.336 153.236C182.94 153.056 182.508 152.966 182.04 152.966C181.812 152.966 181.566 153.002 181.302 153.074C181.05 153.146 180.81 153.266 180.582 153.434C180.366 153.602 180.18 153.824 180.024 154.1C179.88 154.364 179.808 154.694 179.808 155.09V157.124C180.384 156.752 180.912 156.494 181.392 156.35C181.884 156.194 182.31 156.116 182.67 156.116C183.126 156.116 183.534 156.194 183.894 156.35C184.266 156.506 184.578 156.728 184.83 157.016C185.094 157.292 185.292 157.628 185.424 158.024C185.568 158.408 185.64 158.834 185.64 159.302V160.778C185.64 161.294 185.538 161.756 185.334 162.164C185.13 162.572 184.854 162.92 184.506 163.208C184.17 163.496 183.774 163.718 183.318 163.874C182.874 164.018 182.406 164.09 181.914 164.09C181.386 164.09 180.9 164.018 180.456 163.874C180.012 163.73 179.622 163.52 179.286 163.244C178.95 162.968 178.686 162.632 178.494 162.236C178.314 161.828 178.224 161.366 178.224 160.85V154.766ZM184.056 159.446C184.056 158.822 183.9 158.366 183.588 158.078C183.288 157.79 182.91 157.646 182.454 157.646C182.034 157.646 181.608 157.736 181.176 157.916C180.756 158.096 180.3 158.348 179.808 158.672V160.508C179.808 160.892 179.874 161.222 180.006 161.498C180.138 161.762 180.306 161.978 180.51 162.146C180.714 162.314 180.936 162.44 181.176 162.524C181.428 162.596 181.674 162.632 181.914 162.632C182.142 162.632 182.382 162.596 182.634 162.524C182.898 162.44 183.132 162.314 183.336 162.146C183.54 161.966 183.708 161.744 183.84 161.48C183.984 161.216 184.056 160.892 184.056 160.508V159.446ZM190.914 151.49C191.37 151.49 191.814 151.562 192.246 151.706C192.69 151.85 193.086 152.072 193.434 152.372C193.782 152.672 194.058 153.044 194.262 153.488C194.478 153.92 194.586 154.43 194.586 155.018C194.586 155.594 194.46 156.128 194.208 156.62C193.956 157.1 193.584 157.454 193.092 157.682C193.404 157.814 193.668 157.982 193.884 158.186C194.112 158.39 194.292 158.618 194.424 158.87C194.568 159.122 194.67 159.392 194.73 159.68C194.802 159.956 194.838 160.226 194.838 160.49C194.838 161.114 194.724 161.654 194.496 162.11C194.268 162.566 193.968 162.944 193.596 163.244C193.224 163.532 192.798 163.748 192.318 163.892C191.85 164.036 191.376 164.108 190.896 164.108C190.368 164.108 189.864 164.036 189.384 163.892C188.916 163.748 188.502 163.532 188.142 163.244C187.794 162.956 187.512 162.596 187.296 162.164C187.092 161.72 186.99 161.198 186.99 160.598C186.99 160.286 187.038 159.98 187.134 159.68C187.23 159.38 187.356 159.104 187.512 158.852C187.68 158.588 187.872 158.354 188.088 158.15C188.316 157.946 188.556 157.79 188.808 157.682C188.304 157.49 187.92 157.148 187.656 156.656C187.392 156.164 187.26 155.612 187.26 155C187.26 154.424 187.362 153.92 187.566 153.488C187.782 153.044 188.064 152.678 188.412 152.39C188.76 152.09 189.15 151.868 189.582 151.724C190.014 151.568 190.458 151.49 190.914 151.49ZM190.932 152.984C190.668 152.984 190.404 153.026 190.14 153.11C189.888 153.194 189.66 153.32 189.456 153.488C189.264 153.656 189.108 153.866 188.988 154.118C188.868 154.37 188.808 154.664 188.808 155C188.808 155.312 188.868 155.594 188.988 155.846C189.108 156.098 189.264 156.314 189.456 156.494C189.66 156.662 189.888 156.794 190.14 156.89C190.392 156.986 190.656 157.034 190.932 157.034C191.196 157.034 191.454 156.986 191.706 156.89C191.97 156.794 192.198 156.656 192.39 156.476C192.582 156.296 192.738 156.08 192.858 155.828C192.978 155.576 193.038 155.294 193.038 154.982C193.038 154.658 192.978 154.37 192.858 154.118C192.75 153.866 192.6 153.656 192.408 153.488C192.216 153.32 191.988 153.194 191.724 153.11C191.472 153.026 191.208 152.984 190.932 152.984ZM190.932 158.474C190.62 158.474 190.326 158.522 190.05 158.618C189.774 158.714 189.534 158.852 189.33 159.032C189.126 159.212 188.958 159.434 188.826 159.698C188.706 159.95 188.646 160.238 188.646 160.562C188.646 161.222 188.844 161.732 189.24 162.092C189.648 162.452 190.212 162.632 190.932 162.632C191.628 162.632 192.18 162.452 192.588 162.092C192.996 161.732 193.2 161.21 193.2 160.526C193.2 160.214 193.14 159.932 193.02 159.68C192.9 159.428 192.738 159.212 192.534 159.032C192.33 158.852 192.09 158.714 191.814 158.618C191.538 158.522 191.244 158.474 190.932 158.474ZM209.886 157.322C209.886 157.958 209.79 158.516 209.598 158.996C209.418 159.476 209.184 159.872 208.896 160.184C208.62 160.496 208.308 160.73 207.96 160.886C207.612 161.042 207.276 161.12 206.952 161.12C206.412 161.12 205.968 161.036 205.62 160.868C205.284 160.688 205.026 160.46 204.846 160.184C204.462 160.388 204.054 160.58 203.622 160.76C203.19 160.94 202.746 161.03 202.29 161.03C201.618 161.03 201.078 160.838 200.67 160.454C200.274 160.07 200.076 159.548 200.076 158.888C200.076 158.492 200.16 158.162 200.328 157.898C200.508 157.634 200.724 157.418 200.976 157.25C201.24 157.082 201.516 156.962 201.804 156.89C202.092 156.818 202.356 156.782 202.596 156.782H204.576V156.368C204.576 155.852 204.414 155.498 204.09 155.306C203.778 155.114 203.382 155.018 202.902 155.018C202.674 155.018 202.41 155.054 202.11 155.126C201.81 155.198 201.48 155.378 201.12 155.666L200.454 154.766C200.91 154.406 201.342 154.166 201.75 154.046C202.158 153.914 202.554 153.848 202.938 153.848C203.838 153.848 204.54 154.058 205.044 154.478C205.56 154.898 205.818 155.528 205.818 156.368V159.068C205.818 159.416 205.914 159.662 206.106 159.806C206.298 159.95 206.568 160.022 206.916 160.022C207.132 160.022 207.348 159.968 207.564 159.86C207.78 159.752 207.972 159.584 208.14 159.356C208.32 159.128 208.464 158.846 208.572 158.51C208.68 158.162 208.734 157.76 208.734 157.304C208.734 156.584 208.608 155.906 208.356 155.27C208.116 154.634 207.762 154.082 207.294 153.614C206.838 153.134 206.28 152.762 205.62 152.498C204.972 152.222 204.24 152.084 203.424 152.084C202.608 152.084 201.834 152.228 201.102 152.516C200.37 152.804 199.728 153.2 199.176 153.704C198.636 154.196 198.204 154.784 197.88 155.468C197.568 156.14 197.412 156.866 197.412 157.646C197.412 158.438 197.55 159.17 197.826 159.842C198.114 160.514 198.504 161.096 198.996 161.588C199.5 162.08 200.094 162.464 200.778 162.74C201.462 163.016 202.212 163.154 203.028 163.154C203.376 163.154 203.724 163.124 204.072 163.064C204.432 162.992 204.852 162.86 205.332 162.668L205.728 163.766C205.152 163.994 204.636 164.132 204.18 164.18C203.724 164.24 203.34 164.27 203.028 164.27C202.056 164.27 201.156 164.108 200.328 163.784C199.5 163.448 198.78 162.992 198.168 162.416C197.568 161.828 197.1 161.132 196.764 160.328C196.428 159.512 196.26 158.624 196.26 157.664C196.26 156.704 196.452 155.816 196.836 155C197.22 154.184 197.736 153.482 198.384 152.894C199.032 152.294 199.788 151.826 200.652 151.49C201.528 151.154 202.452 150.986 203.424 150.986C204.444 150.986 205.35 151.154 206.142 151.49C206.946 151.826 207.624 152.282 208.176 152.858C208.728 153.434 209.148 154.106 209.436 154.874C209.736 155.642 209.886 156.458 209.886 157.322ZM204.576 157.862H202.794C202.65 157.862 202.494 157.874 202.326 157.898C202.158 157.91 202.002 157.952 201.858 158.024C201.714 158.096 201.594 158.204 201.498 158.348C201.402 158.48 201.354 158.66 201.354 158.888C201.354 159.212 201.462 159.458 201.678 159.626C201.894 159.794 202.176 159.878 202.524 159.878C202.704 159.878 202.884 159.854 203.064 159.806C203.256 159.758 203.442 159.698 203.622 159.626C203.802 159.542 203.97 159.458 204.126 159.374C204.294 159.278 204.444 159.194 204.576 159.122V157.862ZM214.17 154.982C214.494 154.982 214.872 155.054 215.304 155.198C215.748 155.33 216.306 155.606 216.978 156.026L217.158 155.072H218.526V164.54C218.526 165.056 218.418 165.512 218.202 165.908C217.998 166.304 217.716 166.634 217.356 166.898C217.008 167.174 216.606 167.378 216.15 167.51C215.694 167.654 215.22 167.726 214.728 167.726C214.2 167.726 213.648 167.636 213.072 167.456C212.508 167.276 211.986 166.976 211.506 166.556L212.46 165.422C212.604 165.554 212.766 165.674 212.946 165.782C213.138 165.89 213.336 165.98 213.54 166.052C213.756 166.124 213.96 166.178 214.152 166.214C214.356 166.262 214.542 166.286 214.71 166.286C214.998 166.286 215.274 166.25 215.538 166.178C215.814 166.106 216.06 165.986 216.276 165.818C216.492 165.65 216.66 165.434 216.78 165.17C216.912 164.906 216.978 164.582 216.978 164.198V163.154C216.378 163.526 215.838 163.778 215.358 163.91C214.89 164.03 214.494 164.09 214.17 164.09C213.294 164.09 212.574 163.82 212.01 163.28C211.458 162.728 211.182 161.942 211.182 160.922V158.168C211.182 157.148 211.458 156.362 212.01 155.81C212.574 155.258 213.294 154.982 214.17 154.982ZM216.978 157.592C216.534 157.268 216.066 157.004 215.574 156.8C215.082 156.596 214.662 156.494 214.314 156.494C213.822 156.494 213.432 156.632 213.144 156.908C212.868 157.184 212.73 157.676 212.73 158.384V160.724C212.73 161.408 212.874 161.9 213.162 162.2C213.45 162.488 213.834 162.626 214.314 162.614C214.686 162.614 215.112 162.53 215.592 162.362C216.084 162.182 216.546 161.954 216.978 161.678V157.592ZM224.341 154.982C224.881 154.982 225.343 155.102 225.727 155.342C226.111 155.57 226.405 155.906 226.609 156.35C226.969 156.062 227.293 155.828 227.581 155.648C227.869 155.468 228.127 155.33 228.355 155.234C228.583 155.126 228.787 155.06 228.967 155.036C229.147 155 229.321 154.982 229.489 154.982C230.341 154.982 231.013 155.216 231.505 155.684C231.997 156.152 232.243 156.89 232.243 157.898V164H230.695V158.222C230.695 157.622 230.581 157.184 230.353 156.908C230.125 156.632 229.747 156.494 229.219 156.494C228.907 156.494 228.559 156.59 228.175 156.782C227.803 156.974 227.383 157.25 226.915 157.61C226.939 157.718 226.951 157.814 226.951 157.898C226.963 157.982 226.969 158.084 226.969 158.204V164H225.421V158.168C225.421 157.556 225.289 157.124 225.025 156.872C224.773 156.62 224.455 156.494 224.071 156.494C223.699 156.494 223.333 156.566 222.973 156.71C222.625 156.842 222.199 157.082 221.695 157.43V164H220.147V155.072H221.515L221.677 156.098C222.001 155.858 222.289 155.666 222.541 155.522C222.805 155.378 223.039 155.264 223.243 155.18C223.459 155.096 223.651 155.042 223.819 155.018C223.999 154.994 224.173 154.982 224.341 154.982ZM239.494 163.136C238.786 163.532 238.204 163.79 237.748 163.91C237.304 164.018 236.902 164.072 236.542 164.072C235.678 164.072 234.988 163.832 234.472 163.352C233.956 162.872 233.698 162.218 233.698 161.39C233.698 160.898 233.806 160.484 234.022 160.148C234.25 159.812 234.526 159.542 234.85 159.338C235.186 159.122 235.54 158.972 235.912 158.888C236.296 158.792 236.638 158.744 236.938 158.744H239.548V158.06C239.548 157.436 239.374 157.004 239.026 156.764C238.678 156.512 238.18 156.386 237.532 156.386C237.22 156.386 236.836 156.434 236.38 156.53C235.936 156.614 235.486 156.842 235.03 157.214L234.274 156.044C234.85 155.6 235.432 155.312 236.02 155.18C236.608 155.048 237.154 154.982 237.658 154.982C238.822 154.982 239.68 155.24 240.232 155.756C240.796 156.26 241.078 157.04 241.078 158.096V164H239.728L239.548 163.172L239.494 163.136ZM239.548 160.022H237.19C236.998 160.022 236.788 160.04 236.56 160.076C236.344 160.1 236.14 160.16 235.948 160.256C235.756 160.34 235.594 160.478 235.462 160.67C235.342 160.85 235.282 161.09 235.282 161.39C235.282 161.822 235.426 162.146 235.714 162.362C236.014 162.578 236.392 162.686 236.848 162.686C237.076 162.686 237.31 162.656 237.55 162.596C237.802 162.524 238.042 162.44 238.27 162.344C238.51 162.248 238.738 162.146 238.954 162.038C239.17 161.918 239.368 161.81 239.548 161.714V160.022ZM244.949 152.372C244.949 152.636 244.853 152.864 244.661 153.056C244.469 153.248 244.241 153.344 243.977 153.344C243.725 153.344 243.503 153.248 243.311 153.056C243.119 152.864 243.023 152.636 243.023 152.372C243.023 152.108 243.119 151.886 243.311 151.706C243.503 151.514 243.725 151.418 243.977 151.418C244.241 151.418 244.469 151.514 244.661 151.706C244.853 151.886 244.949 152.108 244.949 152.372ZM243.221 164V155.072H244.751V164H243.221ZM249.045 161.624C249.045 162.092 249.147 162.386 249.351 162.506C249.567 162.614 249.921 162.656 250.413 162.632L250.449 164.036C250.281 164.06 250.119 164.078 249.963 164.09C249.819 164.102 249.681 164.108 249.549 164.108C249.129 164.108 248.787 164.06 248.523 163.964C248.271 163.856 248.067 163.706 247.911 163.514C247.755 163.31 247.647 163.07 247.587 162.794C247.539 162.506 247.515 162.182 247.515 161.822V151.112H249.045V161.624ZM251.968 163.01C251.968 162.758 252.052 162.524 252.22 162.308C252.4 162.092 252.658 161.984 252.994 161.984C253.342 161.984 253.612 162.092 253.804 162.308C253.996 162.524 254.092 162.758 254.092 163.01C254.092 163.31 253.996 163.568 253.804 163.784C253.612 163.988 253.342 164.09 252.994 164.09C252.658 164.09 252.4 163.988 252.22 163.784C252.052 163.58 251.968 163.322 251.968 163.01ZM259.325 154.982C259.841 154.982 260.363 155.054 260.891 155.198C261.431 155.33 261.911 155.624 262.331 156.08L261.413 157.25C261.017 156.878 260.645 156.65 260.297 156.566C259.961 156.47 259.661 156.422 259.397 156.422C259.169 156.422 258.929 156.458 258.677 156.53C258.437 156.602 258.215 156.722 258.011 156.89C257.819 157.058 257.657 157.28 257.525 157.556C257.405 157.82 257.345 158.144 257.345 158.528V160.544C257.345 160.928 257.405 161.258 257.525 161.534C257.645 161.798 257.801 162.014 257.993 162.182C258.185 162.35 258.401 162.47 258.641 162.542C258.893 162.614 259.145 162.65 259.397 162.65C259.661 162.65 259.979 162.596 260.351 162.488C260.735 162.38 261.065 162.188 261.341 161.912L262.295 162.992C261.875 163.412 261.407 163.7 260.891 163.856C260.387 164.012 259.877 164.09 259.361 164.09C258.833 164.09 258.353 164.012 257.921 163.856C257.489 163.7 257.111 163.484 256.787 163.208C256.475 162.932 256.229 162.602 256.049 162.218C255.881 161.822 255.797 161.39 255.797 160.922V158.276C255.797 157.772 255.893 157.316 256.085 156.908C256.277 156.5 256.535 156.152 256.859 155.864C257.183 155.576 257.555 155.36 257.975 155.216C258.407 155.06 258.857 154.982 259.325 154.982ZM270.912 160.85C270.912 161.366 270.81 161.828 270.606 162.236C270.414 162.632 270.144 162.968 269.796 163.244C269.46 163.52 269.07 163.73 268.626 163.874C268.182 164.018 267.708 164.09 267.204 164.09C266.688 164.09 266.208 164.018 265.764 163.874C265.32 163.73 264.93 163.52 264.594 163.244C264.27 162.968 264.012 162.632 263.82 162.236C263.628 161.828 263.532 161.366 263.532 160.85V158.258C263.532 157.742 263.628 157.286 263.82 156.89C264.024 156.482 264.288 156.14 264.612 155.864C264.948 155.576 265.338 155.36 265.782 155.216C266.238 155.06 266.718 154.982 267.222 154.982C267.762 154.982 268.254 155.06 268.698 155.216C269.154 155.36 269.544 155.576 269.868 155.864C270.204 156.14 270.462 156.482 270.642 156.89C270.822 157.286 270.912 157.742 270.912 158.258V160.85ZM269.382 158.528C269.382 158.144 269.316 157.82 269.184 157.556C269.052 157.28 268.878 157.058 268.662 156.89C268.458 156.722 268.23 156.602 267.978 156.53C267.726 156.458 267.48 156.422 267.24 156.422C266.988 156.422 266.736 156.458 266.484 156.53C266.232 156.602 265.998 156.722 265.782 156.89C265.578 157.058 265.41 157.28 265.278 157.556C265.146 157.82 265.08 158.144 265.08 158.528V160.544C265.08 160.928 265.134 161.258 265.242 161.534C265.362 161.798 265.518 162.014 265.71 162.182C265.902 162.35 266.13 162.47 266.394 162.542C266.658 162.614 266.94 162.65 267.24 162.65C267.48 162.65 267.726 162.614 267.978 162.542C268.23 162.47 268.458 162.35 268.662 162.182C268.878 162.014 269.052 161.798 269.184 161.534C269.316 161.258 269.382 160.928 269.382 160.544V158.528ZM276.706 154.982C277.246 154.982 277.708 155.102 278.092 155.342C278.476 155.57 278.77 155.906 278.974 156.35C279.334 156.062 279.658 155.828 279.946 155.648C280.234 155.468 280.492 155.33 280.72 155.234C280.948 155.126 281.152 155.06 281.332 155.036C281.512 155 281.686 154.982 281.854 154.982C282.706 154.982 283.378 155.216 283.87 155.684C284.362 156.152 284.608 156.89 284.608 157.898V164H283.06V158.222C283.06 157.622 282.946 157.184 282.718 156.908C282.49 156.632 282.112 156.494 281.584 156.494C281.272 156.494 280.924 156.59 280.54 156.782C280.168 156.974 279.748 157.25 279.28 157.61C279.304 157.718 279.316 157.814 279.316 157.898C279.328 157.982 279.334 158.084 279.334 158.204V164H277.786V158.168C277.786 157.556 277.654 157.124 277.39 156.872C277.138 156.62 276.82 156.494 276.436 156.494C276.064 156.494 275.698 156.566 275.338 156.71C274.99 156.842 274.564 157.082 274.06 157.43V164H272.512V155.072H273.88L274.042 156.098C274.366 155.858 274.654 155.666 274.906 155.522C275.17 155.378 275.404 155.264 275.608 155.18C275.824 155.096 276.016 155.042 276.184 155.018C276.364 154.994 276.538 154.982 276.706 154.982Z" fill="#2E97DE"/>
<path d="M103.516 166.88H285.382V167.96H103.516V166.88Z" fill="#2E97DE"/>
</g>
<path d="M47.342 56.734C47.6793 56.4847 47.9653 56.184 48.2 55.832C48.4493 55.48 48.6547 55.04 48.816 54.512C48.9773 53.984 49.102 53.3533 49.19 52.62C49.2927 51.872 49.366 50.992 49.41 49.98L49.674 43.842H59.574C59.574 46.0127 59.574 48.1687 59.574 50.31C59.5887 52.4513 59.596 54.6 59.596 56.756H60.872V62.322H58.518V59H48.574V62.322H46.22V56.734H47.342ZM51.94 46.108L51.742 50.09C51.698 50.8967 51.654 51.63 51.61 52.29C51.566 52.95 51.4927 53.5513 51.39 54.094C51.2873 54.6367 51.1553 55.128 50.994 55.568C50.8327 56.008 50.6127 56.4113 50.334 56.778H57.066V46.108H51.94ZM71.8711 55.15C71.8711 55.7953 71.7391 56.3673 71.4751 56.866C71.2258 57.3647 70.8811 57.7827 70.4411 58.12C70.0158 58.4427 69.5245 58.692 68.9671 58.868C68.4098 59.0293 67.8305 59.11 67.2291 59.11C66.6131 59.11 66.0191 59.0293 65.4471 58.868C64.8898 58.692 64.3985 58.4427 63.9731 58.12C63.5625 57.7827 63.2325 57.3647 62.9831 56.866C62.7338 56.3673 62.6091 55.7953 62.6091 55.15V51.982C62.6091 51.3367 62.7338 50.7647 62.9831 50.266C63.2471 49.7673 63.5918 49.3493 64.0171 49.012C64.4425 48.6747 64.9338 48.418 65.4911 48.242C66.0485 48.066 66.6351 47.978 67.2511 47.978C67.9111 47.978 68.5198 48.066 69.0771 48.242C69.6345 48.418 70.1185 48.682 70.5291 49.034C70.9545 49.3713 71.2845 49.7893 71.5191 50.288C71.7538 50.7867 71.8711 51.3587 71.8711 52.004V55.15ZM69.5611 52.4C69.5611 51.9893 69.4878 51.6447 69.3411 51.366C69.2091 51.0727 69.0331 50.838 68.8131 50.662C68.5931 50.486 68.3438 50.3613 68.0651 50.288C67.7865 50.2 67.5151 50.156 67.2511 50.156C66.9871 50.156 66.7158 50.2 66.4371 50.288C66.1585 50.3613 65.9091 50.486 65.6891 50.662C65.4691 50.838 65.2858 51.0727 65.1391 51.366C65.0071 51.6447 64.9411 51.9893 64.9411 52.4V54.71C64.9411 55.5313 65.1685 56.1107 65.6231 56.448C66.0778 56.7853 66.6205 56.954 67.2511 56.954C67.5151 56.954 67.7865 56.9173 68.0651 56.844C68.3438 56.756 68.5931 56.624 68.8131 56.448C69.0331 56.272 69.2091 56.0447 69.3411 55.766C69.4878 55.4727 69.5611 55.1207 69.5611 54.71V52.4ZM76.441 49.43C76.617 49.2687 76.815 49.1367 77.035 49.034C77.255 48.9167 77.475 48.8213 77.695 48.748C77.9296 48.6747 78.157 48.6233 78.377 48.594C78.597 48.5647 78.7876 48.55 78.949 48.55C80.2836 48.55 81.3176 48.8947 82.051 49.584C82.799 50.2733 83.173 51.2927 83.173 52.642V55.018C83.173 55.678 83.041 56.2647 82.777 56.778C82.5276 57.2767 82.1903 57.702 81.765 58.054C81.3396 58.3913 80.841 58.6553 80.269 58.846C79.7116 59.022 79.1176 59.11 78.487 59.11C77.0643 59.11 75.935 58.758 75.099 58.054C74.2776 57.35 73.867 56.338 73.867 55.018V52.136C73.867 51.4613 73.889 50.8453 73.933 50.288C73.977 49.716 74.0576 49.188 74.175 48.704C74.307 48.22 74.4756 47.7727 74.681 47.362C74.8863 46.9367 75.143 46.526 75.451 46.13C75.6856 45.8367 75.9643 45.58 76.287 45.36C76.6096 45.1253 76.9543 44.92 77.321 44.744C77.6876 44.5533 78.069 44.3773 78.465 44.216C78.861 44.0547 79.2423 43.9007 79.609 43.754C79.7996 43.6807 79.9756 43.6147 80.137 43.556C80.2983 43.4827 80.4596 43.4167 80.621 43.358C80.7823 43.2847 80.951 43.2113 81.127 43.138C81.303 43.0647 81.501 42.9767 81.721 42.874L82.513 44.788C82.161 44.9493 81.8603 45.0813 81.611 45.184C81.3763 45.272 81.1636 45.3527 80.973 45.426C80.797 45.4993 80.6283 45.5653 80.467 45.624C80.3203 45.6827 80.1516 45.7487 79.961 45.822C79.433 46.042 78.9636 46.2547 78.553 46.46C78.1423 46.6653 77.783 46.9 77.475 47.164C77.1816 47.4133 76.9396 47.714 76.749 48.066C76.573 48.418 76.4483 48.8433 76.375 49.342L76.441 49.43ZM80.841 52.972C80.841 52.1507 80.6283 51.5713 80.203 51.234C79.7776 50.8967 79.2276 50.728 78.553 50.728C78.289 50.728 78.0176 50.772 77.739 50.86C77.4603 50.948 77.2036 51.0873 76.969 51.278C76.749 51.4687 76.5656 51.7107 76.419 52.004C76.287 52.2973 76.221 52.6493 76.221 53.06V54.71C76.221 55.1207 76.2796 55.4727 76.397 55.766C76.529 56.0447 76.6976 56.272 76.903 56.448C77.1083 56.624 77.3503 56.756 77.629 56.844C77.9223 56.9173 78.223 56.954 78.531 56.954C78.8243 56.954 79.1103 56.9173 79.389 56.844C79.6676 56.756 79.9096 56.624 80.115 56.448C80.335 56.272 80.511 56.0447 80.643 55.766C80.775 55.4727 80.841 55.1207 80.841 54.71V52.972ZM94.5183 55.216C94.5183 56.4333 94.1809 57.394 93.5063 58.098C92.8463 58.7873 91.9076 59.132 90.6903 59.132C90.3089 59.132 89.8543 59.0953 89.3263 59.022C88.7983 58.9487 88.2189 58.7653 87.5883 58.472V63.356H85.2563V48.11H87.3683L87.5883 49.188C88.3363 48.7333 88.9743 48.4253 89.5023 48.264C90.0303 48.088 90.4849 48 90.8663 48C91.9956 48 92.8829 48.3227 93.5283 48.968C94.1883 49.5987 94.5183 50.5887 94.5183 51.938V55.216ZM92.1643 52.136C92.1643 51.4027 92.0029 50.904 91.6803 50.64C91.3723 50.3613 90.9763 50.222 90.4923 50.222C90.3016 50.222 90.0816 50.2513 89.8323 50.31C89.5976 50.3687 89.3483 50.4493 89.0843 50.552C88.8203 50.6547 88.5563 50.772 88.2923 50.904C88.0429 51.036 87.8083 51.1753 87.5883 51.322V56.294C88.1749 56.5433 88.6736 56.712 89.0843 56.8C89.5096 56.888 89.9203 56.932 90.3163 56.932C90.5656 56.932 90.8003 56.9027 91.0203 56.844C91.2549 56.7853 91.4529 56.6827 91.6143 56.536C91.7903 56.3747 91.9223 56.1693 92.0103 55.92C92.1129 55.6707 92.1643 55.3627 92.1643 54.996V52.136ZM105.709 55.15C105.709 55.7953 105.577 56.3673 105.313 56.866C105.064 57.3647 104.719 57.7827 104.279 58.12C103.854 58.4427 103.362 58.692 102.805 58.868C102.248 59.0293 101.668 59.11 101.067 59.11C100.451 59.11 99.857 59.0293 99.285 58.868C98.7277 58.692 98.2364 58.4427 97.811 58.12C97.4004 57.7827 97.0704 57.3647 96.821 56.866C96.5717 56.3673 96.447 55.7953 96.447 55.15V51.982C96.447 51.3367 96.5717 50.7647 96.821 50.266C97.085 49.7673 97.4297 49.3493 97.855 49.012C98.2804 48.6747 98.7717 48.418 99.329 48.242C99.8864 48.066 100.473 47.978 101.089 47.978C101.749 47.978 102.358 48.066 102.915 48.242C103.472 48.418 103.956 48.682 104.367 49.034C104.792 49.3713 105.122 49.7893 105.357 50.288C105.592 50.7867 105.709 51.3587 105.709 52.004V55.15ZM103.399 52.4C103.399 51.9893 103.326 51.6447 103.179 51.366C103.047 51.0727 102.871 50.838 102.651 50.662C102.431 50.486 102.182 50.3613 101.903 50.288C101.624 50.2 101.353 50.156 101.089 50.156C100.825 50.156 100.554 50.2 100.275 50.288C99.9964 50.3613 99.747 50.486 99.527 50.662C99.307 50.838 99.1237 51.0727 98.977 51.366C98.845 51.6447 98.779 51.9893 98.779 52.4V54.71C98.779 55.5313 99.0064 56.1107 99.461 56.448C99.9157 56.7853 100.458 56.954 101.089 56.954C101.353 56.954 101.624 56.9173 101.903 56.844C102.182 56.756 102.431 56.624 102.651 56.448C102.871 56.272 103.047 56.0447 103.179 55.766C103.326 55.4727 103.399 55.1207 103.399 54.71V52.4ZM108.057 56.734C108.394 56.4847 108.68 56.184 108.915 55.832C109.164 55.48 109.37 55.04 109.531 54.512C109.692 53.984 109.817 53.3533 109.905 52.62C110.008 51.872 110.081 50.992 110.125 49.98L110.389 43.842H120.289C120.289 46.0127 120.289 48.1687 120.289 50.31C120.304 52.4513 120.311 54.6 120.311 56.756H121.587V62.322H119.233V59H109.289V62.322H106.935V56.734H108.057ZM112.655 46.108L112.457 50.09C112.413 50.8967 112.369 51.63 112.325 52.29C112.281 52.95 112.208 53.5513 112.105 54.094C112.002 54.6367 111.87 55.128 111.709 55.568C111.548 56.008 111.328 56.4113 111.049 56.778H117.781V46.108H112.655ZM132.586 55.15C132.586 55.7953 132.454 56.3673 132.19 56.866C131.941 57.3647 131.596 57.7827 131.156 58.12C130.731 58.4427 130.239 58.692 129.682 58.868C129.125 59.0293 128.545 59.11 127.944 59.11C127.328 59.11 126.734 59.0293 126.162 58.868C125.605 58.692 125.113 58.4427 124.688 58.12C124.277 57.7827 123.947 57.3647 123.698 56.866C123.449 56.3673 123.324 55.7953 123.324 55.15V51.982C123.324 51.3367 123.449 50.7647 123.698 50.266C123.962 49.7673 124.307 49.3493 124.732 49.012C125.157 48.6747 125.649 48.418 126.206 48.242C126.763 48.066 127.35 47.978 127.966 47.978C128.626 47.978 129.235 48.066 129.792 48.242C130.349 48.418 130.833 48.682 131.244 49.034C131.669 49.3713 131.999 49.7893 132.234 50.288C132.469 50.7867 132.586 51.3587 132.586 52.004V55.15ZM130.276 52.4C130.276 51.9893 130.203 51.6447 130.056 51.366C129.924 51.0727 129.748 50.838 129.528 50.662C129.308 50.486 129.059 50.3613 128.78 50.288C128.501 50.2 128.23 50.156 127.966 50.156C127.702 50.156 127.431 50.2 127.152 50.288C126.873 50.3613 126.624 50.486 126.404 50.662C126.184 50.838 126.001 51.0727 125.854 51.366C125.722 51.6447 125.656 51.9893 125.656 52.4V54.71C125.656 55.5313 125.883 56.1107 126.338 56.448C126.793 56.7853 127.335 56.954 127.966 56.954C128.23 56.954 128.501 56.9173 128.78 56.844C129.059 56.756 129.308 56.624 129.528 56.448C129.748 56.272 129.924 56.0447 130.056 55.766C130.203 55.4727 130.276 55.1207 130.276 54.71V52.4ZM140.456 54.776L142.282 51.344L144.042 48.11H146.132V59H143.8V53.038H143.69L141.16 57.592H139.576L138.366 55.348L137.178 53.104H137.046V59H134.714V48.11H136.848L138.586 51.388L140.324 54.776H140.456ZM154.231 63.048V43.138H156.079V63.048H154.231ZM173.079 47.076C172.654 46.7093 172.155 46.438 171.583 46.262C171.011 46.086 170.454 45.998 169.911 45.998C169.53 45.998 169.149 46.0567 168.767 46.174C168.401 46.2913 168.071 46.4747 167.777 46.724C167.484 46.9733 167.242 47.296 167.051 47.692C166.875 48.088 166.787 48.5647 166.787 49.122V53.72C166.787 54.2773 166.875 54.754 167.051 55.15C167.242 55.546 167.484 55.8687 167.777 56.118C168.085 56.3673 168.423 56.5507 168.789 56.668C169.156 56.7853 169.523 56.844 169.889 56.844C170.432 56.844 170.982 56.7707 171.539 56.624C172.097 56.4627 172.625 56.184 173.123 55.788L174.311 57.724C173.798 58.1493 173.153 58.494 172.375 58.758C171.598 59.022 170.769 59.154 169.889 59.154C169.156 59.154 168.452 59.0513 167.777 58.846C167.103 58.626 166.501 58.3107 165.973 57.9C165.46 57.4747 165.042 56.954 164.719 56.338C164.411 55.722 164.257 55.018 164.257 54.226V48.616C164.257 47.824 164.411 47.1273 164.719 46.526C165.042 45.91 165.46 45.3967 165.973 44.986C166.501 44.5607 167.103 44.238 167.777 44.018C168.452 43.798 169.149 43.688 169.867 43.688C170.703 43.688 171.503 43.8053 172.265 44.04C173.043 44.2747 173.725 44.634 174.311 45.118L173.079 47.076ZM180.8 50.112V59H178.424V50.112H175.19V48.088H184.034V50.112H180.8ZM194.571 55.216C194.571 56.4333 194.234 57.394 193.559 58.098C192.899 58.7873 191.96 59.132 190.743 59.132C190.362 59.132 189.907 59.0953 189.379 59.022C188.851 58.9487 188.272 58.7653 187.641 58.472V63.356H185.309V48.11H187.421L187.641 49.188C188.389 48.7333 189.027 48.4253 189.555 48.264C190.083 48.088 190.538 48 190.919 48C192.048 48 192.936 48.3227 193.581 48.968C194.241 49.5987 194.571 50.5887 194.571 51.938V55.216ZM192.217 52.136C192.217 51.4027 192.056 50.904 191.733 50.64C191.425 50.3613 191.029 50.222 190.545 50.222C190.354 50.222 190.134 50.2513 189.885 50.31C189.65 50.3687 189.401 50.4493 189.137 50.552C188.873 50.6547 188.609 50.772 188.345 50.904C188.096 51.036 187.861 51.1753 187.641 51.322V56.294C188.228 56.5433 188.726 56.712 189.137 56.8C189.562 56.888 189.973 56.932 190.369 56.932C190.618 56.932 190.853 56.9027 191.073 56.844C191.308 56.7853 191.506 56.6827 191.667 56.536C191.843 56.3747 191.975 56.1693 192.063 55.92C192.166 55.6707 192.217 55.3627 192.217 54.996V52.136ZM205.762 55.15C205.762 55.7953 205.63 56.3673 205.366 56.866C205.116 57.3647 204.772 57.7827 204.332 58.12C203.906 58.4427 203.415 58.692 202.858 58.868C202.3 59.0293 201.721 59.11 201.12 59.11C200.504 59.11 199.91 59.0293 199.338 58.868C198.78 58.692 198.289 58.4427 197.864 58.12C197.453 57.7827 197.123 57.3647 196.874 56.866C196.624 56.3673 196.5 55.7953 196.5 55.15V51.982C196.5 51.3367 196.624 50.7647 196.874 50.266C197.138 49.7673 197.482 49.3493 197.908 49.012C198.333 48.6747 198.824 48.418 199.382 48.242C199.939 48.066 200.526 47.978 201.142 47.978C201.802 47.978 202.41 48.066 202.968 48.242C203.525 48.418 204.009 48.682 204.42 49.034C204.845 49.3713 205.175 49.7893 205.41 50.288C205.644 50.7867 205.762 51.3587 205.762 52.004V55.15ZM203.452 52.4C203.452 51.9893 203.378 51.6447 203.232 51.366C203.1 51.0727 202.924 50.838 202.704 50.662C202.484 50.486 202.234 50.3613 201.956 50.288C201.677 50.2 201.406 50.156 201.142 50.156C200.878 50.156 200.606 50.2 200.328 50.288C200.049 50.3613 199.8 50.486 199.58 50.662C199.36 50.838 199.176 51.0727 199.03 51.366C198.898 51.6447 198.832 51.9893 198.832 52.4V54.71C198.832 55.5313 199.059 56.1107 199.514 56.448C199.968 56.7853 200.511 56.954 201.142 56.954C201.406 56.954 201.677 56.9173 201.956 56.844C202.234 56.756 202.484 56.624 202.704 56.448C202.924 56.272 203.1 56.0447 203.232 55.766C203.378 55.4727 203.452 55.1207 203.452 54.71V52.4ZM214.732 51.828L212.994 54.556L209.958 59H207.868V48.11H210.222V55.26H210.31L211.916 52.862L215.084 48.11H217.196V59H214.842V51.828H214.732ZM224.113 50.112V59H221.737V50.112H218.503V48.088H227.347V50.112H224.113ZM230.865 54.314V54.864C230.865 55.2453 230.931 55.5753 231.063 55.854C231.195 56.118 231.364 56.338 231.569 56.514C231.789 56.6753 232.039 56.8 232.317 56.888C232.611 56.9613 232.911 56.998 233.219 56.998C233.557 56.998 233.96 56.9393 234.429 56.822C234.913 56.7047 235.39 56.4333 235.859 56.008C236.094 56.2867 236.321 56.558 236.541 56.822C236.776 57.0713 237.003 57.3353 237.223 57.614C236.607 58.2153 235.955 58.6187 235.265 58.824C234.591 59.0147 233.909 59.11 233.219 59.11C232.589 59.11 231.987 59.0293 231.415 58.868C230.858 58.7067 230.359 58.4647 229.919 58.142C229.494 57.8047 229.157 57.3867 228.907 56.888C228.658 56.3893 228.533 55.8027 228.533 55.128V52.268C228.533 51.608 228.643 51.014 228.863 50.486C229.098 49.958 229.421 49.5107 229.831 49.144C230.242 48.7773 230.719 48.4987 231.261 48.308C231.804 48.1027 232.398 48 233.043 48C233.703 48 234.312 48.0953 234.869 48.286C235.427 48.4767 235.903 48.7553 236.299 49.122C236.71 49.474 237.025 49.9067 237.245 50.42C237.465 50.9333 237.575 51.52 237.575 52.18V54.314H230.865ZM235.221 52.312C235.221 51.5493 235.009 50.9993 234.583 50.662C234.158 50.31 233.652 50.134 233.065 50.134C232.479 50.134 231.965 50.3173 231.525 50.684C231.1 51.036 230.887 51.5713 230.887 52.29V52.642H235.221V52.312ZM243.034 52.796C243.034 53.852 242.946 54.754 242.77 55.502C242.609 56.25 242.359 56.8807 242.022 57.394C241.699 57.8927 241.296 58.296 240.812 58.604C240.328 58.912 239.771 59.1467 239.14 59.308L238.458 57.438C238.869 57.2767 239.221 57.1007 239.514 56.91C239.807 56.7193 240.042 56.4553 240.218 56.118C240.409 55.7807 240.541 55.348 240.614 54.82C240.702 54.292 240.746 53.61 240.746 52.774V48.11H248.622V59H246.29V50.112H243.034V52.796ZM253.297 57.02H255.893C256.45 57.02 256.875 56.8953 257.169 56.646C257.462 56.382 257.609 56.0227 257.609 55.568C257.609 55.216 257.477 54.8933 257.213 54.6C256.949 54.3067 256.509 54.16 255.893 54.16H253.297V57.02ZM251.009 59V48.088H253.319V52.202H256.025C257.286 52.202 258.247 52.5173 258.907 53.148C259.567 53.764 259.897 54.5707 259.897 55.568C259.897 56.0373 259.816 56.4847 259.655 56.91C259.493 57.3207 259.251 57.68 258.929 57.988C258.621 58.296 258.225 58.5453 257.741 58.736C257.257 58.912 256.692 59 256.047 59H251.009ZM269.419 57.636C268.832 58.2373 268.209 58.6333 267.549 58.824C266.889 59.0147 266.229 59.11 265.569 59.11C264.953 59.11 264.373 59.022 263.831 58.846C263.288 58.67 262.819 58.4133 262.423 58.076C262.027 57.7387 261.711 57.3353 261.477 56.866C261.257 56.382 261.147 55.832 261.147 55.216V51.982C261.147 51.3367 261.271 50.7647 261.521 50.266C261.77 49.7673 262.1 49.3493 262.511 49.012C262.921 48.6747 263.391 48.418 263.919 48.242C264.447 48.066 264.989 47.978 265.547 47.978C265.869 47.978 266.199 48 266.537 48.044C266.874 48.0733 267.204 48.1393 267.527 48.242C267.864 48.33 268.187 48.4693 268.495 48.66C268.817 48.836 269.125 49.078 269.419 49.386L268.055 51.124C267.556 50.6693 267.109 50.3907 266.713 50.288C266.331 50.1853 265.994 50.134 265.701 50.134C265.451 50.134 265.195 50.178 264.931 50.266C264.667 50.3393 264.425 50.464 264.205 50.64C263.999 50.816 263.823 51.0507 263.677 51.344C263.545 51.6227 263.479 51.9673 263.479 52.378V54.71C263.479 55.1207 263.537 55.4727 263.655 55.766C263.787 56.0447 263.955 56.272 264.161 56.448C264.366 56.624 264.601 56.756 264.865 56.844C265.129 56.9173 265.4 56.954 265.679 56.954C265.987 56.954 266.361 56.888 266.801 56.756C267.241 56.6093 267.637 56.3673 267.989 56.03L269.419 57.636ZM275.654 50.112V59H273.278V50.112H270.044V48.088H278.888V50.112H275.654ZM289.095 55.722C289.095 56.1473 289.021 56.558 288.875 56.954C288.728 57.35 288.508 57.702 288.215 58.01C287.921 58.3033 287.555 58.5453 287.115 58.736C286.675 58.912 286.161 59 285.575 59H280.053V48.11H285.53C286.103 48.11 286.601 48.1907 287.027 48.352C287.452 48.5133 287.797 48.7333 288.061 49.012C288.339 49.276 288.545 49.5913 288.677 49.958C288.823 50.31 288.897 50.684 288.897 51.08C288.897 51.5053 288.772 51.9307 288.523 52.356C288.288 52.7813 287.958 53.0967 287.533 53.302C288.046 53.5367 288.435 53.874 288.699 54.314C288.963 54.754 289.095 55.2233 289.095 55.722ZM286.719 55.656C286.719 55.2453 286.572 54.9227 286.279 54.688C285.985 54.4533 285.633 54.336 285.223 54.336H282.407V57.042H285.091C285.648 57.042 286.059 56.9173 286.323 56.668C286.587 56.4187 286.719 56.0813 286.719 55.656ZM286.565 51.256C286.565 50.86 286.418 50.574 286.125 50.398C285.846 50.2073 285.516 50.112 285.135 50.112H282.407V52.378H285.201C285.626 52.378 285.956 52.2827 286.191 52.092C286.44 51.8867 286.565 51.608 286.565 51.256ZM300.25 55.15C300.25 55.7953 300.118 56.3673 299.854 56.866C299.605 57.3647 299.26 57.7827 298.82 58.12C298.395 58.4427 297.903 58.692 297.346 58.868C296.789 59.0293 296.209 59.11 295.608 59.11C294.992 59.11 294.398 59.0293 293.826 58.868C293.269 58.692 292.777 58.4427 292.352 58.12C291.941 57.7827 291.611 57.3647 291.362 56.866C291.113 56.3673 290.988 55.7953 290.988 55.15V51.982C290.988 51.3367 291.113 50.7647 291.362 50.266C291.626 49.7673 291.971 49.3493 292.396 49.012C292.821 48.6747 293.313 48.418 293.87 48.242C294.427 48.066 295.014 47.978 295.63 47.978C296.29 47.978 296.899 48.066 297.456 48.242C298.013 48.418 298.497 48.682 298.908 49.034C299.333 49.3713 299.663 49.7893 299.898 50.288C300.133 50.7867 300.25 51.3587 300.25 52.004V55.15ZM297.94 52.4C297.94 51.9893 297.867 51.6447 297.72 51.366C297.588 51.0727 297.412 50.838 297.192 50.662C296.972 50.486 296.723 50.3613 296.444 50.288C296.165 50.2 295.894 50.156 295.63 50.156C295.366 50.156 295.095 50.2 294.816 50.288C294.537 50.3613 294.288 50.486 294.068 50.662C293.848 50.838 293.665 51.0727 293.518 51.366C293.386 51.6447 293.32 51.9893 293.32 52.4V54.71C293.32 55.5313 293.547 56.1107 294.002 56.448C294.457 56.7853 294.999 56.954 295.63 56.954C295.894 56.954 296.165 56.9173 296.444 56.844C296.723 56.756 296.972 56.624 297.192 56.448C297.412 56.272 297.588 56.0447 297.72 55.766C297.867 55.4727 297.94 55.1207 297.94 54.71V52.4ZM50.906 74.112L50.774 76.62C50.7153 77.5733 50.6273 78.4093 50.51 79.128C50.4073 79.8467 50.202 80.4627 49.894 80.976H54.712V74.112H50.906ZM46.264 81.02C46.396 81.02 46.528 81.02 46.66 81.02C46.8067 81.02 46.9387 81.0127 47.056 80.998C47.5693 80.6313 47.936 80.118 48.156 79.458C48.376 78.7833 48.5227 77.8593 48.596 76.686L48.882 72.11H57.022V80.976C57.1833 80.976 57.3447 80.9833 57.506 80.998C57.6673 80.998 57.8287 80.998 57.99 80.998V85.816H55.856V83H48.398V85.816H46.264V81.02ZM68.9278 79.15C68.9278 79.7953 68.7958 80.3673 68.5318 80.866C68.2824 81.3647 67.9378 81.7827 67.4978 82.12C67.0724 82.4427 66.5811 82.692 66.0238 82.868C65.4664 83.0293 64.8871 83.11 64.2858 83.11C63.6698 83.11 63.0758 83.0293 62.5038 82.868C61.9464 82.692 61.4551 82.4427 61.0298 82.12C60.6191 81.7827 60.2891 81.3647 60.0398 80.866C59.7904 80.3673 59.6658 79.7953 59.6658 79.15V75.982C59.6658 75.3367 59.7904 74.7647 60.0398 74.266C60.3038 73.7673 60.6484 73.3493 61.0738 73.012C61.4991 72.6747 61.9904 72.418 62.5478 72.242C63.1051 72.066 63.6918 71.978 64.3078 71.978C64.9678 71.978 65.5764 72.066 66.1338 72.242C66.6911 72.418 67.1751 72.682 67.5858 73.034C68.0111 73.3713 68.3411 73.7893 68.5758 74.288C68.8104 74.7867 68.9278 75.3587 68.9278 76.004V79.15ZM66.6178 76.4C66.6178 75.9893 66.5444 75.6447 66.3978 75.366C66.2658 75.0727 66.0898 74.838 65.8698 74.662C65.6498 74.486 65.4004 74.3613 65.1218 74.288C64.8431 74.2 64.5718 74.156 64.3078 74.156C64.0438 74.156 63.7724 74.2 63.4938 74.288C63.2151 74.3613 62.9658 74.486 62.7458 74.662C62.5258 74.838 62.3424 75.0727 62.1958 75.366C62.0638 75.6447 61.9978 75.9893 61.9978 76.4V78.71C61.9978 79.5313 62.2251 80.1107 62.6798 80.448C63.1344 80.7853 63.6771 80.954 64.3078 80.954C64.5718 80.954 64.8431 80.9173 65.1218 80.844C65.4004 80.756 65.6498 80.624 65.8698 80.448C66.0898 80.272 66.2658 80.0447 66.3978 79.766C66.5444 79.4727 66.6178 79.1207 66.6178 78.71V76.4ZM76.7976 78.776L78.6236 75.344L80.3836 72.11H82.4736V83H80.1416V77.038H80.0316L77.5016 81.592H75.9176L74.7076 79.348L73.5196 77.104H73.3876V83H71.0556V72.11H73.1896L74.9276 75.388L76.6656 78.776H76.7976ZM93.8711 79.15C93.8711 79.7953 93.7391 80.3673 93.4751 80.866C93.2258 81.3647 92.8811 81.7827 92.4411 82.12C92.0158 82.4427 91.5245 82.692 90.9671 82.868C90.4098 83.0293 89.8305 83.11 89.2291 83.11C88.6131 83.11 88.0191 83.0293 87.4471 82.868C86.8898 82.692 86.3985 82.4427 85.9731 82.12C85.5625 81.7827 85.2325 81.3647 84.9831 80.866C84.7338 80.3673 84.6091 79.7953 84.6091 79.15V75.982C84.6091 75.3367 84.7338 74.7647 84.9831 74.266C85.2471 73.7673 85.5918 73.3493 86.0171 73.012C86.4425 72.6747 86.9338 72.418 87.4911 72.242C88.0485 72.066 88.6351 71.978 89.2511 71.978C89.9111 71.978 90.5198 72.066 91.0771 72.242C91.6345 72.418 92.1185 72.682 92.5291 73.034C92.9545 73.3713 93.2845 73.7893 93.5191 74.288C93.7538 74.7867 93.8711 75.3587 93.8711 76.004V79.15ZM91.5611 76.4C91.5611 75.9893 91.4878 75.6447 91.3411 75.366C91.2091 75.0727 91.0331 74.838 90.8131 74.662C90.5931 74.486 90.3438 74.3613 90.0651 74.288C89.7865 74.2 89.5151 74.156 89.2511 74.156C88.9871 74.156 88.7158 74.2 88.4371 74.288C88.1585 74.3613 87.9091 74.486 87.6891 74.662C87.4691 74.838 87.2858 75.0727 87.1391 75.366C87.0071 75.6447 86.9411 75.9893 86.9411 76.4V78.71C86.9411 79.5313 87.1685 80.1107 87.6231 80.448C88.0778 80.7853 88.6205 80.954 89.2511 80.954C89.5151 80.954 89.7865 80.9173 90.0651 80.844C90.3438 80.756 90.5931 80.624 90.8131 80.448C91.0331 80.272 91.2091 80.0447 91.3411 79.766C91.4878 79.4727 91.5611 79.1207 91.5611 78.71V76.4ZM104.909 79.722C104.909 80.1473 104.836 80.558 104.689 80.954C104.542 81.35 104.322 81.702 104.029 82.01C103.736 82.3033 103.369 82.5453 102.929 82.736C102.489 82.912 101.976 83 101.389 83H95.867V72.11H101.345C101.917 72.11 102.416 72.1907 102.841 72.352C103.266 72.5133 103.611 72.7333 103.875 73.012C104.154 73.276 104.359 73.5913 104.491 73.958C104.638 74.31 104.711 74.684 104.711 75.08C104.711 75.5053 104.586 75.9307 104.337 76.356C104.102 76.7813 103.772 77.0967 103.347 77.302C103.86 77.5367 104.249 77.874 104.513 78.314C104.777 78.754 104.909 79.2233 104.909 79.722ZM102.533 79.656C102.533 79.2453 102.386 78.9227 102.093 78.688C101.8 78.4533 101.448 78.336 101.037 78.336H98.221V81.042H100.905C101.462 81.042 101.873 80.9173 102.137 80.668C102.401 80.4187 102.533 80.0813 102.533 79.656ZM102.379 75.256C102.379 74.86 102.232 74.574 101.939 74.398C101.66 74.2073 101.33 74.112 100.949 74.112H98.221V76.378H101.015C101.44 76.378 101.77 76.2827 102.005 76.092C102.254 75.8867 102.379 75.608 102.379 75.256ZM119.278 83V78.49H114.68V83H112.37V72.11H114.68V76.466H119.278V72.11H121.632V83H119.278ZM130.53 82.01C129.753 82.45 129.093 82.7433 128.55 82.89C128.022 83.022 127.531 83.088 127.076 83.088C125.991 83.088 125.14 82.7947 124.524 82.208C123.908 81.6213 123.6 80.8147 123.6 79.788C123.6 79.1867 123.732 78.6807 123.996 78.27C124.26 77.8593 124.59 77.5293 124.986 77.28C125.382 77.016 125.808 76.8253 126.262 76.708C126.732 76.5907 127.164 76.532 127.56 76.532H130.574V75.872C130.574 75.2267 130.391 74.7647 130.024 74.486C129.658 74.2073 129.093 74.068 128.33 74.068C127.964 74.068 127.509 74.1267 126.966 74.244C126.438 74.3467 125.903 74.618 125.36 75.058L124.282 73.32C125.016 72.7627 125.749 72.4033 126.482 72.242C127.23 72.066 127.92 71.978 128.55 71.978C130.046 71.978 131.146 72.308 131.85 72.968C132.554 73.628 132.906 74.6327 132.906 75.982V83H130.794L130.596 82.054L130.53 82.01ZM130.574 78.336H127.956C127.751 78.336 127.538 78.3507 127.318 78.38C127.098 78.4093 126.893 78.4753 126.702 78.578C126.526 78.666 126.372 78.798 126.24 78.974C126.123 79.15 126.064 79.392 126.064 79.7C126.064 80.1107 126.211 80.4333 126.504 80.668C126.798 80.888 127.186 80.998 127.67 80.998C127.934 80.998 128.198 80.9687 128.462 80.91C128.726 80.8367 128.983 80.756 129.232 80.668C129.496 80.5653 129.738 80.4553 129.958 80.338C130.193 80.2207 130.398 80.1107 130.574 80.008V78.336ZM146.609 79.986C146.359 80.6313 146.103 81.1593 145.839 81.57C145.575 81.9807 145.289 82.3107 144.981 82.56C144.673 82.7947 144.343 82.956 143.991 83.044C143.639 83.132 143.265 83.176 142.869 83.176H141.219V81.042H142.539C142.905 81.042 143.199 80.976 143.419 80.844C143.639 80.712 143.844 80.4553 144.035 80.074L144.233 79.678C143.441 77.7127 142.663 75.7473 141.901 73.782C141.138 71.802 140.368 69.822 139.591 67.842H142.209C142.253 67.974 142.355 68.2673 142.517 68.722C142.693 69.162 142.891 69.69 143.111 70.306C143.331 70.9073 143.565 71.5527 143.815 72.242C144.064 72.9167 144.299 73.562 144.519 74.178C144.739 74.7793 144.929 75.3147 145.091 75.784C145.252 76.2387 145.362 76.5393 145.421 76.686H145.531C145.604 76.4513 145.721 76.0993 145.883 75.63C146.059 75.1607 146.249 74.6327 146.455 74.046C146.675 73.4593 146.895 72.8433 147.115 72.198C147.349 71.5527 147.569 70.944 147.775 70.372C147.995 69.8 148.185 69.2867 148.347 68.832C148.508 68.3773 148.625 68.0473 148.699 67.842H151.207L146.609 79.986ZM169.773 67.842V83H152.613V67.842H155.121V80.756H159.917V67.842H162.403V80.756H167.243V67.842H169.773ZM181.094 83V70.108H174.736V83H172.228V67.842H183.646V83H181.094ZM197.527 79.986C197.277 80.6313 197.021 81.1593 196.757 81.57C196.493 81.9807 196.207 82.3107 195.899 82.56C195.591 82.7947 195.261 82.956 194.909 83.044C194.557 83.132 194.183 83.176 193.787 83.176H192.137V81.042H193.457C193.823 81.042 194.117 80.976 194.337 80.844C194.557 80.712 194.762 80.4553 194.953 80.074L195.151 79.678C194.359 77.7127 193.581 75.7473 192.819 73.782C192.056 71.802 191.286 69.822 190.509 67.842H193.127C193.171 67.974 193.273 68.2673 193.435 68.722C193.611 69.162 193.809 69.69 194.029 70.306C194.249 70.9073 194.483 71.5527 194.733 72.242C194.982 72.9167 195.217 73.562 195.437 74.178C195.657 74.7793 195.847 75.3147 196.009 75.784C196.17 76.2387 196.28 76.5393 196.339 76.686H196.449C196.522 76.4513 196.639 76.0993 196.801 75.63C196.977 75.1607 197.167 74.6327 197.373 74.046C197.593 73.4593 197.813 72.8433 198.033 72.198C198.267 71.5527 198.487 70.944 198.693 70.372C198.913 69.8 199.103 69.2867 199.265 68.832C199.426 68.3773 199.543 68.0473 199.617 67.842H202.125L197.527 79.986ZM212.155 68.414C213.05 68.4433 213.871 68.612 214.619 68.92C215.367 69.2133 216.005 69.6093 216.533 70.108C217.061 70.592 217.472 71.1713 217.765 71.846C218.059 72.506 218.205 73.2173 218.205 73.98V76.07C218.205 76.862 218.059 77.5953 217.765 78.27C217.487 78.9447 217.083 79.5387 216.555 80.052C216.042 80.5507 215.411 80.954 214.663 81.262C213.915 81.5553 213.079 81.7167 212.155 81.746V83H209.625V81.746C208.687 81.702 207.843 81.5333 207.095 81.24C206.347 80.9467 205.709 80.5507 205.181 80.052C204.668 79.5533 204.272 78.974 203.993 78.314C203.715 77.6393 203.575 76.906 203.575 76.114V73.98C203.575 73.2173 203.722 72.506 204.015 71.846C204.323 71.1713 204.741 70.592 205.269 70.108C205.812 69.6093 206.45 69.2133 207.183 68.92C207.931 68.612 208.745 68.4433 209.625 68.414V67.688H212.155V68.414ZM215.719 74.222C215.719 73.694 215.631 73.2173 215.455 72.792C215.279 72.3667 215.037 72 214.729 71.692C214.421 71.384 214.047 71.1493 213.607 70.988C213.167 70.812 212.683 70.7167 212.155 70.702V79.48C212.669 79.4653 213.138 79.3773 213.563 79.216C214.003 79.04 214.385 78.8053 214.707 78.512C215.03 78.204 215.279 77.8373 215.455 77.412C215.631 76.9867 215.719 76.5027 215.719 75.96V74.222ZM206.061 75.96C206.061 76.5027 206.149 76.9867 206.325 77.412C206.516 77.8373 206.773 78.204 207.095 78.512C207.418 78.8053 207.792 79.04 208.217 79.216C208.657 79.3773 209.127 79.4653 209.625 79.48V70.702C209.112 70.7167 208.635 70.812 208.195 70.988C207.77 71.1493 207.396 71.384 207.073 71.692C206.751 72 206.501 72.3667 206.325 72.792C206.149 73.2173 206.061 73.694 206.061 74.222V75.96ZM229.364 68.414C230.259 68.4433 231.08 68.612 231.828 68.92C232.576 69.2133 233.214 69.6093 233.742 70.108C234.27 70.592 234.681 71.1713 234.974 71.846C235.268 72.506 235.414 73.2173 235.414 73.98V76.07C235.414 76.862 235.268 77.5953 234.974 78.27C234.696 78.9447 234.292 79.5387 233.764 80.052C233.251 80.5507 232.62 80.954 231.872 81.262C231.124 81.5553 230.288 81.7167 229.364 81.746V83H226.834V81.746C225.896 81.702 225.052 81.5333 224.304 81.24C223.556 80.9467 222.918 80.5507 222.39 80.052C221.877 79.5533 221.481 78.974 221.202 78.314C220.924 77.6393 220.784 76.906 220.784 76.114V73.98C220.784 73.2173 220.931 72.506 221.224 71.846C221.532 71.1713 221.95 70.592 222.478 70.108C223.021 69.6093 223.659 69.2133 224.392 68.92C225.14 68.612 225.954 68.4433 226.834 68.414V67.688H229.364V68.414ZM232.928 74.222C232.928 73.694 232.84 73.2173 232.664 72.792C232.488 72.3667 232.246 72 231.938 71.692C231.63 71.384 231.256 71.1493 230.816 70.988C230.376 70.812 229.892 70.7167 229.364 70.702V79.48C229.878 79.4653 230.347 79.3773 230.772 79.216C231.212 79.04 231.594 78.8053 231.916 78.512C232.239 78.204 232.488 77.8373 232.664 77.412C232.84 76.9867 232.928 76.5027 232.928 75.96V74.222ZM223.27 75.96C223.27 76.5027 223.358 76.9867 223.534 77.412C223.725 77.8373 223.982 78.204 224.304 78.512C224.627 78.8053 225.001 79.04 225.426 79.216C225.866 79.3773 226.336 79.4653 226.834 79.48V70.702C226.321 70.7167 225.844 70.812 225.404 70.988C224.979 71.1493 224.605 71.384 224.282 71.692C223.96 72 223.71 72.3667 223.534 72.792C223.358 73.2173 223.27 73.694 223.27 74.222V75.96ZM249.171 70.13V83H246.641V70.13H242.439V67.842H253.351V70.13H249.171ZM261.456 82.01C260.679 82.45 260.019 82.7433 259.476 82.89C258.948 83.022 258.457 83.088 258.002 83.088C256.917 83.088 256.066 82.7947 255.45 82.208C254.834 81.6213 254.526 80.8147 254.526 79.788C254.526 79.1867 254.658 78.6807 254.922 78.27C255.186 77.8593 255.516 77.5293 255.912 77.28C256.308 77.016 256.733 76.8253 257.188 76.708C257.657 76.5907 258.09 76.532 258.486 76.532H261.5V75.872C261.5 75.2267 261.317 74.7647 260.95 74.486C260.583 74.2073 260.019 74.068 259.256 74.068C258.889 74.068 258.435 74.1267 257.892 74.244C257.364 74.3467 256.829 74.618 256.286 75.058L255.208 73.32C255.941 72.7627 256.675 72.4033 257.408 72.242C258.156 72.066 258.845 71.978 259.476 71.978C260.972 71.978 262.072 72.308 262.776 72.968C263.48 73.628 263.832 74.6327 263.832 75.982V83H261.72L261.522 82.054L261.456 82.01ZM261.5 78.336H258.882C258.677 78.336 258.464 78.3507 258.244 78.38C258.024 78.4093 257.819 78.4753 257.628 78.578C257.452 78.666 257.298 78.798 257.166 78.974C257.049 79.15 256.99 79.392 256.99 79.7C256.99 80.1107 257.137 80.4333 257.43 80.668C257.723 80.888 258.112 80.998 258.596 80.998C258.86 80.998 259.124 80.9687 259.388 80.91C259.652 80.8367 259.909 80.756 260.158 80.668C260.422 80.5653 260.664 80.4553 260.884 80.338C261.119 80.2207 261.324 80.1107 261.5 80.008V78.336ZM271.747 78.776L273.573 75.344L275.333 72.11H277.423V83H275.091V77.038H274.981L272.451 81.592H270.867L269.657 79.348L268.469 77.104H268.337V83H266.005V72.11H268.139L269.877 75.388L271.615 78.776H271.747ZM282.132 73.43C282.308 73.2687 282.506 73.1367 282.726 73.034C282.946 72.9167 283.166 72.8213 283.386 72.748C283.621 72.6747 283.848 72.6233 284.068 72.594C284.288 72.5647 284.479 72.55 284.64 72.55C285.975 72.55 287.009 72.8947 287.742 73.584C288.49 74.2733 288.864 75.2927 288.864 76.642V79.018C288.864 79.678 288.732 80.2647 288.468 80.778C288.219 81.2767 287.882 81.702 287.456 82.054C287.031 82.3913 286.532 82.6553 285.96 82.846C285.403 83.022 284.809 83.11 284.178 83.11C282.756 83.11 281.626 82.758 280.79 82.054C279.969 81.35 279.558 80.338 279.558 79.018V76.136C279.558 75.4613 279.58 74.8453 279.624 74.288C279.668 73.716 279.749 73.188 279.866 72.704C279.998 72.22 280.167 71.7727 280.372 71.362C280.578 70.9367 280.834 70.526 281.142 70.13C281.377 69.8367 281.656 69.58 281.978 69.36C282.301 69.1253 282.646 68.92 283.012 68.744C283.379 68.5533 283.76 68.3773 284.156 68.216C284.552 68.0547 284.934 67.9007 285.3 67.754C285.491 67.6807 285.667 67.6147 285.828 67.556C285.99 67.4827 286.151 67.4167 286.312 67.358C286.474 67.2847 286.642 67.2113 286.818 67.138C286.994 67.0647 287.192 66.9767 287.412 66.874L288.204 68.788C287.852 68.9493 287.552 69.0813 287.302 69.184C287.068 69.272 286.855 69.3527 286.664 69.426C286.488 69.4993 286.32 69.5653 286.158 69.624C286.012 69.6827 285.843 69.7487 285.652 69.822C285.124 70.042 284.655 70.2547 284.244 70.46C283.834 70.6653 283.474 70.9 283.166 71.164C282.873 71.4133 282.631 71.714 282.44 72.066C282.264 72.418 282.14 72.8433 282.066 73.342L282.132 73.43ZM286.532 76.972C286.532 76.1507 286.32 75.5713 285.894 75.234C285.469 74.8967 284.919 74.728 284.244 74.728C283.98 74.728 283.709 74.772 283.43 74.86C283.152 74.948 282.895 75.0873 282.66 75.278C282.44 75.4687 282.257 75.7107 282.11 76.004C281.978 76.2973 281.912 76.6493 281.912 77.06V78.71C281.912 79.1207 281.971 79.4727 282.088 79.766C282.22 80.0447 282.389 80.272 282.594 80.448C282.8 80.624 283.042 80.756 283.32 80.844C283.614 80.9173 283.914 80.954 284.222 80.954C284.516 80.954 284.802 80.9173 285.08 80.844C285.359 80.756 285.601 80.624 285.806 80.448C286.026 80.272 286.202 80.0447 286.334 79.766C286.466 79.4727 286.532 79.1207 286.532 78.71V76.972ZM300.1 79.15C300.1 79.7953 299.968 80.3673 299.704 80.866C299.454 81.3647 299.11 81.7827 298.67 82.12C298.244 82.4427 297.753 82.692 297.196 82.868C296.638 83.0293 296.059 83.11 295.458 83.11C294.842 83.11 294.248 83.0293 293.676 82.868C293.118 82.692 292.627 82.4427 292.202 82.12C291.791 81.7827 291.461 81.3647 291.212 80.866C290.962 80.3673 290.838 79.7953 290.838 79.15V75.982C290.838 75.3367 290.962 74.7647 291.212 74.266C291.476 73.7673 291.82 73.3493 292.246 73.012C292.671 72.6747 293.162 72.418 293.72 72.242C294.277 72.066 294.864 71.978 295.48 71.978C296.14 71.978 296.748 72.066 297.306 72.242C297.863 72.418 298.347 72.682 298.758 73.034C299.183 73.3713 299.513 73.7893 299.748 74.288C299.982 74.7867 300.1 75.3587 300.1 76.004V79.15ZM297.79 76.4C297.79 75.9893 297.716 75.6447 297.57 75.366C297.438 75.0727 297.262 74.838 297.042 74.662C296.822 74.486 296.572 74.3613 296.294 74.288C296.015 74.2 295.744 74.156 295.48 74.156C295.216 74.156 294.944 74.2 294.666 74.288C294.387 74.3613 294.138 74.486 293.918 74.662C293.698 74.838 293.514 75.0727 293.368 75.366C293.236 75.6447 293.17 75.9893 293.17 76.4V78.71C293.17 79.5313 293.397 80.1107 293.852 80.448C294.306 80.7853 294.849 80.954 295.48 80.954C295.744 80.954 296.015 80.9173 296.294 80.844C296.572 80.756 296.822 80.624 297.042 80.448C297.262 80.272 297.438 80.0447 297.57 79.766C297.716 79.4727 297.79 79.1207 297.79 78.71V76.4ZM311.137 79.722C311.137 80.1473 311.064 80.558 310.917 80.954C310.771 81.35 310.551 81.702 310.257 82.01C309.964 82.3033 309.597 82.5453 309.157 82.736C308.717 82.912 308.204 83 307.617 83H302.095V72.11H307.573C308.145 72.11 308.644 72.1907 309.069 72.352C309.495 72.5133 309.839 72.7333 310.103 73.012C310.382 73.276 310.587 73.5913 310.719 73.958C310.866 74.31 310.939 74.684 310.939 75.08C310.939 75.5053 310.815 75.9307 310.565 76.356C310.331 76.7813 310.001 77.0967 309.575 77.302C310.089 77.5367 310.477 77.874 310.741 78.314C311.005 78.754 311.137 79.2233 311.137 79.722ZM308.761 79.656C308.761 79.2453 308.615 78.9227 308.321 78.688C308.028 78.4533 307.676 78.336 307.265 78.336H304.449V81.042H307.133C307.691 81.042 308.101 80.9173 308.365 80.668C308.629 80.4187 308.761 80.0813 308.761 79.656ZM308.607 75.256C308.607 74.86 308.461 74.574 308.167 74.398C307.889 74.2073 307.559 74.112 307.177 74.112H304.449V76.378H307.243C307.669 76.378 307.999 76.2827 308.233 76.092C308.483 75.8867 308.607 75.608 308.607 75.256Z" fill="#2B2A29"/>
<defs>
<filter id="filter0_di" x="0" y="0" width="382" height="216" filterUnits="userSpaceOnUse" color-interpolation-filters="sRGB">
<feFlood flood-opacity="0" result="BackgroundImageFix"/>
<feColorMatrix in="SourceAlpha" type="matrix" values="0 0 0 0 0 0 0 0 0 0 0 0 0 0 0 0 0 0 127 0"/>
<feOffset dy="4"/>
<feGaussianBlur stdDeviation="3"/>
<feColorMatrix type="matrix" values="0 0 0 0 0 0 0 0 0 0 0 0 0 0 0 0 0 0 0.1 0"/>
<feBlend mode="normal" in2="BackgroundImageFix" result="effect1_dropShadow"/>
<feBlend mode="normal" in="SourceGraphic" in2="effect1_dropShadow" result="shape"/>
<feColorMatrix in="SourceAlpha" type="matrix" values="0 0 0 0 0 0 0 0 0 0 0 0 0 0 0 0 0 0 127 0" result="hardAlpha"/>
<feOffset dy="4"/>
<feComposite in2="hardAlpha" operator="arithmetic" k2="-1" k3="1"/>
<feColorMatrix type="matrix" values="0 0 0 0 0.996078 0 0 0 0 0.8 0 0 0 0 0 0 0 0 1 0"/>
<feBlend mode="normal" in2="shape" result="effect2_innerShadow"/>
</filter>
</defs>
</svg>
