<svg width="16" height="11" viewBox="0 0 16 11" fill="none" xmlns="http://www.w3.org/2000/svg">
<path fill-rule="evenodd" clip-rule="evenodd" d="M7.00195 7.48657C7.00195 5.55907 5.438 3.99648 3.50877 3.99648C3.32251 3.99648 3.13971 4.01122 2.96134 4.03927C3.11071 3.83665 3.27629 3.64376 3.45772 3.46247C4.40025 2.52077 5.65343 2.00215 6.98635 2.00215V0.0078125C3.12789 0.0078125 0 3.13293 0 6.98798L0.0155945 7.48657C0.0155945 9.41406 1.57954 10.9767 3.50877 10.9767C5.438 10.9767 7.00195 9.41406 7.00195 7.48657ZM15.9844 7.48657C15.9844 5.55907 14.4204 3.99648 12.4912 3.99648C12.3049 3.99648 12.1221 4.01122 11.9438 4.03927C12.0931 3.83665 12.2587 3.64376 12.4402 3.46247C13.3827 2.52077 14.6359 2.00215 15.9688 2.00215V0.0078125C12.1103 0.0078125 8.98246 3.13293 8.98246 6.98798L8.99805 7.48657C8.99805 9.41406 10.562 10.9767 12.4912 10.9767C14.4204 10.9767 15.9844 9.41406 15.9844 7.48657Z" fill="#FECC00"/>
</svg>
