<svg width="360" height="295" viewBox="0 0 360 295" fill="none" xmlns="http://www.w3.org/2000/svg">
<path fill-rule="evenodd" clip-rule="evenodd" d="M136.263 30.2916L139.863 29.0026H139.916L220.352 0.375959C222.985 -0.537084 225.94 0.429667 227.498 2.73913L227.552 2.79284L269.194 59.4015L269.248 59.4552C269.678 59.9923 270 60.5831 270.215 61.2276C270.484 61.8721 270.591 62.5703 270.591 63.2685V67.1356V147.269C270.591 150.008 268.71 152.478 266.078 153.23L265.97 153.284L182.901 182.877L182.794 182.931C182.042 183.253 181.236 183.414 180.376 183.414C179.463 183.414 178.549 183.199 177.743 182.824L177.582 182.77L94.2447 152.801C91.7731 151.941 90.1612 149.578 90.1612 147V143.133H90.1074V73.0435C90.1074 71.0563 91.0746 69.2302 92.6328 68.0486L92.7403 67.9412L133.952 31.7417L134.006 31.688C134.113 31.6074 134.221 31.5135 134.328 31.4195L134.328 31.4194L134.328 31.4194C134.436 31.3254 134.543 31.2314 134.651 31.1509C135.134 30.7749 135.672 30.5064 136.263 30.2916ZM220.137 13.5882L148.245 39.1535L182.633 85.8798L254.525 60.3146L220.137 13.5882ZM174.143 168.43L102.519 142.65V75.7289L137.337 45.1688L174.143 95.2251V168.43ZM258.179 142.972V72.0767L186.555 97.5882V168.483L258.179 142.972Z" fill="#2B2A29"/>
<path fill-rule="evenodd" clip-rule="evenodd" d="M47.0149 223.535C47.0149 235.082 54.6985 245.77 67.8627 245.77C81.4567 245.77 89.2478 234.598 89.2478 223.051C89.2478 211.558 81.6716 200.87 68.4 200.87C55.5582 200.87 47.0149 211.128 47.0149 223.535ZM0 243.997C0 246.253 2.09552 248.026 4.67463 248.026C6.87761 248.026 8.70448 246.898 9.45672 245.286H32.5612C33.1522 246.898 34.9254 248.026 37.0209 248.026C39.9224 248.026 42.2328 245.931 42.2328 243.514V240.775C42.2328 238.412 40.2985 236.801 37.5582 236.801H37.0209V205.488C37.0209 203.125 35.0866 201.46 32.4 201.46H14.2388C11.7134 201.46 9.02687 203.34 9.02687 205.972C9.02687 207.691 10.2627 209.141 12.0896 209.678C11.1761 218.969 8.16716 230.194 5.96418 236.747H5.26567C2.47164 236.747 0.0537313 238.734 0.0537313 241.205V243.944L0 243.997ZM21.8687 209.946H27.1343V236.801H15.9582C18.4299 229.066 21.0627 218.164 21.8149 209.946H21.8687ZM67.8627 209.302C59.9104 209.302 56.9015 217.197 56.9015 223.051C56.9015 231.322 61.7373 237.338 68.4 237.338C75.4388 237.338 79.3612 230.785 79.3612 223.535C79.3612 215.532 74.7403 209.302 67.8627 209.302ZM111.009 226.757H108.054V226.811V236.801H111.17C113.588 236.801 118.37 235.78 118.37 231.698C118.37 228.744 115.361 226.757 111.009 226.757ZM94.997 205.918C94.997 207.691 96.3403 209.194 98.2209 209.678V241.205C98.2209 243.568 100.155 245.233 102.842 245.233H110.633C116.328 245.233 128.203 242.655 128.203 231.591V231.43C128.203 223.642 120.949 218.432 111.546 218.432H108.054V210H115.469C116.275 211.343 117.833 212.202 119.66 212.202C122.561 212.202 124.872 210.107 124.872 207.691V205.542C124.872 203.179 122.937 201.514 120.197 201.514H100.101C97.5935 201.514 94.9794 203.368 94.9437 205.971L94.9433 205.972V206.026C94.9433 206.008 94.9434 205.989 94.9437 205.971L94.997 205.918ZM149.749 209.946H146.901V221.44C147.815 221.494 148.997 221.547 150.501 221.547C153.672 221.547 156.304 219.399 156.304 215.962C156.304 212.309 153.349 209.946 149.749 209.946ZM133.737 205.972C133.737 207.744 135.081 209.248 136.961 209.731V241.205C136.961 243.568 138.896 245.233 141.636 245.233H144.86C147.439 245.233 150.072 243.353 150.072 240.721C150.072 238.949 148.728 237.445 146.848 236.962V229.818C148.084 229.926 149.212 229.98 149.91 229.98C158.884 229.98 166.137 223.481 166.137 215.425C166.137 207.046 158.722 201.407 150.233 201.407H138.896C136.316 201.407 133.684 203.286 133.684 205.918L133.737 205.972ZM190.209 209.302C182.257 209.302 179.248 217.197 179.248 223.051C179.248 231.322 184.084 237.338 190.746 237.338C197.785 237.338 201.707 230.785 201.707 223.535C201.707 215.532 197.087 209.302 190.209 209.302ZM169.361 223.535C169.361 235.082 177.045 245.77 190.209 245.77C203.803 245.77 211.594 234.598 211.594 223.051C211.594 211.558 204.018 200.87 190.746 200.87C177.904 200.87 169.361 211.128 169.361 223.535ZM239.266 209.946H234H233.946C233.194 218.164 230.561 229.066 228.09 236.801H239.266V209.946ZM212.131 243.997C212.131 246.253 214.227 248.026 216.806 248.026C219.009 248.026 220.836 246.898 221.588 245.286H244.693C245.284 246.898 247.057 248.026 249.152 248.026C252.054 248.026 254.364 245.931 254.364 243.514V240.775C254.364 238.412 252.43 236.801 249.69 236.801H249.152V205.488C249.152 203.125 247.218 201.46 244.531 201.46H226.37C223.845 201.46 221.158 203.34 221.158 205.972C221.158 207.691 222.394 209.141 224.221 209.678C223.307 218.969 220.299 230.194 218.096 236.747H217.397C214.603 236.747 212.185 238.734 212.185 241.205V243.944L212.131 243.997ZM279.994 209.302C272.042 209.302 269.033 217.197 269.033 223.051C269.033 231.322 273.869 237.338 280.531 237.338C287.57 237.338 291.493 230.785 291.493 223.535C291.493 215.532 286.872 209.302 279.994 209.302ZM259.146 223.535C259.146 235.082 266.83 245.77 279.994 245.77C293.588 245.77 301.379 234.598 301.379 223.051C301.379 211.558 293.803 200.87 280.531 200.87C267.69 200.87 259.146 211.128 259.146 223.535ZM310.03 209.785C308.042 209.356 306.645 207.852 306.645 205.972C306.645 203.34 309.278 201.46 311.857 201.46H315.349C317.284 201.46 318.734 202.212 319.54 203.716L333.188 230.356L347.481 203.985C348.394 202.373 350.06 201.46 352.048 201.46C354.842 201.46 356.776 203.125 356.776 205.488V236.962C358.657 237.445 360 238.949 360 240.721C360 243.353 357.367 245.233 354.788 245.233H351.564C348.878 245.233 346.943 243.568 346.943 241.205V221.655L337.433 239.916C336.949 240.882 335.499 242.44 332.704 242.44C330.824 242.44 329.266 241.688 328.567 240.184L319.863 221.816V241.312C319.863 243.729 317.606 245.77 314.704 245.77C312.072 245.77 310.03 243.997 310.03 241.742V209.785Z" fill="#2B2A29"/>
<path fill-rule="evenodd" clip-rule="evenodd" d="M117.672 285.353V274.235V274.128C117.027 273.483 116.328 272.302 116.328 270.422C116.328 266.501 119.767 263.816 124.334 263.547C124.71 262.742 125.678 262.097 126.806 262.097C128.149 262.097 129.224 263.01 129.224 264.192V265.642C129.224 266.716 128.203 267.951 126.537 267.951H124.872C121.863 267.951 121.433 269.294 121.433 270.207C121.433 270.583 121.486 270.852 121.594 271.067H124.119C128.794 271.067 132.985 274.343 132.985 278.854C132.985 283.742 129.331 287.448 124.495 287.448H120.089C118.692 287.448 117.672 286.588 117.672 285.353ZM105.582 287.77C100.101 287.77 95.9641 283.903 95.9641 279.338C95.9641 273.806 100.585 270.153 105.904 270.153C111.492 270.153 115.522 274.128 115.522 278.532C115.522 283.849 111.17 287.77 105.582 287.77ZM79.1999 288.898C77.8566 288.898 76.782 287.985 76.782 286.803L76.8357 286.857V285.407C76.8357 284.279 77.7491 283.419 78.8775 283.151C79.576 281.54 80.4357 278.371 80.7581 274.719C79.7909 274.45 79.1462 273.698 79.1462 272.785C79.1462 271.389 80.5432 270.422 81.8865 270.422H88.3342C92.7402 270.422 93.7074 273.215 93.7074 275.041V283.097C94.7283 283.366 95.373 284.064 95.373 285.084V286.535C95.373 287.824 94.1372 288.898 92.6327 288.898C91.5581 288.898 90.6447 288.307 90.3223 287.448H81.6715C81.2954 288.307 80.3283 288.898 79.1999 288.898ZM88.5093 274.957C88.5014 274.934 88.4954 274.916 88.4954 274.88H88.5491C88.5325 274.88 88.5057 274.875 88.4685 274.868C88.3855 274.852 88.2512 274.826 88.0656 274.826H85.8088C85.5939 277.082 85.1103 280.304 84.1969 283.043H88.5491V275.363C88.5491 275.077 88.5253 275.005 88.5093 274.957ZM101.069 279.069L101.069 279.04C101.083 281.658 103.387 283.312 105.851 283.312C108.591 283.312 110.364 281.432 110.364 278.747C110.364 276.598 108.376 274.558 105.582 274.558C103.119 274.558 101.082 276.211 101.069 279.04L101.069 279.015V279.069ZM122.83 275.524H123.851C126.215 275.524 127.88 277.297 127.88 279.123C127.88 281.325 126.645 283.043 124.818 283.043H122.83V275.524ZM140.239 274.665C140.507 274.558 140.883 274.558 141.367 274.558C143.731 274.558 145.827 276.223 145.827 278.801C145.827 281.432 143.839 283.097 141.313 283.097H140.239V274.719V274.665ZM134.543 274.504C133.845 274.128 133.415 273.43 133.415 272.731L133.469 272.785C133.469 271.442 134.812 270.476 136.155 270.476C136.585 270.476 137.015 270.583 137.445 270.798L137.713 270.959C139.164 270.315 140.669 270.153 141.636 270.153C147.224 270.153 150.931 274.128 150.931 278.532C150.931 283.634 146.525 287.448 140.991 287.448H140.185V291.691C140.185 292.926 139.003 294 137.498 294C136.263 294 135.08 293.194 135.08 291.959V274.826L134.543 274.504ZM166.513 272.785C166.513 273.698 167.212 274.504 168.179 274.772V285.407C168.179 286.642 169.2 287.501 170.597 287.501H172.263C173.552 287.501 174.949 286.535 174.949 285.138C174.949 284.225 174.251 283.419 173.283 283.151V272.517C173.283 271.281 172.263 270.422 170.866 270.422H169.2C167.857 270.422 166.513 271.389 166.513 272.785ZM158.6 279.85C158.454 279.862 158.313 279.875 158.185 279.875L158.131 279.821V283.043H159.367C161.248 283.043 162.161 282.292 162.161 281.486C162.161 280.68 161.14 279.821 159.098 279.821C158.93 279.821 158.761 279.836 158.6 279.85ZM151.307 272.785C151.307 273.752 152.006 274.558 153.08 274.772V285.031C153.027 285.138 153.027 285.246 153.027 285.353C153.027 286.481 154.101 287.448 155.445 287.448H159.098C164.525 287.448 167.266 284.386 167.266 281.325C167.266 278.371 164.686 275.417 159.367 275.417C158.937 275.417 158.561 275.417 158.131 275.471V272.517C158.131 271.281 157.11 270.422 155.713 270.422H153.94C152.651 270.422 151.254 271.389 151.254 272.785H151.307ZM184.621 274.235C183.6 274.235 181.719 274.719 180.913 277.082H188.06C187.576 274.558 185.695 274.235 184.621 274.235ZM175.433 279.606C175.433 284.064 179.516 287.716 185.051 287.716C190.448 287.716 192.132 286.007 192.714 285.416C192.792 285.337 192.851 285.277 192.895 285.246C193.164 284.87 193.218 284.494 193.218 284.118C193.218 282.453 191.23 281.969 190.8 281.969C190.072 281.969 189.634 282.196 189.117 282.463C188.376 282.846 187.473 283.312 185.319 283.312C183.331 283.312 181.558 282.345 180.806 280.841H190.531C191.982 280.841 193.272 279.821 193.272 278.586C193.218 272.087 188.651 270.153 184.997 270.153C179.624 270.153 175.433 273.537 175.433 279.606ZM214.939 274.957C214.931 274.934 214.925 274.916 214.925 274.88H214.979C214.962 274.88 214.936 274.875 214.898 274.868C214.815 274.852 214.681 274.826 214.495 274.826H212.239C212.024 277.082 211.54 280.304 210.627 283.043H214.979V275.363C214.979 275.077 214.955 275.005 214.939 274.957ZM203.212 286.803C203.212 287.985 204.286 288.898 205.63 288.898C206.758 288.898 207.725 288.307 208.101 287.448H216.752C217.075 288.307 217.988 288.898 219.063 288.898C220.567 288.898 221.803 287.824 221.803 286.535V285.084C221.803 284.064 221.158 283.366 220.137 283.097V275.041C220.137 273.215 219.17 270.422 214.764 270.422H208.316C206.973 270.422 205.576 271.389 205.576 272.785C205.576 273.698 206.221 274.45 207.188 274.719C206.866 278.371 206.006 281.54 205.307 283.151C204.179 283.419 203.266 284.279 203.266 285.407V286.857L203.212 286.803ZM232.012 274.558C229.549 274.558 227.512 276.211 227.498 279.04L227.498 279.015V279.069L227.498 279.04C227.513 281.658 229.817 283.312 232.28 283.312C235.021 283.312 236.794 281.432 236.794 278.747C236.794 276.598 234.806 274.558 232.012 274.558ZM222.394 279.338C222.394 283.903 226.531 287.77 232.012 287.77C237.6 287.77 241.952 283.849 241.952 278.532C241.952 274.128 237.922 270.153 232.334 270.153C227.015 270.153 222.394 273.806 222.394 279.338ZM244.101 274.772C243.027 274.504 242.328 273.752 242.328 272.785L242.275 272.678C242.275 271.281 243.618 270.315 244.961 270.315H246.788C247.701 270.315 248.454 270.691 248.883 271.335L254.418 279.767L260.275 271.442C260.758 270.744 261.618 270.315 262.531 270.315C263.928 270.315 265.003 271.174 265.003 272.409V283.043C265.97 283.312 266.669 284.118 266.669 285.031C266.669 286.427 265.325 287.394 263.982 287.394H262.316C260.919 287.394 259.898 286.535 259.898 285.299V279.552L256.513 284.87C256.245 285.246 255.6 285.997 254.203 285.997C253.289 285.997 252.537 285.675 252.107 284.977L249.206 280.358V285.46C249.206 286.696 248.024 287.77 246.519 287.77C245.176 287.77 244.101 286.857 244.101 285.675V274.772ZM276.448 283.205C276.125 283.312 275.695 283.312 275.158 283.312C272.901 283.312 272.364 282.077 272.364 281.593C272.364 281.11 272.74 280.143 275.212 280.09H276.448V283.151V283.205ZM271.397 275.256C270.161 275.256 268.979 274.396 268.979 273.161V273.107C268.979 270.583 273.385 270.1 275.158 270.1C278.758 270.1 281.552 272.302 281.552 275.632V283.043L282.089 283.366C282.788 283.742 283.218 284.44 283.218 285.138C283.218 286.535 281.875 287.501 280.531 287.501C280.101 287.501 279.672 287.394 279.242 287.179L278.919 287.018C277.845 287.501 276.501 287.77 274.836 287.77C268.872 287.77 267.206 284.279 267.206 281.916C267.206 279.015 270.322 276.384 275.48 276.384H276.448V275.954C276.443 275.92 276.439 275.88 276.434 275.836C276.39 275.4 276.305 274.558 274.889 274.558C273.604 274.558 273.068 274.784 272.607 274.979C272.258 275.126 271.952 275.256 271.397 275.256Z" fill="#2B2A29"/>
</svg>
